NotoSansGeorgian-Regular.ufo
<glyph name="acutecomb" format="2">
  <unicode hex="0301"/>
  <anchor x="-19" y="536" name="_top"/>
  <anchor x="-19" y="766" name="top"/>
  <outline>
    <contour>
      <point x="101" y="766" type="line"/>
      <point x="-5" y="766" type="line"/>
      <point x="-28" y="721"/>
      <point x="-71" y="655"/>
      <point x="-100" y="618" type="curve"/>
      <point x="-100" y="606" type="line"/>
      <point x="-42" y="606" type="line"/>
      <point x="5" y="642"/>
      <point x="76" y="719"/>
      <point x="101" y="756" type="curve"/>
    </contour>
  </outline>
</glyph>
<glyph name="dieresiscomb" format="2">
  <unicode hex="0308"/>
  <anchor x="0" y="536" name="_top"/>
  <anchor x="0" y="714" name="top"/>
  <outline>
    <contour>
      <point x="-141" y="665" type="curve" smooth="yes"/>
      <point x="-141" y="631"/>
      <point x="-120" y="615"/>
      <point x="-94" y="615" type="curve" smooth="yes"/>
      <point x="-69" y="615"/>
      <point x="-47" y="631"/>
      <point x="-47" y="665" type="curve" smooth="yes"/>
      <point x="-47" y="700"/>
      <point x="-69" y="714"/>
      <point x="-94" y="714" type="curve" smooth="yes"/>
      <point x="-120" y="714"/>
      <point x="-141" y="700"/>
    </contour>
    <contour>
      <point x="47" y="665" type="curve" smooth="yes"/>
      <point x="47" y="631"/>
      <point x="68" y="615"/>
      <point x="93" y="615" type="curve" smooth="yes"/>
      <point x="118" y="615"/>
      <point x="140" y="631"/>
      <point x="140" y="665" type="curve" smooth="yes"/>
      <point x="140" y="700"/>
      <point x="118" y="714"/>
      <point x="93" y="714" type="curve" smooth="yes"/>
      <point x="68" y="714"/>
      <point x="47" y="700"/>
    </contour>
  </outline>
</glyph>
<glyph name="An-oldgeorgian" format="2">
  <advance width="631"/>
  <unicode hex="10A0"/>
  <note>
uni10A0
</note>
  <outline>
    <contour>
      <point x="396" y="-10" type="curve" smooth="yes"/>
      <point x="475" y="-10"/>
      <point x="527" y="-1"/>
      <point x="580" y="19" type="curve"/>
      <point x="580" y="97" type="line"/>
      <point x="526" y="81"/>
      <point x="471" y="69"/>
      <point x="409" y="69" type="curve" smooth="yes"/>
      <point x="245" y="69"/>
      <point x="156" y="167"/>
      <point x="156" y="339" type="curve" smooth="yes"/>
      <point x="156" y="517"/>
      <point x="266" y="636"/>
      <point x="454" y="636" type="curve" smooth="yes"/>
      <point x="580" y="636" type="line"/>
      <point x="580" y="714" type="line"/>
      <point x="79" y="714" type="line"/>
      <point x="79" y="640" type="line"/>
      <point x="244" y="640" type="line"/>
      <point x="244" y="637" type="line"/>
      <point x="139" y="587"/>
      <point x="61" y="476"/>
      <point x="61" y="328" type="curve" smooth="yes"/>
      <point x="61" y="122"/>
      <point x="196" y="-10"/>
    </contour>
  </outline>
</glyph>
<glyph name="Gan-oldgeorgian" format="2">
  <advance width="741"/>
  <unicode hex="10A2"/>
  <note>
uni10A2
</note>
  <outline>
    <contour>
      <point x="454" y="0" type="line"/>
      <point x="731" y="0" type="line"/>
      <point x="731" y="78" type="line"/>
      <point x="544" y="78" type="line"/>
      <point x="544" y="714" type="line"/>
      <point x="76" y="714" type="line"/>
      <point x="76" y="390" type="line"/>
      <point x="166" y="390" type="line"/>
      <point x="166" y="636" type="line"/>
      <point x="454" y="636" type="line"/>
    </contour>
  </outline>
</glyph>
<glyph name="Don-oldgeorgian" format="2">
  <advance width="763"/>
  <unicode hex="10A3"/>
  <note>
uni10A3
</note>
  <outline>
    <contour>
      <point x="380" y="-10" type="curve" smooth="yes"/>
      <point x="584" y="-10"/>
      <point x="702" y="99"/>
      <point x="702" y="281" type="curve" smooth="yes"/>
      <point x="702" y="449"/>
      <point x="601" y="558"/>
      <point x="427" y="572" type="curve"/>
      <point x="427" y="635" type="line"/>
      <point x="669" y="635" type="line"/>
      <point x="669" y="714" type="line"/>
      <point x="94" y="714" type="line"/>
      <point x="94" y="635" type="line"/>
      <point x="337" y="635" type="line"/>
      <point x="337" y="572" type="line"/>
      <point x="166" y="557"/>
      <point x="61" y="447"/>
      <point x="61" y="281" type="curve" smooth="yes"/>
      <point x="61" y="102"/>
      <point x="181" y="-10"/>
    </contour>
    <contour>
      <point x="380" y="69" type="curve" smooth="yes"/>
      <point x="236" y="69"/>
      <point x="156" y="144"/>
      <point x="156" y="282" type="curve" smooth="yes"/>
      <point x="156" y="421"/>
      <point x="237" y="496"/>
      <point x="381" y="496" type="curve" smooth="yes"/>
      <point x="526" y="496"/>
      <point x="607" y="419"/>
      <point x="607" y="282" type="curve" smooth="yes"/>
      <point x="607" y="143"/>
      <point x="525" y="69"/>
    </contour>
  </outline>
</glyph>
<glyph name="En-oldgeorgian" format="2">
  <advance width="642"/>
  <unicode hex="10A4"/>
  <note>
uni10A4
</note>
  <outline>
    <contour>
      <point x="454" y="0" type="line"/>
      <point x="544" y="0" type="line"/>
      <point x="544" y="714" type="line"/>
      <point x="76" y="714" type="line"/>
      <point x="76" y="390" type="line"/>
      <point x="166" y="390" type="line"/>
      <point x="166" y="636" type="line"/>
      <point x="454" y="636" type="line"/>
    </contour>
  </outline>
</glyph>
<glyph name="Vin-oldgeorgian" format="2">
  <advance width="825"/>
  <unicode hex="10A5"/>
  <note>
uni10A5
</note>
  <outline>
    <contour>
      <point x="454" y="0" type="line"/>
      <point x="544" y="0" type="line"/>
      <point x="544" y="339" type="line"/>
      <point x="695" y="339" type="line"/>
      <point x="695" y="174" type="line"/>
      <point x="781" y="174" type="line"/>
      <point x="781" y="417" type="line"/>
      <point x="544" y="417" type="line"/>
      <point x="544" y="714" type="line"/>
      <point x="76" y="714" type="line"/>
      <point x="76" y="390" type="line"/>
      <point x="166" y="390" type="line"/>
      <point x="166" y="636" type="line"/>
      <point x="454" y="636" type="line"/>
    </contour>
  </outline>
</glyph>
<glyph name="Zen-oldgeorgian" format="2">
  <advance width="799"/>
  <unicode hex="10A6"/>
  <note>
uni10A6
</note>
  <outline>
    <contour>
      <point x="471" y="-10" type="curve" smooth="yes"/>
      <point x="642" y="-10"/>
      <point x="743" y="98"/>
      <point x="743" y="269" type="curve" smooth="yes"/>
      <point x="743" y="431"/>
      <point x="652" y="546"/>
      <point x="495" y="546" type="curve" smooth="yes"/>
      <point x="409" y="546"/>
      <point x="352" y="518"/>
      <point x="301" y="444" type="curve"/>
      <point x="295" y="444" type="line"/>
      <point x="298" y="474"/>
      <point x="300" y="512"/>
      <point x="300" y="530" type="curve" smooth="yes"/>
      <point x="300" y="714" type="line"/>
      <point x="5" y="714" type="line"/>
      <point x="5" y="636" type="line"/>
      <point x="210" y="636" type="line"/>
      <point x="210" y="267" type="line" smooth="yes"/>
      <point x="210" y="97"/>
      <point x="307" y="-10"/>
    </contour>
    <contour>
      <point x="470" y="68" type="curve" smooth="yes"/>
      <point x="363" y="68"/>
      <point x="300" y="143"/>
      <point x="300" y="267" type="curve" smooth="yes"/>
      <point x="300" y="391"/>
      <point x="365" y="468"/>
      <point x="481" y="468" type="curve" smooth="yes"/>
      <point x="588" y="468"/>
      <point x="650" y="396"/>
      <point x="650" y="269" type="curve" smooth="yes"/>
      <point x="650" y="142"/>
      <point x="583" y="68"/>
    </contour>
  </outline>
</glyph>
<glyph name="Tan-oldgeorgian" format="2">
  <advance width="914"/>
  <unicode hex="10A7"/>
  <note>
uni10A7
</note>
  <outline>
    <contour>
      <point x="633" y="417" type="line"/>
      <point x="633" y="714" type="line"/>
      <point x="434" y="714" type="line" smooth="yes"/>
      <point x="194" y="714"/>
      <point x="61" y="586"/>
      <point x="61" y="350" type="curve" smooth="yes"/>
      <point x="61" y="130"/>
      <point x="189" y="0"/>
      <point x="413" y="0" type="curve" smooth="yes"/>
      <point x="633" y="0" type="line"/>
      <point x="633" y="339" type="line"/>
      <point x="784" y="339" type="line"/>
      <point x="784" y="174" type="line"/>
      <point x="870" y="174" type="line"/>
      <point x="870" y="417" type="line"/>
    </contour>
    <contour>
      <point x="543" y="77" type="line"/>
      <point x="426" y="77" type="line" smooth="yes"/>
      <point x="247" y="77"/>
      <point x="156" y="171"/>
      <point x="156" y="353" type="curve" smooth="yes"/>
      <point x="156" y="541"/>
      <point x="253" y="637"/>
      <point x="446" y="637" type="curve" smooth="yes"/>
      <point x="543" y="637" type="line"/>
    </contour>
  </outline>
</glyph>
<glyph name="In-oldgeorgian" format="2">
  <advance width="482"/>
  <unicode hex="10A8"/>
  <note>
uni10A8
</note>
  <outline>
    <contour>
      <point x="294" y="0" type="line"/>
      <point x="384" y="0" type="line"/>
      <point x="384" y="714" type="line"/>
      <point x="5" y="714" type="line"/>
      <point x="5" y="636" type="line"/>
      <point x="294" y="636" type="line"/>
    </contour>
  </outline>
</glyph>
<glyph name="Kan-oldgeorgian" format="2">
  <advance width="703"/>
  <unicode hex="10A9"/>
  <note>
uni10A9
</note>
  <outline>
    <contour>
      <point x="533" y="0" type="line"/>
      <point x="623" y="0" type="line"/>
      <point x="623" y="362" type="line" smooth="yes"/>
      <point x="623" y="514"/>
      <point x="531" y="624"/>
      <point x="375" y="624" type="curve" smooth="yes"/>
      <point x="290" y="624"/>
      <point x="232" y="596"/>
      <point x="181" y="522" type="curve"/>
      <point x="175" y="522" type="line"/>
      <point x="178" y="571"/>
      <point x="180" y="600"/>
      <point x="180" y="608" type="curve" smooth="yes"/>
      <point x="180" y="714" type="line"/>
      <point x="90" y="714" type="line"/>
      <point x="90" y="362" type="line" smooth="yes"/>
      <point x="90" y="206"/>
      <point x="184" y="100"/>
      <point x="338" y="100" type="curve"/>
      <point x="423" y="100"/>
      <point x="485" y="133"/>
      <point x="532" y="202" type="curve"/>
      <point x="538" y="202" type="line"/>
      <point x="536" y="174"/>
      <point x="533" y="142"/>
      <point x="533" y="116" type="curve" smooth="yes"/>
    </contour>
    <contour>
      <point x="351" y="178" type="curve" smooth="yes"/>
      <point x="243" y="178"/>
      <point x="180" y="247"/>
      <point x="180" y="362" type="curve" smooth="yes"/>
      <point x="180" y="477"/>
      <point x="247" y="546"/>
      <point x="362" y="546" type="curve" smooth="yes"/>
      <point x="469" y="546"/>
      <point x="533" y="479"/>
      <point x="533" y="362" type="curve" smooth="yes"/>
      <point x="533" y="248"/>
      <point x="466" y="178"/>
    </contour>
  </outline>
</glyph>
<glyph name="Las-oldgeorgian" format="2">
  <advance width="1003"/>
  <unicode hex="10AA"/>
  <note>
uni10AA
</note>
  <outline>
    <contour>
      <point x="675" y="-10" type="curve" smooth="yes"/>
      <point x="840" y="-10"/>
      <point x="947" y="96"/>
      <point x="947" y="269" type="curve" smooth="yes"/>
      <point x="947" y="427"/>
      <point x="858" y="546"/>
      <point x="699" y="546" type="curve" smooth="yes"/>
      <point x="614" y="546"/>
      <point x="556" y="518"/>
      <point x="505" y="444" type="curve"/>
      <point x="499" y="444" type="line"/>
      <point x="502" y="493"/>
      <point x="504" y="521"/>
      <point x="504" y="530" type="curve" smooth="yes"/>
      <point x="504" y="714" type="line"/>
      <point x="76" y="714" type="line"/>
      <point x="76" y="390" type="line"/>
      <point x="166" y="390" type="line"/>
      <point x="166" y="636" type="line"/>
      <point x="414" y="636" type="line"/>
      <point x="414" y="267" type="line" smooth="yes"/>
      <point x="414" y="96"/>
      <point x="513" y="-10"/>
    </contour>
    <contour>
      <point x="674" y="68" type="curve" smooth="yes"/>
      <point x="566" y="68"/>
      <point x="504" y="143"/>
      <point x="504" y="267" type="curve" smooth="yes"/>
      <point x="504" y="392"/>
      <point x="570" y="468"/>
      <point x="685" y="468" type="curve" smooth="yes"/>
      <point x="792" y="468"/>
      <point x="854" y="396"/>
      <point x="854" y="269" type="curve" smooth="yes"/>
      <point x="854" y="142"/>
      <point x="787" y="68"/>
    </contour>
  </outline>
</glyph>
<glyph name="Man-oldgeorgian" format="2">
  <advance width="750"/>
  <unicode hex="10AB"/>
  <note>
uni10AB
</note>
  <outline>
    <contour>
      <point x="317" y="-10" type="curve" smooth="yes"/>
      <point x="488" y="-10"/>
      <point x="575" y="89"/>
      <point x="575" y="248" type="curve" smooth="yes"/>
      <point x="575" y="399" type="line"/>
      <point x="706" y="399" type="line"/>
      <point x="706" y="477" type="line"/>
      <point x="575" y="477" type="line"/>
      <point x="575" y="714" type="line"/>
      <point x="116" y="714" type="line"/>
      <point x="116" y="636" type="line"/>
      <point x="485" y="636" type="line"/>
      <point x="485" y="477" type="line"/>
      <point x="316" y="477" type="line" smooth="yes"/>
      <point x="158" y="477"/>
      <point x="61" y="389"/>
      <point x="61" y="233" type="curve" smooth="yes"/>
      <point x="61" y="77"/>
      <point x="165" y="-10"/>
    </contour>
    <contour>
      <point x="312" y="68" type="curve" smooth="yes"/>
      <point x="217" y="68"/>
      <point x="152" y="122"/>
      <point x="152" y="233" type="curve" smooth="yes"/>
      <point x="152" y="343"/>
      <point x="210" y="399"/>
      <point x="321" y="399" type="curve" smooth="yes"/>
      <point x="485" y="399" type="line"/>
      <point x="485" y="242" type="line" smooth="yes"/>
      <point x="485" y="133"/>
      <point x="434" y="68"/>
    </contour>
  </outline>
</glyph>
<glyph name="Nar-oldgeorgian" format="2">
  <advance width="710"/>
  <unicode hex="10AC"/>
  <note>
uni10AC
</note>
  <outline>
    <contour>
      <point x="98" y="0" type="line"/>
      <point x="188" y="0" type="line"/>
      <point x="188" y="220" type="line" smooth="yes"/>
      <point x="188" y="337"/>
      <point x="257" y="410"/>
      <point x="374" y="410" type="curve" smooth="yes"/>
      <point x="473" y="410"/>
      <point x="527" y="352"/>
      <point x="527" y="230" type="curve" smooth="yes"/>
      <point x="527" y="0" type="line"/>
      <point x="617" y="0" type="line"/>
      <point x="617" y="229" type="line" smooth="yes"/>
      <point x="617" y="401"/>
      <point x="533" y="488"/>
      <point x="391" y="488" type="curve" smooth="yes"/>
      <point x="303" y="488"/>
      <point x="237" y="456"/>
      <point x="189" y="386" type="curve"/>
      <point x="183" y="386" type="line"/>
      <point x="187" y="435"/>
      <point x="188" y="464"/>
      <point x="188" y="472" type="curve" smooth="yes"/>
      <point x="188" y="636" type="line"/>
      <point x="589" y="636" type="line"/>
      <point x="589" y="714" type="line"/>
      <point x="98" y="714" type="line"/>
    </contour>
  </outline>
</glyph>
<glyph name="On-oldgeorgian" format="2">
  <advance width="864"/>
  <unicode hex="10AD"/>
  <note>
uni10AD
</note>
  <outline>
    <contour>
      <point x="391" y="-10" type="curve" smooth="yes"/>
      <point x="474" y="-10"/>
      <point x="543" y="12"/>
      <point x="595" y="52" type="curve"/>
      <point x="632" y="15"/>
      <point x="675" y="-10"/>
      <point x="725" y="-10" type="curve" smooth="yes"/>
      <point x="816" y="-10"/>
      <point x="854" y="50"/>
      <point x="854" y="137" type="curve"/>
      <point x="772" y="137" type="line"/>
      <point x="772" y="82"/>
      <point x="754" y="57"/>
      <point x="716" y="57" type="curve" smooth="yes"/>
      <point x="686" y="57"/>
      <point x="663" y="69"/>
      <point x="636" y="92" type="curve"/>
      <point x="692" y="156"/>
      <point x="720" y="248"/>
      <point x="720" y="358" type="curve" smooth="yes"/>
      <point x="720" y="579"/>
      <point x="606" y="724"/>
      <point x="392" y="724" type="curve" smooth="yes"/>
      <point x="168" y="724"/>
      <point x="61" y="577"/>
      <point x="61" y="359" type="curve" smooth="yes"/>
      <point x="61" y="138"/>
      <point x="168" y="-10"/>
    </contour>
    <contour>
      <point x="391" y="68" type="curve" smooth="yes"/>
      <point x="230" y="68"/>
      <point x="156" y="178"/>
      <point x="156" y="358" type="curve" smooth="yes"/>
      <point x="156" y="537"/>
      <point x="230" y="645"/>
      <point x="392" y="645" type="curve" smooth="yes"/>
      <point x="553" y="645"/>
      <point x="625" y="537"/>
      <point x="625" y="358" type="curve" smooth="yes"/>
      <point x="625" y="178"/>
      <point x="553" y="68"/>
    </contour>
  </outline>
</glyph>
<glyph name="Par-oldgeorgian" format="2">
  <advance width="853"/>
  <unicode hex="10AE"/>
  <note>
uni10AE
</note>
  <outline>
    <contour>
      <point x="488" y="-10" type="curve" smooth="yes"/>
      <point x="661" y="-10"/>
      <point x="760" y="90"/>
      <point x="760" y="254" type="curve" smooth="yes"/>
      <point x="760" y="714" type="line"/>
      <point x="670" y="714" type="line"/>
      <point x="670" y="251" type="line" smooth="yes"/>
      <point x="670" y="134"/>
      <point x="608" y="68"/>
      <point x="483" y="68" type="curve" smooth="yes"/>
      <point x="364" y="68"/>
      <point x="299" y="135"/>
      <point x="299" y="252" type="curve" smooth="yes"/>
      <point x="299" y="714" type="line"/>
      <point x="5" y="714" type="line"/>
      <point x="5" y="636" type="line"/>
      <point x="210" y="636" type="line"/>
      <point x="210" y="252" type="line" smooth="yes"/>
      <point x="210" y="88"/>
      <point x="314" y="-10"/>
    </contour>
  </outline>
</glyph>
<glyph name="Zhar-oldgeorgian" format="2">
  <advance width="739"/>
  <unicode hex="10AF"/>
  <note>
uni10AF
</note>
  <outline>
    <contour>
      <point x="550" y="0" type="line"/>
      <point x="641" y="0" type="line"/>
      <point x="641" y="714" type="line"/>
      <point x="551" y="714" type="line"/>
      <point x="551" y="507" type="line" smooth="yes"/>
      <point x="551" y="358"/>
      <point x="492" y="293"/>
      <point x="364" y="293" type="curve" smooth="yes"/>
      <point x="262" y="293"/>
      <point x="211" y="352"/>
      <point x="211" y="469" type="curve" smooth="yes"/>
      <point x="211" y="526"/>
      <point x="232" y="609"/>
      <point x="325" y="636" type="curve"/>
      <point x="325" y="714" type="line"/>
      <point x="10" y="714" type="line"/>
      <point x="10" y="636" type="line"/>
      <point x="200" y="636" type="line"/>
      <point x="200" y="633" type="line"/>
      <point x="151" y="597"/>
      <point x="116" y="537"/>
      <point x="116" y="451" type="curve" smooth="yes"/>
      <point x="116" y="308"/>
      <point x="210" y="215"/>
      <point x="346" y="215" type="curve" smooth="yes"/>
      <point x="432" y="215"/>
      <point x="511" y="254"/>
      <point x="550" y="312" type="curve"/>
      <point x="555" y="312" type="line"/>
      <point x="552" y="280"/>
      <point x="550" y="252"/>
      <point x="550" y="214" type="curve" smooth="yes"/>
    </contour>
  </outline>
</glyph>
<glyph name="Rae-oldgeorgian" format="2">
  <advance width="916"/>
  <unicode hex="10B0"/>
  <note>
uni10B0
</note>
  <outline>
    <contour>
      <point x="298" y="-10" type="curve" smooth="yes"/>
      <point x="448" y="-10"/>
      <point x="539" y="86"/>
      <point x="539" y="252" type="curve" smooth="yes"/>
      <point x="539" y="328" type="line" smooth="yes"/>
      <point x="539" y="415"/>
      <point x="588" y="468"/>
      <point x="665" y="468" type="curve" smooth="yes"/>
      <point x="741" y="468"/>
      <point x="781" y="410"/>
      <point x="781" y="343" type="curve" smooth="yes"/>
      <point x="781" y="312"/>
      <point x="773" y="279"/>
      <point x="756" y="248" type="curve"/>
      <point x="835" y="223" type="line"/>
      <point x="859" y="263"/>
      <point x="872" y="309"/>
      <point x="872" y="352" type="curve" smooth="yes"/>
      <point x="872" y="454"/>
      <point x="808" y="546"/>
      <point x="692" y="546" type="curve" smooth="yes"/>
      <point x="634" y="546"/>
      <point x="578" y="524"/>
      <point x="540" y="464" type="curve"/>
      <point x="534" y="464" type="line"/>
      <point x="538" y="513"/>
      <point x="539" y="542"/>
      <point x="539" y="550" type="curve" smooth="yes"/>
      <point x="539" y="714" type="line"/>
      <point x="449" y="714" type="line"/>
      <point x="449" y="252" type="line" smooth="yes"/>
      <point x="449" y="129"/>
      <point x="395" y="68"/>
      <point x="297" y="68" type="curve" smooth="yes"/>
      <point x="201" y="68"/>
      <point x="150" y="145"/>
      <point x="150" y="234" type="curve" smooth="yes"/>
      <point x="150" y="277"/>
      <point x="162" y="324"/>
      <point x="188" y="366" type="curve"/>
      <point x="111" y="398" type="line"/>
      <point x="74" y="346"/>
      <point x="56" y="294"/>
      <point x="56" y="232" type="curve" smooth="yes"/>
      <point x="56" y="95"/>
      <point x="148" y="-10"/>
    </contour>
  </outline>
</glyph>
<glyph name="San-oldgeorgian" format="2">
  <advance width="632"/>
  <unicode hex="10B1"/>
  <note>
uni10B1
</note>
  <outline>
    <contour>
      <point x="334" y="-10" type="curve" smooth="yes"/>
      <point x="484" y="-10"/>
      <point x="576" y="95"/>
      <point x="576" y="232" type="curve" smooth="yes"/>
      <point x="576" y="294"/>
      <point x="558" y="346"/>
      <point x="521" y="398" type="curve"/>
      <point x="444" y="366" type="line"/>
      <point x="470" y="324"/>
      <point x="482" y="277"/>
      <point x="482" y="234" type="curve" smooth="yes"/>
      <point x="482" y="145"/>
      <point x="431" y="68"/>
      <point x="335" y="68" type="curve" smooth="yes"/>
      <point x="237" y="68"/>
      <point x="183" y="129"/>
      <point x="183" y="252" type="curve" smooth="yes"/>
      <point x="183" y="714" type="line"/>
      <point x="93" y="714" type="line"/>
      <point x="93" y="252" type="line" smooth="yes"/>
      <point x="93" y="86"/>
      <point x="184" y="-10"/>
    </contour>
  </outline>
</glyph>
<glyph name="Tar-oldgeorgian" format="2">
  <advance width="616"/>
  <unicode hex="10B2"/>
  <note>
uni10B2
</note>
  <outline>
    <contour>
      <point x="98" y="0" type="line"/>
      <point x="527" y="0" type="line"/>
      <point x="527" y="78" type="line"/>
      <point x="188" y="78" type="line"/>
      <point x="188" y="278" type="line"/>
      <point x="270" y="278" type="line" smooth="yes"/>
      <point x="451" y="278"/>
      <point x="555" y="358"/>
      <point x="555" y="504" type="curve" smooth="yes"/>
      <point x="555" y="644"/>
      <point x="466" y="714"/>
      <point x="287" y="714" type="curve" smooth="yes"/>
      <point x="98" y="714" type="line"/>
    </contour>
    <contour>
      <point x="188" y="355" type="line"/>
      <point x="188" y="637" type="line"/>
      <point x="279" y="637" type="line" smooth="yes"/>
      <point x="404" y="637"/>
      <point x="462" y="592"/>
      <point x="462" y="500" type="curve" smooth="yes"/>
      <point x="462" y="398"/>
      <point x="402" y="355"/>
      <point x="260" y="355" type="curve" smooth="yes"/>
    </contour>
  </outline>
</glyph>
<glyph name="Un-oldgeorgian" format="2">
  <advance width="780"/>
  <unicode hex="10B3"/>
  <note>
uni10B3
</note>
  <outline>
    <contour>
      <point x="595" y="-170" type="curve" smooth="yes"/>
      <point x="695" y="-170"/>
      <point x="760" y="-109"/>
      <point x="760" y="-17" type="curve" smooth="yes"/>
      <point x="760" y="55"/>
      <point x="716" y="95"/>
      <point x="649" y="110" type="curve"/>
      <point x="700" y="187"/>
      <point x="720" y="265"/>
      <point x="720" y="358" type="curve" smooth="yes"/>
      <point x="720" y="588"/>
      <point x="599" y="724"/>
      <point x="392" y="724" type="curve" smooth="yes"/>
      <point x="179" y="724"/>
      <point x="61" y="591"/>
      <point x="61" y="359" type="curve" smooth="yes"/>
      <point x="61" y="125"/>
      <point x="181" y="-10"/>
      <point x="391" y="-10" type="curve" smooth="yes"/>
      <point x="476" y="-10"/>
      <point x="546" y="13"/>
      <point x="603" y="59" type="curve"/>
      <point x="642" y="50"/>
      <point x="672" y="21"/>
      <point x="672" y="-17" type="curve" smooth="yes"/>
      <point x="672" y="-63"/>
      <point x="645" y="-92"/>
      <point x="595" y="-92" type="curve" smooth="yes"/>
      <point x="579" y="-92"/>
      <point x="565" y="-90"/>
      <point x="553" y="-88" type="curve"/>
      <point x="553" y="-166" type="line"/>
      <point x="570" y="-168"/>
      <point x="584" y="-170"/>
    </contour>
    <contour>
      <point x="391" y="68" type="curve" smooth="yes"/>
      <point x="237" y="68"/>
      <point x="156" y="169"/>
      <point x="156" y="358" type="curve" smooth="yes"/>
      <point x="156" y="546"/>
      <point x="237" y="645"/>
      <point x="392" y="645" type="curve" smooth="yes"/>
      <point x="545" y="645"/>
      <point x="625" y="549"/>
      <point x="625" y="358" type="curve" smooth="yes"/>
      <point x="625" y="167"/>
      <point x="544" y="68"/>
    </contour>
  </outline>
</glyph>
<glyph name="Phar-oldgeorgian" format="2">
  <advance width="823"/>
  <unicode hex="10B4"/>
  <note>
uni10B4
</note>
  <outline>
    <contour>
      <point x="367" y="0" type="line"/>
      <point x="456" y="0" type="line"/>
      <point x="456" y="178" type="line"/>
      <point x="638" y="178"/>
      <point x="762" y="274"/>
      <point x="762" y="448" type="curve" smooth="yes"/>
      <point x="762" y="630"/>
      <point x="642" y="724"/>
      <point x="414" y="724" type="curve" smooth="yes"/>
      <point x="187" y="724"/>
      <point x="61" y="626"/>
      <point x="61" y="448" type="curve" smooth="yes"/>
      <point x="61" y="278"/>
      <point x="182" y="178"/>
      <point x="367" y="178" type="curve"/>
    </contour>
    <contour>
      <point x="367" y="252" type="line"/>
      <point x="229" y="252"/>
      <point x="152" y="323"/>
      <point x="152" y="449" type="curve" smooth="yes"/>
      <point x="152" y="572"/>
      <point x="230" y="645"/>
      <point x="367" y="648" type="curve"/>
    </contour>
    <contour>
      <point x="456" y="252" type="curve"/>
      <point x="456" y="648" type="line"/>
      <point x="594" y="645"/>
      <point x="671" y="574"/>
      <point x="671" y="449" type="curve" smooth="yes"/>
      <point x="671" y="323"/>
      <point x="593" y="252"/>
    </contour>
  </outline>
</glyph>
<glyph name="Khar-oldgeorgian" format="2">
  <advance width="616"/>
  <unicode hex="10B5"/>
  <note>
uni10B5
</note>
  <outline>
    <contour>
      <point x="258" y="0" type="line"/>
      <point x="348" y="0" type="line"/>
      <point x="348" y="399" type="line"/>
      <point x="555" y="399" type="line"/>
      <point x="555" y="477" type="line"/>
      <point x="348" y="477" type="line"/>
      <point x="348" y="714" type="line"/>
      <point x="258" y="714" type="line"/>
      <point x="258" y="477" type="line"/>
      <point x="51" y="477" type="line"/>
      <point x="51" y="399" type="line"/>
      <point x="258" y="399" type="line"/>
    </contour>
  </outline>
</glyph>
<glyph name="Ghan-oldgeorgian" format="2">
  <advance width="736"/>
  <unicode hex="10B6"/>
  <note>
uni10B6
</note>
  <outline>
    <contour>
      <point x="93" y="0" type="line"/>
      <point x="182" y="0" type="line"/>
      <point x="182" y="462" type="line" smooth="yes"/>
      <point x="182" y="581"/>
      <point x="248" y="646"/>
      <point x="366" y="646" type="curve" smooth="yes"/>
      <point x="489" y="646"/>
      <point x="553" y="582"/>
      <point x="553" y="463" type="curve" smooth="yes"/>
      <point x="553" y="0" type="line"/>
      <point x="643" y="0" type="line"/>
      <point x="643" y="460" type="line" smooth="yes"/>
      <point x="643" y="624"/>
      <point x="544" y="724"/>
      <point x="371" y="724" type="curve" smooth="yes"/>
      <point x="197" y="724"/>
      <point x="93" y="625"/>
      <point x="93" y="462" type="curve" smooth="yes"/>
    </contour>
  </outline>
</glyph>
<glyph name="Qar-oldgeorgian" format="2">
  <advance width="679"/>
  <unicode hex="10B7"/>
  <note>
uni10B7
</note>
  <outline>
    <contour>
      <point x="490" y="0" type="line"/>
      <point x="581" y="0" type="line"/>
      <point x="581" y="714" type="line"/>
      <point x="491" y="714" type="line"/>
      <point x="491" y="507" type="line" smooth="yes"/>
      <point x="491" y="356"/>
      <point x="431" y="293"/>
      <point x="300" y="293" type="curve" smooth="yes"/>
      <point x="198" y="293"/>
      <point x="151" y="358"/>
      <point x="151" y="469" type="curve" smooth="yes"/>
      <point x="151" y="561"/>
      <point x="187" y="659"/>
      <point x="235" y="714" type="curve"/>
      <point x="130" y="714" type="line"/>
      <point x="81" y="635"/>
      <point x="56" y="554"/>
      <point x="56" y="470" type="curve" smooth="yes"/>
      <point x="56" y="308"/>
      <point x="140" y="215"/>
      <point x="286" y="215" type="curve" smooth="yes"/>
      <point x="371" y="215"/>
      <point x="451" y="253"/>
      <point x="490" y="312" type="curve"/>
      <point x="495" y="312" type="line"/>
      <point x="492" y="274"/>
      <point x="490" y="250"/>
      <point x="490" y="242" type="curve" smooth="yes"/>
    </contour>
  </outline>
</glyph>
<glyph name="Shin-oldgeorgian" format="2">
  <advance width="700"/>
  <unicode hex="10B8"/>
  <note>
uni10B8
</note>
  <outline>
    <contour>
      <point x="351" y="-10" type="curve" smooth="yes"/>
      <point x="504" y="-10"/>
      <point x="602" y="87"/>
      <point x="602" y="242" type="curve" smooth="yes"/>
      <point x="602" y="714" type="line"/>
      <point x="512" y="714" type="line"/>
      <point x="512" y="594" type="line" smooth="yes"/>
      <point x="512" y="477"/>
      <point x="442" y="404"/>
      <point x="336" y="404" type="curve" smooth="yes"/>
      <point x="237" y="404"/>
      <point x="183" y="464"/>
      <point x="183" y="584" type="curve" smooth="yes"/>
      <point x="183" y="714" type="line"/>
      <point x="93" y="714" type="line"/>
      <point x="93" y="585" type="line" smooth="yes"/>
      <point x="93" y="421"/>
      <point x="180" y="326"/>
      <point x="319" y="326" type="curve" smooth="yes"/>
      <point x="397" y="326"/>
      <point x="462" y="357"/>
      <point x="511" y="428" type="curve"/>
      <point x="517" y="428" type="line"/>
      <point x="514" y="388"/>
      <point x="512" y="348"/>
      <point x="512" y="326" type="curve" smooth="yes"/>
      <point x="512" y="242" type="line" smooth="yes"/>
      <point x="512" y="133"/>
      <point x="451" y="68"/>
      <point x="350" y="68" type="curve" smooth="yes"/>
      <point x="254" y="68"/>
      <point x="200" y="119"/>
      <point x="200" y="199" type="curve" smooth="yes"/>
      <point x="200" y="215"/>
      <point x="202" y="231"/>
      <point x="208" y="248" type="curve"/>
      <point x="128" y="274" type="line"/>
      <point x="113" y="247"/>
      <point x="107" y="224"/>
      <point x="107" y="193" type="curve" smooth="yes"/>
      <point x="107" y="77"/>
      <point x="207" y="-10"/>
    </contour>
  </outline>
</glyph>
<glyph name="Chin-oldgeorgian" format="2">
  <advance width="685"/>
  <unicode hex="10B9"/>
  <note>
uni10B9
</note>
  <outline>
    <contour>
      <point x="98" y="0" type="line"/>
      <point x="188" y="0" type="line"/>
      <point x="188" y="370" type="line"/>
      <point x="507" y="370" type="line"/>
      <point x="507" y="0" type="line"/>
      <point x="597" y="0" type="line"/>
      <point x="597" y="448" type="line"/>
      <point x="188" y="448" type="line"/>
      <point x="188" y="714" type="line"/>
      <point x="98" y="714" type="line"/>
    </contour>
  </outline>
</glyph>
<glyph name="Can-oldgeorgian" format="2">
  <advance width="704"/>
  <unicode hex="10BA"/>
  <note>
uni10BA
</note>
  <outline>
    <contour>
      <point x="361" y="-10" type="curve" smooth="yes"/>
      <point x="430" y="-10"/>
      <point x="493" y="5"/>
      <point x="549" y="35" type="curve"/>
      <point x="549" y="0" type="line"/>
      <point x="639" y="0" type="line"/>
      <point x="639" y="295" type="line"/>
      <point x="549" y="295" type="line"/>
      <point x="549" y="114" type="line"/>
      <point x="492" y="84"/>
      <point x="434" y="69"/>
      <point x="375" y="69" type="curve" smooth="yes"/>
      <point x="240" y="69"/>
      <point x="156" y="178"/>
      <point x="156" y="357" type="curve" smooth="yes"/>
      <point x="156" y="535"/>
      <point x="249" y="645"/>
      <point x="403" y="645" type="curve" smooth="yes"/>
      <point x="454" y="645"/>
      <point x="508" y="632"/>
      <point x="565" y="606" type="curve"/>
      <point x="601" y="682" type="line"/>
      <point x="545" y="710"/>
      <point x="479" y="724"/>
      <point x="404" y="724" type="curve" smooth="yes"/>
      <point x="191" y="724"/>
      <point x="61" y="581"/>
      <point x="61" y="358" type="curve" smooth="yes"/>
      <point x="61" y="129"/>
      <point x="173" y="-10"/>
    </contour>
  </outline>
</glyph>
<glyph name="Jil-oldgeorgian" format="2">
  <advance width="888"/>
  <unicode hex="10BB"/>
  <outline>
    <contour>
      <point x="305" y="-10" type="curve" smooth="yes"/>
      <point x="456" y="-10"/>
      <point x="543" y="79"/>
      <point x="543" y="248" type="curve" smooth="yes"/>
      <point x="543" y="399" type="line"/>
      <point x="714" y="399" type="line"/>
      <point x="714" y="0" type="line"/>
      <point x="800" y="0" type="line"/>
      <point x="800" y="477" type="line"/>
      <point x="543" y="477" type="line"/>
      <point x="543" y="714" type="line"/>
      <point x="453" y="714" type="line"/>
      <point x="453" y="477" type="line"/>
      <point x="314" y="477" type="line" smooth="yes"/>
      <point x="153" y="477"/>
      <point x="61" y="383"/>
      <point x="61" y="233" type="curve" smooth="yes"/>
      <point x="61" y="87"/>
      <point x="153" y="-10"/>
    </contour>
    <contour>
      <point x="300" y="68" type="curve" smooth="yes"/>
      <point x="205" y="68"/>
      <point x="150" y="132"/>
      <point x="150" y="233" type="curve" smooth="yes"/>
      <point x="150" y="343"/>
      <point x="205" y="399"/>
      <point x="317" y="399" type="curve" smooth="yes"/>
      <point x="453" y="399" type="line"/>
      <point x="453" y="242" type="line" smooth="yes"/>
      <point x="453" y="123"/>
      <point x="402" y="68"/>
    </contour>
  </outline>
</glyph>
<glyph name="Cil-oldgeorgian" format="2">
  <advance width="606"/>
  <unicode hex="10BC"/>
  <note>
uni10BC
</note>
  <outline>
    <contour>
      <point x="98" y="0" type="line"/>
      <point x="188" y="0" type="line"/>
      <point x="188" y="131" type="line"/>
      <point x="339" y="131" type="line"/>
      <point x="339" y="50" type="line"/>
      <point x="425" y="50" type="line"/>
      <point x="425" y="208" type="line"/>
      <point x="188" y="208" type="line"/>
      <point x="188" y="292" type="line"/>
      <point x="270" y="292" type="line" smooth="yes"/>
      <point x="454" y="292"/>
      <point x="555" y="371"/>
      <point x="555" y="511" type="curve" smooth="yes"/>
      <point x="555" y="646"/>
      <point x="466" y="714"/>
      <point x="287" y="714" type="curve" smooth="yes"/>
      <point x="98" y="714" type="line"/>
    </contour>
    <contour>
      <point x="188" y="369" type="line"/>
      <point x="188" y="637" type="line"/>
      <point x="279" y="637" type="line" smooth="yes"/>
      <point x="404" y="637"/>
      <point x="462" y="594"/>
      <point x="462" y="507" type="curve" smooth="yes"/>
      <point x="462" y="411"/>
      <point x="401" y="369"/>
      <point x="260" y="369" type="curve" smooth="yes"/>
    </contour>
  </outline>
</glyph>
<glyph name="Char-oldgeorgian" format="2">
  <advance width="576"/>
  <unicode hex="10BD"/>
  <note>
uni10BD
</note>
  <outline>
    <contour>
      <point x="282" y="-10" type="curve" smooth="yes"/>
      <point x="433" y="-10"/>
      <point x="518" y="66"/>
      <point x="518" y="188" type="curve" smooth="yes"/>
      <point x="518" y="302"/>
      <point x="449" y="350"/>
      <point x="323" y="397" type="curve" smooth="yes"/>
      <point x="224" y="434"/>
      <point x="167" y="462"/>
      <point x="167" y="541" type="curve" smooth="yes"/>
      <point x="167" y="606"/>
      <point x="217" y="645"/>
      <point x="295" y="645" type="curve" smooth="yes"/>
      <point x="369" y="645"/>
      <point x="411" y="606"/>
      <point x="411" y="551" type="curve" smooth="yes"/>
      <point x="411" y="543"/>
      <point x="410" y="535"/>
      <point x="409" y="528" type="curve"/>
      <point x="499" y="528" type="line"/>
      <point x="500" y="535"/>
      <point x="501" y="544"/>
      <point x="501" y="552" type="curve"/>
      <point x="501" y="656"/>
      <point x="428" y="724"/>
      <point x="297" y="724" type="curve" smooth="yes"/>
      <point x="167" y="724"/>
      <point x="76" y="653"/>
      <point x="76" y="542" type="curve" smooth="yes"/>
      <point x="76" y="440"/>
      <point x="128" y="379"/>
      <point x="260" y="330" type="curve" smooth="yes"/>
      <point x="364" y="291"/>
      <point x="428" y="262"/>
      <point x="428" y="183" type="curve" smooth="yes"/>
      <point x="428" y="111"/>
      <point x="383" y="68"/>
      <point x="283" y="68" type="curve" smooth="yes"/>
      <point x="183" y="68"/>
      <point x="135" y="112"/>
      <point x="135" y="181" type="curve" smooth="yes"/>
      <point x="135" y="201"/>
      <point x="137" y="218"/>
      <point x="142" y="234" type="curve"/>
      <point x="52" y="234" type="line"/>
      <point x="48" y="217"/>
      <point x="45" y="199"/>
      <point x="45" y="179" type="curve" smooth="yes"/>
      <point x="45" y="61"/>
      <point x="131" y="-10"/>
    </contour>
  </outline>
</glyph>
<glyph name="Xan-oldgeorgian" format="2">
  <advance width="695"/>
  <unicode hex="10BE"/>
  <note>
uni10BE
</note>
  <outline>
    <contour>
      <point x="98" y="714" type="line"/>
      <point x="98" y="0" type="line"/>
      <point x="577" y="0" type="line"/>
      <point x="577" y="78" type="line"/>
      <point x="188" y="78" type="line"/>
      <point x="188" y="286" type="line"/>
      <point x="597" y="286" type="line"/>
      <point x="597" y="714" type="line"/>
      <point x="507" y="714" type="line"/>
      <point x="507" y="364" type="line"/>
      <point x="188" y="364" type="line"/>
      <point x="188" y="714" type="line"/>
    </contour>
  </outline>
</glyph>
<glyph name="Jhan-oldgeorgian" format="2">
  <advance width="651"/>
  <unicode hex="10BF"/>
  <note>
uni10BF
</note>
  <outline>
    <contour>
      <point x="36" y="0" type="line"/>
      <point x="131" y="0" type="line"/>
      <point x="336" y="307" type="line"/>
      <point x="541" y="0" type="line"/>
      <point x="641" y="0" type="line"/>
      <point x="389" y="371" type="line"/>
      <point x="577" y="645" type="line"/>
      <point x="577" y="714" type="line"/>
      <point x="15" y="714" type="line"/>
      <point x="15" y="636" type="line"/>
      <point x="111" y="636" type="line"/>
      <point x="286" y="369" type="line"/>
    </contour>
    <contour>
      <point x="339" y="431" type="line"/>
      <point x="209" y="636" type="line"/>
      <point x="478" y="636" type="line"/>
    </contour>
  </outline>
</glyph>
<glyph name="Hae-oldgeorgian" format="2">
  <advance width="953"/>
  <unicode hex="10C0"/>
  <note>
uni10C0
</note>
  <outline>
    <contour>
      <point x="655" y="-10" type="curve" smooth="yes"/>
      <point x="805" y="-10"/>
      <point x="897" y="95"/>
      <point x="897" y="232" type="curve" smooth="yes"/>
      <point x="897" y="294"/>
      <point x="879" y="346"/>
      <point x="842" y="398" type="curve"/>
      <point x="765" y="366" type="line"/>
      <point x="791" y="324"/>
      <point x="803" y="277"/>
      <point x="803" y="234" type="curve" smooth="yes"/>
      <point x="803" y="145"/>
      <point x="752" y="68"/>
      <point x="656" y="68" type="curve" smooth="yes"/>
      <point x="558" y="68"/>
      <point x="504" y="129"/>
      <point x="504" y="252" type="curve" smooth="yes"/>
      <point x="504" y="714" type="line"/>
      <point x="76" y="714" type="line"/>
      <point x="76" y="390" type="line"/>
      <point x="166" y="390" type="line"/>
      <point x="166" y="636" type="line"/>
      <point x="414" y="636" type="line"/>
      <point x="414" y="252" type="line" smooth="yes"/>
      <point x="414" y="86"/>
      <point x="505" y="-10"/>
    </contour>
  </outline>
</glyph>
<glyph name="He-oldgeorgian" format="2">
  <advance width="694"/>
  <unicode hex="10C1"/>
  <note>
uni10C1
</note>
  <outline>
    <contour>
      <point x="98" y="0" type="line"/>
      <point x="188" y="0" type="line"/>
      <point x="188" y="286" type="line" smooth="yes"/>
      <point x="188" y="407"/>
      <point x="241" y="468"/>
      <point x="346" y="468" type="curve" smooth="yes"/>
      <point x="434" y="468"/>
      <point x="470" y="421"/>
      <point x="470" y="332" type="curve" smooth="yes"/>
      <point x="470" y="252" type="line"/>
      <point x="674" y="252" type="line"/>
      <point x="674" y="330" type="line"/>
      <point x="560" y="330" type="line"/>
      <point x="560" y="469"/>
      <point x="489" y="546"/>
      <point x="358" y="546" type="curve" smooth="yes"/>
      <point x="287" y="546"/>
      <point x="230" y="518"/>
      <point x="189" y="462" type="curve"/>
      <point x="184" y="462" type="line"/>
      <point x="187" y="491"/>
      <point x="188" y="515"/>
      <point x="188" y="532" type="curve"/>
      <point x="188" y="714" type="line"/>
      <point x="98" y="714" type="line"/>
    </contour>
  </outline>
</glyph>
<glyph name="Hie-oldgeorgian" format="2">
  <advance width="615"/>
  <unicode hex="10C2"/>
  <note>
uni10C2
</note>
  <outline>
    <contour>
      <point x="226" y="-10" type="curve" smooth="yes"/>
      <point x="425" y="-10"/>
      <point x="554" y="114"/>
      <point x="554" y="312" type="curve" smooth="yes"/>
      <point x="554" y="517"/>
      <point x="437" y="630"/>
      <point x="226" y="630" type="curve" smooth="yes"/>
      <point x="166" y="630" type="line"/>
      <point x="166" y="714" type="line"/>
      <point x="80" y="714" type="line"/>
      <point x="80" y="551" type="line"/>
      <point x="212" y="551" type="line" smooth="yes"/>
      <point x="370" y="551"/>
      <point x="459" y="467"/>
      <point x="459" y="312" type="curve" smooth="yes"/>
      <point x="459" y="162"/>
      <point x="365" y="69"/>
      <point x="219" y="69" type="curve" smooth="yes"/>
      <point x="162" y="69"/>
      <point x="105" y="78"/>
      <point x="42" y="97" type="curve"/>
      <point x="42" y="19" type="line"/>
      <point x="99" y="-2"/>
      <point x="152" y="-10"/>
    </contour>
  </outline>
</glyph>
<glyph name="We-oldgeorgian" format="2">
  <advance width="669"/>
  <unicode hex="10C3"/>
  <note>
uni10C3
</note>
  <outline>
    <contour>
      <point x="480" y="0" type="line"/>
      <point x="571" y="0" type="line"/>
      <point x="571" y="714" type="line"/>
      <point x="481" y="714" type="line"/>
      <point x="481" y="477" type="line" smooth="yes"/>
      <point x="481" y="324"/>
      <point x="420" y="263"/>
      <point x="295" y="263" type="curve" smooth="yes"/>
      <point x="198" y="263"/>
      <point x="151" y="321"/>
      <point x="151" y="415" type="curve" smooth="yes"/>
      <point x="151" y="452"/>
      <point x="162" y="499"/>
      <point x="188" y="541" type="curve"/>
      <point x="111" y="573" type="line"/>
      <point x="74" y="521"/>
      <point x="56" y="469"/>
      <point x="56" y="407" type="curve" smooth="yes"/>
      <point x="56" y="263"/>
      <point x="150" y="185"/>
      <point x="286" y="185" type="curve" smooth="yes"/>
      <point x="361" y="185"/>
      <point x="441" y="223"/>
      <point x="480" y="282" type="curve"/>
      <point x="485" y="282" type="line"/>
      <point x="482" y="244"/>
      <point x="480" y="220"/>
      <point x="480" y="212" type="curve" smooth="yes"/>
    </contour>
  </outline>
</glyph>
<glyph name="Har-oldgeorgian" format="2">
  <advance width="700"/>
  <unicode hex="10C4"/>
  <note>
uni10C4
</note>
  <outline>
    <contour>
      <point x="305" y="0" type="line"/>
      <point x="395" y="0" type="line"/>
      <point x="395" y="243" type="line"/>
      <point x="542" y="261"/>
      <point x="625" y="355"/>
      <point x="625" y="502" type="curve" smooth="yes"/>
      <point x="625" y="714" type="line"/>
      <point x="536" y="714" type="line"/>
      <point x="536" y="502" type="line" smooth="yes"/>
      <point x="536" y="384"/>
      <point x="471" y="318"/>
      <point x="352" y="318" type="curve" smooth="yes"/>
      <point x="227" y="318"/>
      <point x="165" y="384"/>
      <point x="165" y="501" type="curve" smooth="yes"/>
      <point x="165" y="714" type="line"/>
      <point x="75" y="714" type="line"/>
      <point x="75" y="504" type="line" smooth="yes"/>
      <point x="75" y="354"/>
      <point x="157" y="258"/>
      <point x="305" y="242" type="curve"/>
    </contour>
  </outline>
</glyph>
<glyph name="Hoe-oldgeorgian" format="2">
  <advance width="841"/>
  <unicode hex="10C5"/>
  <note>
uni10C5
</note>
  <outline>
    <contour>
      <point x="237" y="-10" type="curve" smooth="yes"/>
      <point x="354" y="-10"/>
      <point x="424" y="69"/>
      <point x="424" y="192" type="curve" smooth="yes"/>
      <point x="424" y="231" type="line"/>
      <point x="620" y="231" type="line"/>
      <point x="620" y="114" type="line"/>
      <point x="706" y="114" type="line"/>
      <point x="706" y="309" type="line"/>
      <point x="424" y="309" type="line"/>
      <point x="424" y="386" type="line"/>
      <point x="560" y="386" type="line" smooth="yes"/>
      <point x="707" y="386"/>
      <point x="791" y="445"/>
      <point x="791" y="552" type="curve" smooth="yes"/>
      <point x="791" y="661"/>
      <point x="707" y="724"/>
      <point x="563" y="724" type="curve" smooth="yes"/>
      <point x="421" y="724"/>
      <point x="334" y="646"/>
      <point x="334" y="518" type="curve" smooth="yes"/>
      <point x="334" y="309" type="line"/>
      <point x="255" y="309" type="line" smooth="yes"/>
      <point x="118" y="309"/>
      <point x="50" y="251"/>
      <point x="50" y="150" type="curve" smooth="yes"/>
      <point x="50" y="46"/>
      <point x="118" y="-10"/>
    </contour>
    <contour>
      <point x="240" y="68" type="curve" smooth="yes"/>
      <point x="177" y="68"/>
      <point x="145" y="92"/>
      <point x="145" y="149" type="curve" smooth="yes"/>
      <point x="145" y="206"/>
      <point x="181" y="231"/>
      <point x="261" y="231" type="curve" smooth="yes"/>
      <point x="334" y="231" type="line"/>
      <point x="334" y="192" type="line" smooth="yes"/>
      <point x="334" y="114"/>
      <point x="300" y="68"/>
    </contour>
    <contour>
      <point x="424" y="464" type="line"/>
      <point x="424" y="521" type="line" smooth="yes"/>
      <point x="424" y="603"/>
      <point x="471" y="646"/>
      <point x="559" y="646" type="curve" smooth="yes"/>
      <point x="651" y="646"/>
      <point x="696" y="612"/>
      <point x="696" y="553" type="curve" smooth="yes"/>
      <point x="696" y="493"/>
      <point x="650" y="464"/>
      <point x="553" y="464" type="curve" smooth="yes"/>
    </contour>
  </outline>
</glyph>
<glyph name="Yn-oldgeorgian" format="2">
  <advance width="576"/>
  <unicode hex="10C7"/>
  <anchor x="288" y="0" name="bottom"/>
  <anchor x="288" y="714" name="top"/>
  <outline>
    <contour>
      <point x="294" y="-10" type="curve" smooth="yes"/>
      <point x="445" y="-10"/>
      <point x="531" y="61"/>
      <point x="531" y="179" type="curve" smooth="yes"/>
      <point x="531" y="199"/>
      <point x="528" y="217"/>
      <point x="524" y="234" type="curve"/>
      <point x="434" y="234" type="line"/>
      <point x="439" y="218"/>
      <point x="441" y="201"/>
      <point x="441" y="181" type="curve" smooth="yes"/>
      <point x="441" y="112"/>
      <point x="393" y="68"/>
      <point x="293" y="68" type="curve" smooth="yes"/>
      <point x="193" y="68"/>
      <point x="148" y="111"/>
      <point x="148" y="183" type="curve" smooth="yes"/>
      <point x="148" y="262"/>
      <point x="212" y="291"/>
      <point x="316" y="330" type="curve" smooth="yes"/>
      <point x="448" y="379"/>
      <point x="500" y="440"/>
      <point x="500" y="542" type="curve" smooth="yes"/>
      <point x="500" y="653"/>
      <point x="409" y="724"/>
      <point x="279" y="724" type="curve" smooth="yes"/>
      <point x="148" y="724"/>
      <point x="75" y="656"/>
      <point x="75" y="552" type="curve"/>
      <point x="75" y="544"/>
      <point x="76" y="535"/>
      <point x="77" y="528" type="curve"/>
      <point x="167" y="528" type="line"/>
      <point x="166" y="535"/>
      <point x="165" y="543"/>
      <point x="165" y="551" type="curve" smooth="yes"/>
      <point x="165" y="606"/>
      <point x="207" y="645"/>
      <point x="281" y="645" type="curve" smooth="yes"/>
      <point x="359" y="645"/>
      <point x="409" y="606"/>
      <point x="409" y="541" type="curve" smooth="yes"/>
      <point x="409" y="462"/>
      <point x="352" y="434"/>
      <point x="253" y="397" type="curve" smooth="yes"/>
      <point x="127" y="350"/>
      <point x="58" y="302"/>
      <point x="58" y="188" type="curve" smooth="yes"/>
      <point x="58" y="66"/>
      <point x="143" y="-10"/>
    </contour>
  </outline>
</glyph>
<glyph name="Aen-oldgeorgian" format="2">
  <advance width="572"/>
  <unicode hex="10CD"/>
  <outline>
    <contour>
      <point x="38" y="0" type="line"/>
      <point x="533" y="0" type="line"/>
      <point x="533" y="80" type="line"/>
      <point x="147" y="80" type="line"/>
      <point x="523" y="646" type="line"/>
      <point x="523" y="714" type="line"/>
      <point x="50" y="714" type="line"/>
      <point x="50" y="634" type="line"/>
      <point x="414" y="634" type="line"/>
      <point x="38" y="68" type="line"/>
    </contour>
  </outline>
</glyph>
<glyph name="an-georgian" format="2">
  <advance width="549"/>
  <unicode hex="10D0"/>
  <note>
uni10D0
</note>
  <anchor x="275" y="536" name="top"/>
  <outline>
    <contour>
      <point x="272" y="-10" type="curve" smooth="yes"/>
      <point x="399" y="-10"/>
      <point x="494" y="73"/>
      <point x="494" y="198" type="curve" smooth="yes"/>
      <point x="494" y="293"/>
      <point x="442" y="348"/>
      <point x="393" y="397" type="curve" smooth="yes"/>
      <point x="352" y="438"/>
      <point x="315" y="478"/>
      <point x="315" y="536" type="curve"/>
      <point x="227" y="536" type="line"/>
      <point x="227" y="442"/>
      <point x="282" y="391"/>
      <point x="330" y="343" type="curve" smooth="yes"/>
      <point x="368" y="305"/>
      <point x="403" y="267"/>
      <point x="403" y="198" type="curve" smooth="yes"/>
      <point x="403" y="108"/>
      <point x="353" y="63"/>
      <point x="272" y="63" type="curve" smooth="yes"/>
      <point x="191" y="63"/>
      <point x="138" y="108"/>
      <point x="138" y="193" type="curve" smooth="yes"/>
      <point x="138" y="223"/>
      <point x="142" y="250"/>
      <point x="147" y="268" type="curve"/>
      <point x="63" y="268" type="line"/>
      <point x="57" y="252"/>
      <point x="50" y="222"/>
      <point x="50" y="193" type="curve" smooth="yes"/>
      <point x="50" y="59"/>
      <point x="147" y="-10"/>
    </contour>
  </outline>
</glyph>
<glyph name="ban-georgian" format="2">
  <advance width="606"/>
  <unicode hex="10D1"/>
  <note>
uni10D1
</note>
  <outline>
    <contour>
      <point x="360" y="541" type="curve"/>
      <point x="369" y="558"/>
      <point x="374" y="577"/>
      <point x="374" y="601" type="curve" smooth="yes"/>
      <point x="374" y="643"/>
      <point x="347" y="668"/>
      <point x="320" y="691" type="curve" smooth="yes"/>
      <point x="299" y="709"/>
      <point x="282" y="729"/>
      <point x="282" y="760" type="curve"/>
      <point x="194" y="760" type="line"/>
      <point x="194" y="698"/>
      <point x="227" y="672"/>
      <point x="255" y="650" type="curve" smooth="yes"/>
      <point x="274" y="635"/>
      <point x="288" y="620"/>
      <point x="288" y="595" type="curve" smooth="yes"/>
      <point x="288" y="573"/>
      <point x="283" y="557"/>
      <point x="276" y="545" type="curve"/>
      <point x="139" y="533"/>
      <point x="55" y="435"/>
      <point x="55" y="269" type="curve" smooth="yes"/>
      <point x="55" y="91"/>
      <point x="159" y="-10"/>
      <point x="301" y="-10" type="curve" smooth="yes"/>
      <point x="454" y="-10"/>
      <point x="551" y="91"/>
      <point x="551" y="269" type="curve" smooth="yes"/>
      <point x="551" y="422"/>
      <point x="474" y="518"/>
    </contour>
    <contour>
      <point x="303" y="63" type="curve" smooth="yes"/>
      <point x="194" y="63"/>
      <point x="146" y="142"/>
      <point x="146" y="269" type="curve" smooth="yes"/>
      <point x="146" y="396"/>
      <point x="193" y="472"/>
      <point x="302" y="472" type="curve" smooth="yes"/>
      <point x="411" y="472"/>
      <point x="460" y="396"/>
      <point x="460" y="269" type="curve" smooth="yes"/>
      <point x="460" y="142"/>
      <point x="411" y="63"/>
    </contour>
  </outline>
</glyph>
<glyph name="gan-georgian" format="2">
  <advance width="596"/>
  <unicode hex="10D2"/>
  <note>
uni10D2
</note>
  <outline>
    <contour>
      <point x="296" y="-250" type="curve" smooth="yes"/>
      <point x="450" y="-250"/>
      <point x="546" y="-149"/>
      <point x="546" y="19" type="curve" smooth="yes"/>
      <point x="546" y="131"/>
      <point x="497" y="231"/>
      <point x="384" y="263" type="curve"/>
      <point x="384" y="266" type="line"/>
      <point x="449" y="286"/>
      <point x="479" y="335"/>
      <point x="479" y="396" type="curve" smooth="yes"/>
      <point x="479" y="484"/>
      <point x="403" y="546"/>
      <point x="295" y="546" type="curve" smooth="yes"/>
      <point x="185" y="546"/>
      <point x="113" y="487"/>
      <point x="113" y="404" type="curve" smooth="yes"/>
      <point x="113" y="389"/>
      <point x="115" y="373"/>
      <point x="119" y="357" type="curve"/>
      <point x="205" y="357" type="line"/>
      <point x="203" y="369"/>
      <point x="201" y="380"/>
      <point x="201" y="390" type="curve" smooth="yes"/>
      <point x="201" y="443"/>
      <point x="233" y="476"/>
      <point x="295" y="476" type="curve" smooth="yes"/>
      <point x="356" y="476"/>
      <point x="391" y="440"/>
      <point x="391" y="388" type="curve" smooth="yes"/>
      <point x="391" y="336"/>
      <point x="360" y="299"/>
      <point x="283" y="289" type="curve" smooth="yes"/>
      <point x="139" y="270"/>
      <point x="50" y="186"/>
      <point x="50" y="19" type="curve" smooth="yes"/>
      <point x="50" y="-149"/>
      <point x="154" y="-250"/>
    </contour>
    <contour>
      <point x="298" y="-177" type="curve" smooth="yes"/>
      <point x="189" y="-177"/>
      <point x="141" y="-98"/>
      <point x="141" y="19" type="curve" smooth="yes"/>
      <point x="141" y="136"/>
      <point x="188" y="212"/>
      <point x="297" y="212" type="curve" smooth="yes"/>
      <point x="406" y="212"/>
      <point x="455" y="136"/>
      <point x="455" y="19" type="curve" smooth="yes"/>
      <point x="455" y="-98"/>
      <point x="406" y="-177"/>
    </contour>
  </outline>
</glyph>
<glyph name="don-georgian" format="2">
  <advance width="881"/>
  <unicode hex="10D3"/>
  <note>
uni10D3
</note>
  <outline>
    <contour>
      <point x="548" y="-250" type="curve"/>
      <point x="615" y="-214" type="line"/>
      <point x="565" y="-117"/>
      <point x="479" y="-80"/>
      <point x="363" y="-30" type="curve" smooth="yes"/>
      <point x="247" y="20"/>
      <point x="145" y="96"/>
      <point x="145" y="286" type="curve" smooth="yes"/>
      <point x="145" y="406"/>
      <point x="188" y="473"/>
      <point x="257" y="473" type="curve" smooth="yes"/>
      <point x="325" y="473"/>
      <point x="370" y="426"/>
      <point x="370" y="323" type="curve" smooth="yes"/>
      <point x="370" y="274" type="line" smooth="yes"/>
      <point x="370" y="101"/>
      <point x="461" y="0"/>
      <point x="599" y="0" type="curve" smooth="yes"/>
      <point x="727" y="0"/>
      <point x="826" y="101"/>
      <point x="826" y="274" type="curve" smooth="yes"/>
      <point x="826" y="446"/>
      <point x="736" y="546"/>
      <point x="598" y="546" type="curve" smooth="yes"/>
      <point x="523" y="546"/>
      <point x="452" y="509"/>
      <point x="424" y="433" type="curve"/>
      <point x="419" y="433" type="line"/>
      <point x="396" y="509"/>
      <point x="339" y="546"/>
      <point x="254" y="546" type="curve" smooth="yes"/>
      <point x="124" y="546"/>
      <point x="55" y="434"/>
      <point x="55" y="284" type="curve" smooth="yes"/>
      <point x="55" y="119"/>
      <point x="134" y="11"/>
      <point x="271" y="-54" type="curve"/>
      <point x="271" y="-57" type="line"/>
      <point x="210" y="-60"/>
      <point x="173" y="-73"/>
      <point x="142" y="-88" type="curve"/>
      <point x="172" y="-150" type="line"/>
      <point x="226" y="-125"/>
      <point x="267" y="-113"/>
      <point x="323" y="-113" type="curve" smooth="yes"/>
      <point x="400" y="-113"/>
      <point x="504" y="-166"/>
    </contour>
    <contour>
      <point x="597" y="73" type="curve" smooth="yes"/>
      <point x="504" y="73"/>
      <point x="461" y="152"/>
      <point x="461" y="274" type="curve" smooth="yes"/>
      <point x="461" y="396"/>
      <point x="504" y="472"/>
      <point x="598" y="472" type="curve" smooth="yes"/>
      <point x="693" y="472"/>
      <point x="735" y="396"/>
      <point x="735" y="274" type="curve" smooth="yes"/>
      <point x="735" y="152"/>
      <point x="692" y="73"/>
    </contour>
  </outline>
</glyph>
<glyph name="en-georgian" format="2">
  <advance width="588"/>
  <unicode hex="10D4"/>
  <note>
uni10D4
</note>
  <anchor x="294" y="536" name="top"/>
  <outline>
    <contour>
      <point x="281" y="-250" type="curve" smooth="yes"/>
      <point x="428" y="-250"/>
      <point x="513" y="-157"/>
      <point x="513" y="6" type="curve" smooth="yes"/>
      <point x="513" y="318" type="line" smooth="yes"/>
      <point x="513" y="463"/>
      <point x="428" y="546"/>
      <point x="298" y="546" type="curve" smooth="yes"/>
      <point x="176" y="546"/>
      <point x="79" y="477"/>
      <point x="79" y="343" type="curve" smooth="yes"/>
      <point x="79" y="314"/>
      <point x="86" y="284"/>
      <point x="92" y="268" type="curve"/>
      <point x="176" y="268" type="line"/>
      <point x="171" y="286"/>
      <point x="167" y="313"/>
      <point x="167" y="343" type="curve" smooth="yes"/>
      <point x="167" y="428"/>
      <point x="220" y="473"/>
      <point x="298" y="473" type="curve" smooth="yes"/>
      <point x="384" y="473"/>
      <point x="425" y="415"/>
      <point x="425" y="314" type="curve" smooth="yes"/>
      <point x="425" y="10" type="line" smooth="yes"/>
      <point x="425" y="-103"/>
      <point x="384" y="-177"/>
      <point x="281" y="-177" type="curve" smooth="yes"/>
      <point x="185" y="-177"/>
      <point x="138" y="-103"/>
      <point x="138" y="-5" type="curve" smooth="yes"/>
      <point x="138" y="24"/>
      <point x="145" y="63"/>
      <point x="152" y="84" type="curve"/>
      <point x="68" y="84" type="line"/>
      <point x="59" y="61"/>
      <point x="50" y="25"/>
      <point x="50" y="-13" type="curve" smooth="yes"/>
      <point x="50" y="-157"/>
      <point x="144" y="-250"/>
    </contour>
  </outline>
</glyph>
<glyph name="vin-georgian" format="2">
  <advance width="581"/>
  <unicode hex="10D5"/>
  <note>
uni10D5
</note>
  <outline>
    <contour>
      <point x="291" y="-250" type="curve" smooth="yes"/>
      <point x="436" y="-250"/>
      <point x="531" y="-157"/>
      <point x="531" y="-14" type="curve" smooth="yes"/>
      <point x="531" y="104"/>
      <point x="455" y="168"/>
      <point x="371" y="181" type="curve"/>
      <point x="371" y="185" type="line"/>
      <point x="455" y="203"/>
      <point x="511" y="265"/>
      <point x="511" y="358" type="curve" smooth="yes"/>
      <point x="511" y="463"/>
      <point x="423" y="546"/>
      <point x="297" y="546" type="curve" smooth="yes"/>
      <point x="170" y="546"/>
      <point x="82" y="467"/>
      <point x="82" y="362" type="curve" smooth="yes"/>
      <point x="82" y="342"/>
      <point x="85" y="320"/>
      <point x="92" y="298" type="curve"/>
      <point x="178" y="298" type="line"/>
      <point x="172" y="319"/>
      <point x="170" y="338"/>
      <point x="170" y="355" type="curve" smooth="yes"/>
      <point x="170" y="428"/>
      <point x="214" y="473"/>
      <point x="297" y="473" type="curve" smooth="yes"/>
      <point x="379" y="473"/>
      <point x="423" y="417"/>
      <point x="423" y="352" type="curve" smooth="yes"/>
      <point x="423" y="280"/>
      <point x="385" y="219"/>
      <point x="290" y="219" type="curve" smooth="yes"/>
      <point x="244" y="219" type="line"/>
      <point x="244" y="146" type="line"/>
      <point x="283" y="146" type="line" smooth="yes"/>
      <point x="391" y="146"/>
      <point x="440" y="80"/>
      <point x="440" y="-10" type="curve" smooth="yes"/>
      <point x="440" y="-103"/>
      <point x="392" y="-177"/>
      <point x="291" y="-177" type="curve" smooth="yes"/>
      <point x="185" y="-177"/>
      <point x="138" y="-103"/>
      <point x="138" y="-25" type="curve" smooth="yes"/>
      <point x="138" y="4"/>
      <point x="145" y="43"/>
      <point x="152" y="64" type="curve"/>
      <point x="68" y="64" type="line"/>
      <point x="59" y="41"/>
      <point x="50" y="5"/>
      <point x="50" y="-33" type="curve" smooth="yes"/>
      <point x="50" y="-157"/>
      <point x="144" y="-250"/>
    </contour>
  </outline>
</glyph>
<glyph name="zen-georgian" format="2">
  <advance width="619"/>
  <unicode hex="10D6"/>
  <note>
uni10D6
</note>
  <outline>
    <contour>
      <point x="324" y="-10" type="curve" smooth="yes"/>
      <point x="467" y="-10"/>
      <point x="564" y="91"/>
      <point x="564" y="263" type="curve" smooth="yes"/>
      <point x="564" y="422"/>
      <point x="478" y="515"/>
      <point x="353" y="528" type="curve" smooth="yes"/>
      <point x="349" y="529"/>
      <point x="346" y="529"/>
      <point x="343" y="529" type="curve"/>
      <point x="343" y="532" type="line"/>
      <point x="358" y="551"/>
      <point x="366" y="578"/>
      <point x="366" y="614" type="curve" smooth="yes"/>
      <point x="366" y="698"/>
      <point x="303" y="770"/>
      <point x="198" y="770" type="curve" smooth="yes"/>
      <point x="89" y="770"/>
      <point x="30" y="688"/>
      <point x="30" y="604" type="curve" smooth="yes"/>
      <point x="30" y="522"/>
      <point x="80" y="464"/>
      <point x="153" y="445" type="curve"/>
      <point x="153" y="442" type="line"/>
      <point x="107" y="398"/>
      <point x="88" y="335"/>
      <point x="88" y="256" type="curve" smooth="yes"/>
      <point x="88" y="91"/>
      <point x="188" y="-10"/>
    </contour>
    <contour>
      <point x="326" y="63" type="curve" smooth="yes"/>
      <point x="223" y="63"/>
      <point x="179" y="142"/>
      <point x="179" y="263" type="curve" smooth="yes"/>
      <point x="179" y="381"/>
      <point x="222" y="457"/>
      <point x="325" y="457" type="curve" smooth="yes"/>
      <point x="428" y="457"/>
      <point x="473" y="381"/>
      <point x="473" y="263" type="curve" smooth="yes"/>
      <point x="473" y="142"/>
      <point x="428" y="63"/>
    </contour>
    <contour>
      <point x="198" y="500" type="curve" smooth="yes"/>
      <point x="139" y="500"/>
      <point x="114" y="548"/>
      <point x="114" y="602" type="curve" smooth="yes"/>
      <point x="114" y="660"/>
      <point x="140" y="705"/>
      <point x="198" y="705" type="curve" smooth="yes"/>
      <point x="255" y="705"/>
      <point x="282" y="660"/>
      <point x="282" y="602" type="curve" smooth="yes"/>
      <point x="282" y="539"/>
      <point x="252" y="500"/>
    </contour>
  </outline>
</glyph>
<glyph name="tan-georgian" format="2">
  <advance width="881"/>
  <unicode hex="10D7"/>
  <note>
uni10D7
</note>
  <outline>
    <contour>
      <point x="282" y="-10" type="curve" smooth="yes"/>
      <point x="420" y="-10"/>
      <point x="511" y="91"/>
      <point x="511" y="269" type="curve" smooth="yes"/>
      <point x="511" y="323" type="line" smooth="yes"/>
      <point x="511" y="426"/>
      <point x="556" y="473"/>
      <point x="624" y="473" type="curve" smooth="yes"/>
      <point x="693" y="473"/>
      <point x="736" y="406"/>
      <point x="736" y="277" type="curve" smooth="yes"/>
      <point x="736" y="171"/>
      <point x="717" y="94"/>
      <point x="675" y="0" type="curve"/>
      <point x="765" y="0" type="line"/>
      <point x="806" y="93"/>
      <point x="826" y="172"/>
      <point x="826" y="286" type="curve" smooth="yes"/>
      <point x="826" y="437"/>
      <point x="757" y="546"/>
      <point x="632" y="546" type="curve" smooth="yes"/>
      <point x="542" y="546"/>
      <point x="488" y="509"/>
      <point x="465" y="433" type="curve"/>
      <point x="459" y="433" type="line"/>
      <point x="431" y="509"/>
      <point x="358" y="546"/>
      <point x="283" y="546" type="curve" smooth="yes"/>
      <point x="145" y="546"/>
      <point x="55" y="446"/>
      <point x="55" y="269" type="curve" smooth="yes"/>
      <point x="55" y="91"/>
      <point x="154" y="-10"/>
    </contour>
    <contour>
      <point x="284" y="63" type="curve" smooth="yes"/>
      <point x="189" y="63"/>
      <point x="146" y="142"/>
      <point x="146" y="269" type="curve" smooth="yes"/>
      <point x="146" y="396"/>
      <point x="188" y="472"/>
      <point x="283" y="472" type="curve" smooth="yes"/>
      <point x="377" y="472"/>
      <point x="420" y="396"/>
      <point x="420" y="269" type="curve" smooth="yes"/>
      <point x="420" y="142"/>
      <point x="377" y="63"/>
    </contour>
  </outline>
</glyph>
<glyph name="in-georgian" format="2">
  <advance width="574"/>
  <unicode hex="10D8"/>
  <note>
uni10D8
</note>
  <anchor x="287" y="536" name="top"/>
  <outline>
    <contour>
      <point x="116" y="0" type="curve"/>
      <point x="206" y="0" type="line"/>
      <point x="164" y="94"/>
      <point x="145" y="171"/>
      <point x="145" y="277" type="curve" smooth="yes"/>
      <point x="145" y="406"/>
      <point x="197" y="473"/>
      <point x="287" y="473" type="curve" smooth="yes"/>
      <point x="376" y="473"/>
      <point x="429" y="406"/>
      <point x="429" y="277" type="curve" smooth="yes"/>
      <point x="429" y="171"/>
      <point x="410" y="94"/>
      <point x="368" y="0" type="curve"/>
      <point x="458" y="0" type="line"/>
      <point x="499" y="93"/>
      <point x="519" y="172"/>
      <point x="519" y="276" type="curve" smooth="yes"/>
      <point x="519" y="440"/>
      <point x="440" y="546"/>
      <point x="287" y="546" type="curve" smooth="yes"/>
      <point x="136" y="546"/>
      <point x="55" y="440"/>
      <point x="55" y="276" type="curve" smooth="yes"/>
      <point x="55" y="172"/>
      <point x="75" y="93"/>
    </contour>
  </outline>
</glyph>
<glyph name="kan-georgian" format="2">
  <advance width="566"/>
  <unicode hex="10D9"/>
  <note>
uni10D9
</note>
  <outline>
    <contour>
      <point x="276" y="-250" type="curve" smooth="yes"/>
      <point x="421" y="-250"/>
      <point x="516" y="-157"/>
      <point x="516" y="-14" type="curve" smooth="yes"/>
      <point x="516" y="119"/>
      <point x="440" y="188"/>
      <point x="356" y="201" type="curve"/>
      <point x="356" y="205" type="line"/>
      <point x="440" y="223"/>
      <point x="496" y="285"/>
      <point x="496" y="368" type="curve" smooth="yes"/>
      <point x="496" y="463"/>
      <point x="408" y="546"/>
      <point x="292" y="546" type="curve"/>
      <point x="292" y="473" type="line"/>
      <point x="364" y="473"/>
      <point x="408" y="420"/>
      <point x="408" y="356" type="curve" smooth="yes"/>
      <point x="408" y="300"/>
      <point x="370" y="239"/>
      <point x="275" y="239" type="curve" smooth="yes"/>
      <point x="229" y="239" type="line"/>
      <point x="229" y="166" type="line"/>
      <point x="268" y="166" type="line" smooth="yes"/>
      <point x="370" y="166"/>
      <point x="425" y="89"/>
      <point x="425" y="-10" type="curve" smooth="yes"/>
      <point x="425" y="-103"/>
      <point x="377" y="-177"/>
      <point x="276" y="-177" type="curve" smooth="yes"/>
      <point x="180" y="-177"/>
      <point x="133" y="-103"/>
      <point x="133" y="-25" type="curve" smooth="yes"/>
      <point x="133" y="4"/>
      <point x="140" y="43"/>
      <point x="147" y="64" type="curve"/>
      <point x="63" y="64" type="line"/>
      <point x="54" y="41"/>
      <point x="45" y="5"/>
      <point x="45" y="-33" type="curve" smooth="yes"/>
      <point x="45" y="-157"/>
      <point x="139" y="-250"/>
    </contour>
  </outline>
</glyph>
<glyph name="las-georgian" format="2">
  <advance width="1089"/>
  <unicode hex="10DA"/>
  <note>
uni10DA
</note>
  <outline>
    <contour>
      <point x="698" y="-250" type="curve"/>
      <point x="765" y="-214" type="line"/>
      <point x="704" y="-90"/>
      <point x="556" y="-37"/>
      <point x="421" y="-8" type="curve" smooth="yes"/>
      <point x="278" y="23"/>
      <point x="145" y="108"/>
      <point x="145" y="294" type="curve" smooth="yes"/>
      <point x="145" y="415"/>
      <point x="188" y="473"/>
      <point x="259" y="473" type="curve" smooth="yes"/>
      <point x="325" y="473"/>
      <point x="355" y="418"/>
      <point x="355" y="343" type="curve" smooth="yes"/>
      <point x="355" y="182" type="line"/>
      <point x="439" y="182" type="line"/>
      <point x="439" y="343" type="line" smooth="yes"/>
      <point x="439" y="426"/>
      <point x="474" y="473"/>
      <point x="544" y="473" type="curve" smooth="yes"/>
      <point x="620" y="473"/>
      <point x="650" y="418"/>
      <point x="650" y="343" type="curve" smooth="yes"/>
      <point x="650" y="182" type="line"/>
      <point x="734" y="182" type="line"/>
      <point x="734" y="343" type="line" smooth="yes"/>
      <point x="734" y="426"/>
      <point x="769" y="473"/>
      <point x="829" y="473" type="curve" smooth="yes"/>
      <point x="901" y="473"/>
      <point x="944" y="406"/>
      <point x="944" y="277" type="curve" smooth="yes"/>
      <point x="944" y="200"/>
      <point x="934" y="142"/>
      <point x="903" y="77" type="curve"/>
      <point x="979" y="49" type="line"/>
      <point x="1016" y="119"/>
      <point x="1034" y="191"/>
      <point x="1034" y="276" type="curve" smooth="yes"/>
      <point x="1034" y="437"/>
      <point x="965" y="546"/>
      <point x="836" y="546" type="curve" smooth="yes"/>
      <point x="765" y="546"/>
      <point x="716" y="510"/>
      <point x="694" y="451" type="curve"/>
      <point x="689" y="451" type="line"/>
      <point x="668" y="510"/>
      <point x="622" y="546"/>
      <point x="544" y="546" type="curve" smooth="yes"/>
      <point x="470" y="546"/>
      <point x="421" y="510"/>
      <point x="399" y="451" type="curve"/>
      <point x="394" y="451" type="line"/>
      <point x="373" y="510"/>
      <point x="327" y="546"/>
      <point x="253" y="546" type="curve" smooth="yes"/>
      <point x="124" y="546"/>
      <point x="55" y="446"/>
      <point x="55" y="294" type="curve" smooth="yes"/>
      <point x="55" y="103"/>
      <point x="173" y="2"/>
      <point x="317" y="-43" type="curve"/>
      <point x="317" y="-46" type="line"/>
      <point x="271" y="-49"/>
      <point x="221" y="-65"/>
      <point x="180" y="-85" type="curve"/>
      <point x="215" y="-149" type="line"/>
      <point x="274" y="-116"/>
      <point x="337" y="-97"/>
      <point x="402" y="-97" type="curve" smooth="yes"/>
      <point x="521" y="-97"/>
      <point x="636" y="-150"/>
    </contour>
  </outline>
</glyph>
<glyph name="man-georgian" format="2">
  <advance width="605"/>
  <unicode hex="10DB"/>
  <note>
uni10DB
</note>
  <outline>
    <contour>
      <point x="293" y="-10" type="curve" smooth="yes"/>
      <point x="446" y="-10"/>
      <point x="530" y="83"/>
      <point x="530" y="267" type="curve" smooth="yes"/>
      <point x="530" y="563" type="line" smooth="yes"/>
      <point x="530" y="687"/>
      <point x="446" y="770"/>
      <point x="304" y="770" type="curve" smooth="yes"/>
      <point x="184" y="770"/>
      <point x="87" y="709"/>
      <point x="87" y="621" type="curve" smooth="yes"/>
      <point x="87" y="610"/>
      <point x="88" y="598"/>
      <point x="92" y="585" type="curve"/>
      <point x="177" y="585" type="line"/>
      <point x="175" y="593"/>
      <point x="175" y="601"/>
      <point x="175" y="609" type="curve" smooth="yes"/>
      <point x="175" y="663"/>
      <point x="228" y="700"/>
      <point x="304" y="700" type="curve" smooth="yes"/>
      <point x="402" y="700"/>
      <point x="442" y="644"/>
      <point x="442" y="571" type="curve" smooth="yes"/>
      <point x="442" y="525" type="line"/>
      <point x="442" y="503"/>
      <point x="446" y="471"/>
      <point x="448" y="457" type="curve"/>
      <point x="442" y="457" type="line"/>
      <point x="409" y="501"/>
      <point x="359" y="536"/>
      <point x="276" y="536" type="curve" smooth="yes"/>
      <point x="143" y="536"/>
      <point x="55" y="441"/>
      <point x="55" y="267" type="curve" smooth="yes"/>
      <point x="55" y="83"/>
      <point x="152" y="-10"/>
    </contour>
    <contour>
      <point x="293" y="63" type="curve" smooth="yes"/>
      <point x="193" y="63"/>
      <point x="146" y="137"/>
      <point x="146" y="265" type="curve" smooth="yes"/>
      <point x="146" y="382"/>
      <point x="193" y="463"/>
      <point x="288" y="463" type="curve" smooth="yes"/>
      <point x="407" y="463"/>
      <point x="443" y="389"/>
      <point x="443" y="266" type="curve" smooth="yes"/>
      <point x="443" y="250" type="line" smooth="yes"/>
      <point x="443" y="137"/>
      <point x="402" y="63"/>
    </contour>
  </outline>
</glyph>
<glyph name="on-georgian" format="2">
  <advance width="804"/>
  <unicode hex="10DD"/>
  <note>
uni10DD
</note>
  <anchor x="402" y="536" name="top"/>
  <outline>
    <contour>
      <point x="116" y="0" type="curve"/>
      <point x="206" y="0" type="line"/>
      <point x="164" y="94"/>
      <point x="145" y="171"/>
      <point x="145" y="277" type="curve" smooth="yes"/>
      <point x="145" y="406"/>
      <point x="188" y="473"/>
      <point x="264" y="473" type="curve" smooth="yes"/>
      <point x="330" y="473"/>
      <point x="360" y="418"/>
      <point x="360" y="343" type="curve" smooth="yes"/>
      <point x="360" y="182" type="line"/>
      <point x="444" y="182" type="line"/>
      <point x="444" y="343" type="line" smooth="yes"/>
      <point x="444" y="426"/>
      <point x="479" y="473"/>
      <point x="539" y="473" type="curve" smooth="yes"/>
      <point x="616" y="473"/>
      <point x="659" y="406"/>
      <point x="659" y="277" type="curve" smooth="yes"/>
      <point x="659" y="171"/>
      <point x="640" y="94"/>
      <point x="598" y="0" type="curve"/>
      <point x="688" y="0" type="line"/>
      <point x="729" y="93"/>
      <point x="749" y="172"/>
      <point x="749" y="276" type="curve" smooth="yes"/>
      <point x="749" y="437"/>
      <point x="680" y="546"/>
      <point x="546" y="546" type="curve" smooth="yes"/>
      <point x="475" y="546"/>
      <point x="426" y="510"/>
      <point x="404" y="451" type="curve"/>
      <point x="399" y="451" type="line"/>
      <point x="378" y="510"/>
      <point x="332" y="546"/>
      <point x="258" y="546" type="curve" smooth="yes"/>
      <point x="124" y="546"/>
      <point x="55" y="437"/>
      <point x="55" y="276" type="curve" smooth="yes"/>
      <point x="55" y="172"/>
      <point x="75" y="93"/>
    </contour>
  </outline>
</glyph>
<glyph name="par-georgian" format="2">
  <advance width="576"/>
  <unicode hex="10DE"/>
  <note>
uni10DE
</note>
  <outline>
    <contour>
      <point x="282" y="-10" type="curve" smooth="yes"/>
      <point x="426" y="-10"/>
      <point x="521" y="83"/>
      <point x="521" y="216" type="curve" smooth="yes"/>
      <point x="521" y="345"/>
      <point x="435" y="406"/>
      <point x="360" y="420" type="curve"/>
      <point x="360" y="424" type="line"/>
      <point x="435" y="442"/>
      <point x="491" y="475"/>
      <point x="491" y="557" type="curve" smooth="yes"/>
      <point x="491" y="632"/>
      <point x="439" y="666"/>
      <point x="390" y="693" type="curve" smooth="yes"/>
      <point x="348" y="716"/>
      <point x="312" y="735"/>
      <point x="312" y="770" type="curve"/>
      <point x="224" y="770" type="line"/>
      <point x="224" y="695"/>
      <point x="277" y="669"/>
      <point x="325" y="642" type="curve" smooth="yes"/>
      <point x="364" y="620"/>
      <point x="400" y="597"/>
      <point x="400" y="545" type="curve" smooth="yes"/>
      <point x="400" y="493"/>
      <point x="365" y="459"/>
      <point x="280" y="459" type="curve" smooth="yes"/>
      <point x="224" y="459" type="line"/>
      <point x="224" y="386" type="line"/>
      <point x="269" y="386" type="line" smooth="yes"/>
      <point x="382" y="386"/>
      <point x="430" y="310"/>
      <point x="430" y="226" type="curve" smooth="yes"/>
      <point x="430" y="137"/>
      <point x="382" y="63"/>
      <point x="282" y="63" type="curve" smooth="yes"/>
      <point x="191" y="63"/>
      <point x="138" y="108"/>
      <point x="138" y="193" type="curve" smooth="yes"/>
      <point x="138" y="223"/>
      <point x="142" y="250"/>
      <point x="147" y="268" type="curve"/>
      <point x="63" y="268" type="line"/>
      <point x="57" y="252"/>
      <point x="50" y="222"/>
      <point x="50" y="193" type="curve" smooth="yes"/>
      <point x="50" y="59"/>
      <point x="147" y="-10"/>
    </contour>
  </outline>
</glyph>
<glyph name="zhar-georgian" format="2">
  <advance width="620"/>
  <unicode hex="10DF"/>
  <note>
uni10DF
</note>
  <outline>
    <contour>
      <point x="308" y="-250" type="curve" smooth="yes"/>
      <point x="455" y="-250"/>
      <point x="540" y="-157"/>
      <point x="540" y="6" type="curve" smooth="yes"/>
      <point x="540" y="536" type="line"/>
      <point x="459" y="536" type="line"/>
      <point x="383" y="499"/>
      <point x="287" y="480"/>
      <point x="187" y="467" type="curve"/>
      <point x="187" y="404" type="line"/>
      <point x="238" y="397"/>
      <point x="268" y="369"/>
      <point x="268" y="309" type="curve" smooth="yes"/>
      <point x="268" y="266"/>
      <point x="240" y="234"/>
      <point x="194" y="234" type="curve" smooth="yes"/>
      <point x="151" y="234"/>
      <point x="123" y="263"/>
      <point x="123" y="306" type="curve" smooth="yes"/>
      <point x="123" y="314"/>
      <point x="124" y="323"/>
      <point x="126" y="333" type="curve"/>
      <point x="51" y="333" type="line"/>
      <point x="47" y="321"/>
      <point x="46" y="308"/>
      <point x="46" y="296" type="curve" smooth="yes"/>
      <point x="46" y="222"/>
      <point x="107" y="166"/>
      <point x="194" y="166" type="curve" smooth="yes"/>
      <point x="282" y="166"/>
      <point x="350" y="222"/>
      <point x="350" y="306" type="curve" smooth="yes"/>
      <point x="350" y="358"/>
      <point x="318" y="396"/>
      <point x="280" y="413" type="curve"/>
      <point x="280" y="416" type="line"/>
      <point x="341" y="424"/>
      <point x="401" y="440"/>
      <point x="452" y="463" type="curve"/>
      <point x="452" y="10" type="line" smooth="yes"/>
      <point x="452" y="-103"/>
      <point x="411" y="-177"/>
      <point x="308" y="-177" type="curve" smooth="yes"/>
      <point x="212" y="-177"/>
      <point x="165" y="-113"/>
      <point x="165" y="-35" type="curve" smooth="yes"/>
      <point x="165" y="-6"/>
      <point x="169" y="23"/>
      <point x="176" y="44" type="curve"/>
      <point x="92" y="44" type="line"/>
      <point x="83" y="21"/>
      <point x="77" y="-5"/>
      <point x="77" y="-43" type="curve" smooth="yes"/>
      <point x="77" y="-167"/>
      <point x="171" y="-250"/>
    </contour>
  </outline>
</glyph>
<glyph name="rae-georgian" format="2">
  <advance width="802"/>
  <unicode hex="10E0"/>
  <note>
uni10E0
</note>
  <outline>
    <contour>
      <point x="114" y="0" type="curve"/>
      <point x="204" y="0" type="line"/>
      <point x="162" y="94"/>
      <point x="143" y="171"/>
      <point x="143" y="277" type="curve" smooth="yes"/>
      <point x="143" y="406"/>
      <point x="186" y="473"/>
      <point x="262" y="473" type="curve" smooth="yes"/>
      <point x="328" y="473"/>
      <point x="358" y="418"/>
      <point x="358" y="343" type="curve" smooth="yes"/>
      <point x="358" y="182" type="line"/>
      <point x="442" y="182" type="line"/>
      <point x="442" y="343" type="line" smooth="yes"/>
      <point x="442" y="426"/>
      <point x="477" y="473"/>
      <point x="537" y="473" type="curve" smooth="yes"/>
      <point x="614" y="473"/>
      <point x="657" y="406"/>
      <point x="657" y="277" type="curve" smooth="yes"/>
      <point x="657" y="171"/>
      <point x="638" y="94"/>
      <point x="596" y="0" type="curve"/>
      <point x="686" y="0" type="line"/>
      <point x="727" y="93"/>
      <point x="747" y="172"/>
      <point x="747" y="276" type="curve" smooth="yes"/>
      <point x="747" y="437"/>
      <point x="678" y="546"/>
      <point x="544" y="546" type="curve" smooth="yes"/>
      <point x="473" y="546"/>
      <point x="424" y="510"/>
      <point x="402" y="451" type="curve"/>
      <point x="397" y="451" type="line"/>
      <point x="376" y="510"/>
      <point x="330" y="546"/>
      <point x="262" y="546" type="curve" smooth="yes"/>
      <point x="219" y="546"/>
      <point x="180" y="535"/>
      <point x="141" y="479" type="curve"/>
      <point x="138" y="479" type="line"/>
      <point x="175" y="600"/>
      <point x="254" y="637"/>
      <point x="337" y="656" type="curve" smooth="yes"/>
      <point x="389" y="668"/>
      <point x="487" y="682"/>
      <point x="557" y="693" type="curve"/>
      <point x="542" y="770" type="line"/>
      <point x="470" y="758"/>
      <point x="395" y="745"/>
      <point x="320" y="729" type="curve" smooth="yes"/>
      <point x="142" y="691"/>
      <point x="55" y="561"/>
      <point x="55" y="314" type="curve"/>
      <point x="55" y="276" type="line"/>
      <point x="55" y="172"/>
      <point x="73" y="93"/>
    </contour>
  </outline>
</glyph>
<glyph name="san-georgian" format="2">
  <advance width="605"/>
  <unicode hex="10E1"/>
  <note>
uni10E1
</note>
  <outline>
    <contour>
      <point x="312" y="-10" type="curve" smooth="yes"/>
      <point x="453" y="-10"/>
      <point x="550" y="83"/>
      <point x="550" y="228" type="curve" smooth="yes"/>
      <point x="550" y="299"/>
      <point x="525" y="347"/>
      <point x="495" y="390" type="curve" smooth="yes"/>
      <point x="463" y="435"/>
      <point x="435" y="476"/>
      <point x="435" y="536" type="curve"/>
      <point x="347" y="536" type="line"/>
      <point x="347" y="454"/>
      <point x="380" y="406"/>
      <point x="412" y="360" type="curve" smooth="yes"/>
      <point x="438" y="323"/>
      <point x="459" y="286"/>
      <point x="459" y="231" type="curve" smooth="yes"/>
      <point x="459" y="137"/>
      <point x="412" y="63"/>
      <point x="312" y="63" type="curve" smooth="yes"/>
      <point x="207" y="63"/>
      <point x="163" y="137"/>
      <point x="163" y="250" type="curve" smooth="yes"/>
      <point x="163" y="760" type="line"/>
      <point x="75" y="760" type="line"/>
      <point x="75" y="259" type="line" smooth="yes"/>
      <point x="75" y="83"/>
      <point x="159" y="-10"/>
    </contour>
  </outline>
</glyph>
<glyph name="tar-georgian" format="2">
  <advance width="768"/>
  <unicode hex="10E2"/>
  <note>
uni10E2
</note>
  <outline>
    <contour>
      <point x="384" y="-250" type="curve" smooth="yes"/>
      <point x="598" y="-250"/>
      <point x="713" y="-89"/>
      <point x="713" y="154" type="curve" smooth="yes"/>
      <point x="713" y="383"/>
      <point x="606" y="525"/>
      <point x="423" y="544" type="curve"/>
      <point x="426" y="569"/>
      <point x="428" y="598"/>
      <point x="428" y="615" type="curve"/>
      <point x="428" y="660" type="line"/>
      <point x="340" y="660" type="line"/>
      <point x="340" y="613" type="line"/>
      <point x="340" y="595"/>
      <point x="342" y="569"/>
      <point x="345" y="543" type="curve"/>
      <point x="162" y="524"/>
      <point x="55" y="383"/>
      <point x="55" y="155" type="curve" smooth="yes"/>
      <point x="55" y="-107"/>
      <point x="173" y="-250"/>
    </contour>
    <contour>
      <point x="384" y="-177" type="curve" smooth="yes"/>
      <point x="231" y="-177"/>
      <point x="146" y="-62"/>
      <point x="146" y="154" type="curve" smooth="yes"/>
      <point x="146" y="346"/>
      <point x="213" y="453"/>
      <point x="345" y="473" type="curve"/>
      <point x="342" y="446"/>
      <point x="340" y="418"/>
      <point x="340" y="391" type="curve"/>
      <point x="340" y="182" type="line"/>
      <point x="428" y="182" type="line"/>
      <point x="428" y="389" type="line"/>
      <point x="428" y="417"/>
      <point x="426" y="446"/>
      <point x="423" y="474" type="curve"/>
      <point x="555" y="454"/>
      <point x="622" y="347"/>
      <point x="622" y="154" type="curve" smooth="yes"/>
      <point x="622" y="-63"/>
      <point x="538" y="-177"/>
    </contour>
  </outline>
</glyph>
<glyph name="un-georgian" format="2">
  <advance width="604"/>
  <unicode hex="10E3"/>
  <note>
uni10E3
</note>
  <anchor x="285" y="536" name="top"/>
  <outline>
    <contour>
      <point x="297" y="-250" type="curve" smooth="yes"/>
      <point x="444" y="-250"/>
      <point x="529" y="-157"/>
      <point x="529" y="6" type="curve" smooth="yes"/>
      <point x="529" y="378" type="line" smooth="yes"/>
      <point x="529" y="476"/>
      <point x="470" y="546"/>
      <point x="372" y="546" type="curve" smooth="yes"/>
      <point x="309" y="546"/>
      <point x="266" y="515"/>
      <point x="243" y="453" type="curve"/>
      <point x="239" y="453" type="line"/>
      <point x="220" y="515"/>
      <point x="178" y="541"/>
      <point x="113" y="541" type="curve" smooth="yes"/>
      <point x="41" y="541" type="line"/>
      <point x="41" y="468" type="line"/>
      <point x="116" y="468" type="line"/>
      <point x="169" y="468"/>
      <point x="198" y="433"/>
      <point x="198" y="363" type="curve" smooth="yes"/>
      <point x="198" y="236" type="line"/>
      <point x="282" y="236" type="line"/>
      <point x="282" y="365" type="line" smooth="yes"/>
      <point x="282" y="433"/>
      <point x="310" y="473"/>
      <point x="361" y="473" type="curve" smooth="yes"/>
      <point x="415" y="473"/>
      <point x="441" y="433"/>
      <point x="441" y="363" type="curve" smooth="yes"/>
      <point x="441" y="10" type="line" smooth="yes"/>
      <point x="441" y="-103"/>
      <point x="400" y="-177"/>
      <point x="297" y="-177" type="curve" smooth="yes"/>
      <point x="191" y="-177"/>
      <point x="144" y="-103"/>
      <point x="144" y="-5" type="curve" smooth="yes"/>
      <point x="144" y="24"/>
      <point x="151" y="63"/>
      <point x="158" y="84" type="curve"/>
      <point x="74" y="84" type="line"/>
      <point x="65" y="61"/>
      <point x="56" y="25"/>
      <point x="56" y="-13" type="curve" smooth="yes"/>
      <point x="56" y="-157"/>
      <point x="150" y="-250"/>
    </contour>
  </outline>
</glyph>
<glyph name="phar-georgian" format="2">
  <advance width="859"/>
  <unicode hex="10E4"/>
  <note>
uni10E4
</note>
  <outline>
    <contour>
      <point x="520" y="-250" type="curve" smooth="yes"/>
      <point x="679" y="-250"/>
      <point x="784" y="-157"/>
      <point x="784" y="-34" type="curve" smooth="yes"/>
      <point x="784" y="54"/>
      <point x="742" y="111"/>
      <point x="664" y="131" type="curve"/>
      <point x="664" y="135" type="line"/>
      <point x="748" y="153"/>
      <point x="804" y="215"/>
      <point x="804" y="338" type="curve" smooth="yes"/>
      <point x="804" y="447"/>
      <point x="735" y="546"/>
      <point x="615" y="546" type="curve" smooth="yes"/>
      <point x="530" y="546"/>
      <point x="476" y="502"/>
      <point x="453" y="433" type="curve"/>
      <point x="447" y="433" type="line"/>
      <point x="419" y="509"/>
      <point x="346" y="546"/>
      <point x="276" y="546" type="curve" smooth="yes"/>
      <point x="143" y="546"/>
      <point x="55" y="446"/>
      <point x="55" y="299" type="curve" smooth="yes"/>
      <point x="55" y="151"/>
      <point x="143" y="50"/>
      <point x="275" y="50" type="curve" smooth="yes"/>
      <point x="407" y="50"/>
      <point x="497" y="151"/>
      <point x="497" y="299" type="curve" smooth="yes"/>
      <point x="497" y="323" type="line" smooth="yes"/>
      <point x="497" y="426"/>
      <point x="544" y="473"/>
      <point x="612" y="473" type="curve" smooth="yes"/>
      <point x="677" y="473"/>
      <point x="716" y="416"/>
      <point x="716" y="327" type="curve" smooth="yes"/>
      <point x="716" y="230"/>
      <point x="658" y="169"/>
      <point x="593" y="169" type="curve" smooth="yes"/>
      <point x="547" y="169" type="line"/>
      <point x="547" y="96" type="line"/>
      <point x="572" y="96" type="line" smooth="yes"/>
      <point x="659" y="96"/>
      <point x="693" y="33"/>
      <point x="693" y="-30" type="curve" smooth="yes"/>
      <point x="693" y="-112"/>
      <point x="635" y="-177"/>
      <point x="520" y="-177" type="curve" smooth="yes"/>
      <point x="406" y="-177"/>
      <point x="332" y="-139"/>
      <point x="332" y="-55" type="curve" smooth="yes"/>
      <point x="332" y="-46"/>
      <point x="333" y="-36"/>
      <point x="334" y="-26" type="curve"/>
      <point x="251" y="-26" type="line"/>
      <point x="248" y="-40"/>
      <point x="247" y="-53"/>
      <point x="247" y="-66" type="curve" smooth="yes"/>
      <point x="247" y="-182"/>
      <point x="358" y="-250"/>
    </contour>
    <contour>
      <point x="277" y="123" type="curve" smooth="yes"/>
      <point x="187" y="123"/>
      <point x="144" y="202"/>
      <point x="144" y="299" type="curve" smooth="yes"/>
      <point x="144" y="396"/>
      <point x="186" y="472"/>
      <point x="276" y="472" type="curve" smooth="yes"/>
      <point x="365" y="472"/>
      <point x="408" y="396"/>
      <point x="408" y="299" type="curve" smooth="yes"/>
      <point x="408" y="202"/>
      <point x="365" y="123"/>
    </contour>
  </outline>
</glyph>
<glyph name="khar-georgian" format="2">
  <advance width="588"/>
  <unicode hex="10E5"/>
  <note>
uni10E5
</note>
  <outline>
    <contour>
      <point x="281" y="-250" type="curve" smooth="yes"/>
      <point x="428" y="-250"/>
      <point x="513" y="-157"/>
      <point x="513" y="6" type="curve" smooth="yes"/>
      <point x="513" y="760" type="line"/>
      <point x="425" y="760" type="line"/>
      <point x="425" y="546" type="line" smooth="yes"/>
      <point x="425" y="526"/>
      <point x="429" y="484"/>
      <point x="431" y="467" type="curve"/>
      <point x="425" y="467" type="line"/>
      <point x="392" y="511"/>
      <point x="342" y="546"/>
      <point x="275" y="546" type="curve" smooth="yes"/>
      <point x="175" y="546"/>
      <point x="79" y="477"/>
      <point x="79" y="343" type="curve" smooth="yes"/>
      <point x="79" y="314"/>
      <point x="86" y="284"/>
      <point x="92" y="268" type="curve"/>
      <point x="176" y="268" type="line"/>
      <point x="171" y="286"/>
      <point x="167" y="313"/>
      <point x="167" y="343" type="curve" smooth="yes"/>
      <point x="167" y="428"/>
      <point x="220" y="473"/>
      <point x="287" y="473" type="curve" smooth="yes"/>
      <point x="390" y="473"/>
      <point x="425" y="399"/>
      <point x="425" y="266" type="curve" smooth="yes"/>
      <point x="425" y="10" type="line" smooth="yes"/>
      <point x="425" y="-103"/>
      <point x="384" y="-177"/>
      <point x="281" y="-177" type="curve" smooth="yes"/>
      <point x="185" y="-177"/>
      <point x="138" y="-103"/>
      <point x="138" y="-5" type="curve" smooth="yes"/>
      <point x="138" y="24"/>
      <point x="145" y="63"/>
      <point x="152" y="84" type="curve"/>
      <point x="68" y="84" type="line"/>
      <point x="59" y="61"/>
      <point x="50" y="25"/>
      <point x="50" y="-13" type="curve" smooth="yes"/>
      <point x="50" y="-157"/>
      <point x="144" y="-250"/>
    </contour>
  </outline>
</glyph>
<glyph name="ghan-georgian" format="2">
  <advance width="804"/>
  <unicode hex="10E6"/>
  <note>
uni10E6
</note>
  <outline>
    <contour>
      <point x="518" y="-250" type="curve"/>
      <point x="585" y="-214" type="line"/>
      <point x="535" y="-117"/>
      <point x="469" y="-80"/>
      <point x="353" y="-30" type="curve" smooth="yes"/>
      <point x="237" y="20"/>
      <point x="145" y="96"/>
      <point x="145" y="276" type="curve" smooth="yes"/>
      <point x="145" y="406"/>
      <point x="188" y="473"/>
      <point x="264" y="473" type="curve" smooth="yes"/>
      <point x="330" y="473"/>
      <point x="360" y="418"/>
      <point x="360" y="343" type="curve" smooth="yes"/>
      <point x="360" y="182" type="line"/>
      <point x="444" y="182" type="line"/>
      <point x="444" y="343" type="line" smooth="yes"/>
      <point x="444" y="426"/>
      <point x="479" y="473"/>
      <point x="539" y="473" type="curve" smooth="yes"/>
      <point x="616" y="473"/>
      <point x="659" y="406"/>
      <point x="659" y="277" type="curve" smooth="yes"/>
      <point x="659" y="200"/>
      <point x="649" y="142"/>
      <point x="618" y="77" type="curve"/>
      <point x="694" y="49" type="line"/>
      <point x="731" y="119"/>
      <point x="749" y="191"/>
      <point x="749" y="276" type="curve" smooth="yes"/>
      <point x="749" y="437"/>
      <point x="680" y="546"/>
      <point x="546" y="546" type="curve" smooth="yes"/>
      <point x="475" y="546"/>
      <point x="426" y="510"/>
      <point x="404" y="451" type="curve"/>
      <point x="399" y="451" type="line"/>
      <point x="378" y="510"/>
      <point x="332" y="546"/>
      <point x="258" y="546" type="curve" smooth="yes"/>
      <point x="124" y="546"/>
      <point x="55" y="437"/>
      <point x="55" y="274" type="curve" smooth="yes"/>
      <point x="55" y="119"/>
      <point x="124" y="11"/>
      <point x="263" y="-54" type="curve"/>
      <point x="263" y="-57" type="line"/>
      <point x="200" y="-60"/>
      <point x="163" y="-73"/>
      <point x="132" y="-88" type="curve"/>
      <point x="162" y="-150" type="line"/>
      <point x="216" y="-125"/>
      <point x="257" y="-113"/>
      <point x="313" y="-113" type="curve" smooth="yes"/>
      <point x="390" y="-113"/>
      <point x="474" y="-166"/>
    </contour>
  </outline>
</glyph>
<glyph name="qar-georgian" format="2">
  <advance width="596"/>
  <unicode hex="10E7"/>
  <note>
uni10E7
</note>
  <outline>
    <contour>
      <point x="289" y="-250" type="curve" smooth="yes"/>
      <point x="436" y="-250"/>
      <point x="521" y="-157"/>
      <point x="521" y="6" type="curve" smooth="yes"/>
      <point x="521" y="536" type="line"/>
      <point x="433" y="536" type="line"/>
      <point x="433" y="367" type="line" smooth="yes"/>
      <point x="433" y="264"/>
      <point x="381" y="212"/>
      <point x="276" y="212" type="curve" smooth="yes"/>
      <point x="193" y="212"/>
      <point x="146" y="260"/>
      <point x="146" y="365" type="curve" smooth="yes"/>
      <point x="146" y="439"/>
      <point x="162" y="484"/>
      <point x="182" y="536" type="curve"/>
      <point x="94" y="536" type="line"/>
      <point x="73" y="490"/>
      <point x="55" y="435"/>
      <point x="55" y="367" type="curve" smooth="yes"/>
      <point x="55" y="212"/>
      <point x="130" y="139"/>
      <point x="265" y="139" type="curve" smooth="yes"/>
      <point x="335" y="139"/>
      <point x="398" y="167"/>
      <point x="432" y="222" type="curve"/>
      <point x="438" y="222" type="line"/>
      <point x="435" y="199"/>
      <point x="433" y="174"/>
      <point x="433" y="147" type="curve" smooth="yes"/>
      <point x="433" y="10" type="line" smooth="yes"/>
      <point x="433" y="-103"/>
      <point x="392" y="-177"/>
      <point x="289" y="-177" type="curve" smooth="yes"/>
      <point x="193" y="-177"/>
      <point x="146" y="-113"/>
      <point x="146" y="-35" type="curve" smooth="yes"/>
      <point x="146" y="-6"/>
      <point x="150" y="23"/>
      <point x="157" y="44" type="curve"/>
      <point x="73" y="44" type="line"/>
      <point x="64" y="21"/>
      <point x="58" y="-5"/>
      <point x="58" y="-43" type="curve" smooth="yes"/>
      <point x="58" y="-167"/>
      <point x="152" y="-250"/>
    </contour>
  </outline>
</glyph>
<glyph name="shin-georgian" format="2">
  <advance width="605"/>
  <unicode hex="10E8"/>
  <note>
uni10E8
</note>
  <outline>
    <contour>
      <point x="293" y="-10" type="curve" smooth="yes"/>
      <point x="446" y="-10"/>
      <point x="530" y="83"/>
      <point x="530" y="257" type="curve" smooth="yes"/>
      <point x="530" y="603" type="line" smooth="yes"/>
      <point x="530" y="717"/>
      <point x="456" y="770"/>
      <point x="370" y="770" type="curve" smooth="yes"/>
      <point x="324" y="770"/>
      <point x="272" y="757"/>
      <point x="246" y="697" type="curve"/>
      <point x="243" y="697" type="line"/>
      <point x="218" y="757"/>
      <point x="174" y="770"/>
      <point x="133" y="770" type="curve" smooth="yes"/>
      <point x="95" y="770"/>
      <point x="64" y="761"/>
      <point x="39" y="750" type="curve"/>
      <point x="61" y="683" type="line"/>
      <point x="83" y="690"/>
      <point x="107" y="698"/>
      <point x="132" y="698" type="curve" smooth="yes"/>
      <point x="168" y="698"/>
      <point x="202" y="674"/>
      <point x="202" y="623" type="curve"/>
      <point x="202" y="581" type="line"/>
      <point x="287" y="581" type="line"/>
      <point x="287" y="623" type="line" smooth="yes"/>
      <point x="287" y="672"/>
      <point x="318" y="700"/>
      <point x="363" y="700" type="curve" smooth="yes"/>
      <point x="412" y="700"/>
      <point x="442" y="664"/>
      <point x="442" y="601" type="curve" smooth="yes"/>
      <point x="442" y="505" type="line" smooth="yes"/>
      <point x="442" y="483"/>
      <point x="446" y="451"/>
      <point x="448" y="437" type="curve"/>
      <point x="442" y="437" type="line"/>
      <point x="409" y="481"/>
      <point x="359" y="516"/>
      <point x="276" y="516" type="curve" smooth="yes"/>
      <point x="143" y="516"/>
      <point x="55" y="421"/>
      <point x="55" y="257" type="curve" smooth="yes"/>
      <point x="55" y="83"/>
      <point x="152" y="-10"/>
    </contour>
    <contour>
      <point x="293" y="63" type="curve" smooth="yes"/>
      <point x="193" y="63"/>
      <point x="146" y="137"/>
      <point x="146" y="255" type="curve" smooth="yes"/>
      <point x="146" y="362"/>
      <point x="193" y="443"/>
      <point x="288" y="443" type="curve" smooth="yes"/>
      <point x="407" y="443"/>
      <point x="443" y="369"/>
      <point x="443" y="256" type="curve" smooth="yes"/>
      <point x="443" y="240" type="line" smooth="yes"/>
      <point x="443" y="137"/>
      <point x="402" y="63"/>
    </contour>
  </outline>
</glyph>
<glyph name="chin-georgian" format="2">
  <advance width="595"/>
  <unicode hex="10E9"/>
  <note>
uni10E9
</note>
  <outline>
    <contour>
      <point x="75" y="0" type="line"/>
      <point x="163" y="0" type="line"/>
      <point x="163" y="251" type="line" smooth="yes"/>
      <point x="163" y="373"/>
      <point x="220" y="432"/>
      <point x="310" y="432" type="curve" smooth="yes"/>
      <point x="391" y="432"/>
      <point x="449" y="367"/>
      <point x="449" y="250" type="curve" smooth="yes"/>
      <point x="449" y="155"/>
      <point x="421" y="62"/>
      <point x="397" y="0" type="curve"/>
      <point x="487" y="0" type="line"/>
      <point x="510" y="51"/>
      <point x="540" y="160"/>
      <point x="540" y="257" type="curve" smooth="yes"/>
      <point x="540" y="388"/>
      <point x="475" y="473"/>
      <point x="375" y="496" type="curve"/>
      <point x="375" y="499" type="line"/>
      <point x="419" y="529"/>
      <point x="436" y="571"/>
      <point x="436" y="616" type="curve" smooth="yes"/>
      <point x="436" y="705"/>
      <point x="359" y="770"/>
      <point x="258" y="770" type="curve" smooth="yes"/>
      <point x="144" y="770"/>
      <point x="75" y="692"/>
      <point x="75" y="586" type="curve" smooth="yes"/>
    </contour>
    <contour>
      <point x="158" y="424" type="line"/>
      <point x="161" y="445"/>
      <point x="163" y="470"/>
      <point x="163" y="489" type="curve" smooth="yes"/>
      <point x="163" y="591" type="line" smooth="yes"/>
      <point x="163" y="657"/>
      <point x="203" y="694"/>
      <point x="255" y="694" type="curve" smooth="yes"/>
      <point x="310" y="694"/>
      <point x="344" y="660"/>
      <point x="344" y="607" type="curve" smooth="yes"/>
      <point x="344" y="545"/>
      <point x="309" y="521"/>
      <point x="251" y="494" type="curve" smooth="yes"/>
      <point x="206" y="473"/>
      <point x="181" y="452"/>
      <point x="164" y="424" type="curve"/>
    </contour>
  </outline>
</glyph>
<glyph name="can-georgian" format="2">
  <advance width="662"/>
  <unicode hex="10EA"/>
  <note>
uni10EA
</note>
  <outline>
    <contour>
      <point x="348" y="-250" type="curve" smooth="yes"/>
      <point x="515" y="-250"/>
      <point x="612" y="-153"/>
      <point x="612" y="-18" type="curve" smooth="yes"/>
      <point x="612" y="111"/>
      <point x="536" y="172"/>
      <point x="461" y="186" type="curve"/>
      <point x="461" y="190" type="line"/>
      <point x="536" y="208"/>
      <point x="592" y="241"/>
      <point x="592" y="323" type="curve" smooth="yes"/>
      <point x="592" y="389"/>
      <point x="562" y="424"/>
      <point x="525" y="453" type="curve" smooth="yes"/>
      <point x="493" y="478"/>
      <point x="465" y="501"/>
      <point x="463" y="536" type="curve"/>
      <point x="375" y="536" type="line"/>
      <point x="375" y="467"/>
      <point x="413" y="437"/>
      <point x="454" y="406" type="curve" smooth="yes"/>
      <point x="480" y="387"/>
      <point x="501" y="360"/>
      <point x="501" y="313" type="curve" smooth="yes"/>
      <point x="501" y="259"/>
      <point x="466" y="225"/>
      <point x="381" y="225" type="curve" smooth="yes"/>
      <point x="315" y="225" type="line"/>
      <point x="315" y="152" type="line"/>
      <point x="360" y="152" type="line" smooth="yes"/>
      <point x="473" y="152"/>
      <point x="521" y="76"/>
      <point x="521" y="-7" type="curve" smooth="yes"/>
      <point x="521" y="-120"/>
      <point x="460" y="-176"/>
      <point x="349" y="-176" type="curve" smooth="yes"/>
      <point x="196" y="-176"/>
      <point x="143" y="-49"/>
      <point x="143" y="160" type="curve" smooth="yes"/>
      <point x="143" y="300"/>
      <point x="181" y="441"/>
      <point x="233" y="536" type="curve"/>
      <point x="145" y="536" type="line"/>
      <point x="92" y="442"/>
      <point x="55" y="302"/>
      <point x="55" y="158" type="curve" smooth="yes"/>
      <point x="55" y="-99"/>
      <point x="141" y="-250"/>
    </contour>
  </outline>
</glyph>
<glyph name="jil-georgian" format="2">
  <advance width="605"/>
  <unicode hex="10EB"/>
  <note>
uni10EB
</note>
  <outline>
    <contour>
      <point x="293" y="-10" type="curve" smooth="yes"/>
      <point x="446" y="-10"/>
      <point x="530" y="83"/>
      <point x="530" y="267" type="curve"/>
      <point x="530" y="760" type="line"/>
      <point x="442" y="760" type="line"/>
      <point x="442" y="546" type="line" smooth="yes"/>
      <point x="442" y="526"/>
      <point x="446" y="484"/>
      <point x="448" y="467" type="curve"/>
      <point x="442" y="467" type="line"/>
      <point x="409" y="511"/>
      <point x="359" y="546"/>
      <point x="276" y="546" type="curve" smooth="yes"/>
      <point x="143" y="546"/>
      <point x="55" y="451"/>
      <point x="55" y="267" type="curve" smooth="yes"/>
      <point x="55" y="83"/>
      <point x="152" y="-10"/>
    </contour>
    <contour>
      <point x="293" y="63" type="curve" smooth="yes"/>
      <point x="193" y="63"/>
      <point x="146" y="137"/>
      <point x="146" y="265" type="curve" smooth="yes"/>
      <point x="146" y="392"/>
      <point x="193" y="473"/>
      <point x="288" y="473" type="curve" smooth="yes"/>
      <point x="407" y="473"/>
      <point x="443" y="399"/>
      <point x="443" y="266" type="curve" smooth="yes"/>
      <point x="443" y="250" type="line" smooth="yes"/>
      <point x="443" y="137"/>
      <point x="402" y="63"/>
    </contour>
  </outline>
</glyph>
<glyph name="cil-georgian" format="2">
  <advance width="605"/>
  <unicode hex="10EC"/>
  <note>
uni10EC
</note>
  <outline>
    <contour>
      <point x="312" y="-10" type="curve" smooth="yes"/>
      <point x="453" y="-10"/>
      <point x="550" y="83"/>
      <point x="550" y="257" type="curve" smooth="yes"/>
      <point x="550" y="421"/>
      <point x="462" y="516"/>
      <point x="329" y="516" type="curve" smooth="yes"/>
      <point x="246" y="516"/>
      <point x="196" y="481"/>
      <point x="163" y="437" type="curve"/>
      <point x="157" y="437" type="line"/>
      <point x="159" y="451"/>
      <point x="163" y="483"/>
      <point x="163" y="505" type="curve" smooth="yes"/>
      <point x="163" y="601" type="line" smooth="yes"/>
      <point x="163" y="664"/>
      <point x="193" y="700"/>
      <point x="242" y="700" type="curve" smooth="yes"/>
      <point x="287" y="700"/>
      <point x="318" y="672"/>
      <point x="318" y="629" type="curve" smooth="yes"/>
      <point x="318" y="581" type="line"/>
      <point x="403" y="581" type="line"/>
      <point x="403" y="629" type="line"/>
      <point x="403" y="674"/>
      <point x="437" y="698"/>
      <point x="473" y="698" type="curve" smooth="yes"/>
      <point x="498" y="698"/>
      <point x="522" y="690"/>
      <point x="544" y="683" type="curve"/>
      <point x="566" y="750" type="line"/>
      <point x="541" y="761"/>
      <point x="510" y="770"/>
      <point x="472" y="770" type="curve" smooth="yes"/>
      <point x="431" y="770"/>
      <point x="387" y="757"/>
      <point x="362" y="697" type="curve"/>
      <point x="359" y="697" type="line"/>
      <point x="333" y="757"/>
      <point x="281" y="770"/>
      <point x="235" y="770" type="curve" smooth="yes"/>
      <point x="149" y="770"/>
      <point x="75" y="717"/>
      <point x="75" y="603" type="curve" smooth="yes"/>
      <point x="75" y="257" type="line" smooth="yes"/>
      <point x="75" y="83"/>
      <point x="159" y="-10"/>
    </contour>
    <contour>
      <point x="312" y="63" type="curve" smooth="yes"/>
      <point x="203" y="63"/>
      <point x="162" y="137"/>
      <point x="162" y="240" type="curve" smooth="yes"/>
      <point x="162" y="256" type="line" smooth="yes"/>
      <point x="162" y="369"/>
      <point x="198" y="443"/>
      <point x="317" y="443" type="curve" smooth="yes"/>
      <point x="412" y="443"/>
      <point x="459" y="362"/>
      <point x="459" y="255" type="curve" smooth="yes"/>
      <point x="459" y="137"/>
      <point x="412" y="63"/>
    </contour>
  </outline>
</glyph>
<glyph name="char-georgian" format="2">
  <advance width="586"/>
  <unicode hex="10ED"/>
  <note>
uni10ED
</note>
  <outline>
    <contour>
      <point x="299" y="-250" type="curve" smooth="yes"/>
      <point x="446" y="-250"/>
      <point x="531" y="-149"/>
      <point x="531" y="-13" type="curve" smooth="yes"/>
      <point x="531" y="62"/>
      <point x="507" y="120"/>
      <point x="477" y="169" type="curve" smooth="yes"/>
      <point x="442" y="227"/>
      <point x="409" y="280"/>
      <point x="409" y="357" type="curve" smooth="yes"/>
      <point x="409" y="463" type="line"/>
      <point x="531" y="463" type="line"/>
      <point x="531" y="536" type="line"/>
      <point x="409" y="536" type="line"/>
      <point x="409" y="760" type="line"/>
      <point x="323" y="760" type="line"/>
      <point x="323" y="536" type="line"/>
      <point x="221" y="536" type="line" smooth="yes"/>
      <point x="134" y="536"/>
      <point x="50" y="488"/>
      <point x="50" y="380" type="curve" smooth="yes"/>
      <point x="50" y="275"/>
      <point x="133" y="224"/>
      <point x="202" y="224" type="curve" smooth="yes"/>
      <point x="258" y="224"/>
      <point x="303" y="241"/>
      <point x="336" y="284" type="curve"/>
      <point x="339" y="284" type="line"/>
      <point x="349" y="225"/>
      <point x="376" y="172"/>
      <point x="401" y="128" type="curve" smooth="yes"/>
      <point x="423" y="89"/>
      <point x="440" y="50"/>
      <point x="440" y="-9" type="curve" smooth="yes"/>
      <point x="440" y="-95"/>
      <point x="402" y="-177"/>
      <point x="299" y="-177" type="curve" smooth="yes"/>
      <point x="203" y="-177"/>
      <point x="156" y="-103"/>
      <point x="156" y="-15" type="curve" smooth="yes"/>
      <point x="156" y="14"/>
      <point x="163" y="53"/>
      <point x="170" y="74" type="curve"/>
      <point x="86" y="74" type="line"/>
      <point x="77" y="51"/>
      <point x="68" y="15"/>
      <point x="68" y="-23" type="curve" smooth="yes"/>
      <point x="68" y="-157"/>
      <point x="162" y="-250"/>
    </contour>
    <contour>
      <point x="228" y="296" type="curve" smooth="yes"/>
      <point x="175" y="296"/>
      <point x="138" y="326"/>
      <point x="138" y="380" type="curve" smooth="yes"/>
      <point x="138" y="429"/>
      <point x="168" y="463"/>
      <point x="231" y="463" type="curve" smooth="yes"/>
      <point x="323" y="463" type="line"/>
      <point x="323" y="393" type="line" smooth="yes"/>
      <point x="323" y="343"/>
      <point x="294" y="296"/>
    </contour>
  </outline>
</glyph>
<glyph name="jhan-georgian" format="2">
  <advance width="567"/>
  <unicode hex="10EF"/>
  <note>
uni10EF
</note>
  <outline>
    <contour>
      <point x="328" y="322" type="curve" smooth="yes"/>
      <point x="328" y="337" type="line"/>
      <point x="507" y="305" type="line"/>
      <point x="507" y="378" type="line"/>
      <point x="328" y="410" type="line"/>
      <point x="328" y="545" type="line"/>
      <point x="240" y="545" type="line"/>
      <point x="240" y="426" type="line"/>
      <point x="60" y="458" type="line"/>
      <point x="60" y="385" type="line"/>
      <point x="240" y="353" type="line"/>
      <point x="240" y="316" type="line" smooth="yes"/>
      <point x="240" y="234"/>
      <point x="293" y="172"/>
      <point x="342" y="119" type="curve" smooth="yes"/>
      <point x="386" y="72"/>
      <point x="426" y="25"/>
      <point x="426" y="-47" type="curve" smooth="yes"/>
      <point x="426" y="-129"/>
      <point x="362" y="-177"/>
      <point x="281" y="-177" type="curve" smooth="yes"/>
      <point x="185" y="-177"/>
      <point x="138" y="-113"/>
      <point x="138" y="-35" type="curve" smooth="yes"/>
      <point x="138" y="-6"/>
      <point x="142" y="23"/>
      <point x="149" y="44" type="curve"/>
      <point x="65" y="44" type="line"/>
      <point x="56" y="21"/>
      <point x="50" y="-5"/>
      <point x="50" y="-43" type="curve" smooth="yes"/>
      <point x="50" y="-167"/>
      <point x="144" y="-250"/>
      <point x="281" y="-250" type="curve" smooth="yes"/>
      <point x="420" y="-250"/>
      <point x="517" y="-172"/>
      <point x="517" y="-41" type="curve" smooth="yes"/>
      <point x="517" y="44"/>
      <point x="470" y="101"/>
      <point x="422" y="153" type="curve" smooth="yes"/>
      <point x="374" y="205"/>
      <point x="328" y="253"/>
    </contour>
  </outline>
</glyph>
<glyph name="hae-georgian" format="2">
  <advance width="567"/>
  <unicode hex="10F0"/>
  <note>
uni10F0
</note>
  <outline>
    <contour>
      <point x="280" y="-10" type="curve" smooth="yes"/>
      <point x="412" y="-10"/>
      <point x="512" y="63"/>
      <point x="512" y="156" type="curve" smooth="yes"/>
      <point x="512" y="232"/>
      <point x="459" y="271"/>
      <point x="381" y="284" type="curve"/>
      <point x="381" y="288" type="line"/>
      <point x="434" y="295"/>
      <point x="502" y="315"/>
      <point x="502" y="397" type="curve" smooth="yes"/>
      <point x="502" y="468"/>
      <point x="426" y="497"/>
      <point x="381" y="501" type="curve"/>
      <point x="381" y="505" type="line"/>
      <point x="441" y="517"/>
      <point x="482" y="552"/>
      <point x="482" y="594" type="curve" smooth="yes"/>
      <point x="482" y="659"/>
      <point x="430" y="683"/>
      <point x="382" y="701" type="curve" smooth="yes"/>
      <point x="341" y="716"/>
      <point x="306" y="731"/>
      <point x="303" y="760" type="curve"/>
      <point x="215" y="760" type="line"/>
      <point x="215" y="686"/>
      <point x="273" y="666"/>
      <point x="323" y="648" type="curve" smooth="yes"/>
      <point x="359" y="635"/>
      <point x="391" y="621"/>
      <point x="391" y="588" type="curve" smooth="yes"/>
      <point x="391" y="563"/>
      <point x="376" y="536"/>
      <point x="311" y="536" type="curve" smooth="yes"/>
      <point x="235" y="536" type="line"/>
      <point x="235" y="463" type="line"/>
      <point x="300" y="463" type="line" smooth="yes"/>
      <point x="376" y="463"/>
      <point x="411" y="441"/>
      <point x="411" y="397" type="curve" smooth="yes"/>
      <point x="411" y="346"/>
      <point x="376" y="329"/>
      <point x="311" y="329" type="curve" smooth="yes"/>
      <point x="235" y="329" type="line"/>
      <point x="235" y="256" type="line"/>
      <point x="290" y="256" type="line" smooth="yes"/>
      <point x="390" y="256"/>
      <point x="421" y="212"/>
      <point x="421" y="158" type="curve" smooth="yes"/>
      <point x="421" y="108"/>
      <point x="379" y="63"/>
      <point x="280" y="63" type="curve" smooth="yes"/>
      <point x="175" y="63"/>
      <point x="135" y="122"/>
      <point x="135" y="189" type="curve" smooth="yes"/>
      <point x="135" y="199"/>
      <point x="136" y="209"/>
      <point x="138" y="219" type="curve"/>
      <point x="54" y="219" type="line"/>
      <point x="50" y="204"/>
      <point x="48" y="190"/>
      <point x="48" y="175" type="curve" smooth="yes"/>
      <point x="48" y="79"/>
      <point x="132" y="-10"/>
    </contour>
  </outline>
</glyph>
<glyph name="he-georgian" format="2">
  <advance width="667"/>
  <unicode hex="10F1"/>
  <note>
uni10F1
</note>
  <outline>
    <contour>
      <point x="368" y="-10" type="curve" smooth="yes"/>
      <point x="515" y="-10"/>
      <point x="612" y="60"/>
      <point x="612" y="156" type="curve" smooth="yes"/>
      <point x="612" y="232"/>
      <point x="559" y="271"/>
      <point x="481" y="284" type="curve"/>
      <point x="481" y="288" type="line"/>
      <point x="534" y="295"/>
      <point x="602" y="315"/>
      <point x="602" y="397" type="curve" smooth="yes"/>
      <point x="602" y="468"/>
      <point x="526" y="497"/>
      <point x="481" y="501" type="curve"/>
      <point x="481" y="505" type="line"/>
      <point x="541" y="517"/>
      <point x="582" y="545"/>
      <point x="582" y="595" type="curve" smooth="yes"/>
      <point x="582" y="657"/>
      <point x="545" y="682"/>
      <point x="509" y="700" type="curve" smooth="yes"/>
      <point x="479" y="715"/>
      <point x="453" y="730"/>
      <point x="453" y="760" type="curve"/>
      <point x="365" y="760" type="line"/>
      <point x="365" y="697"/>
      <point x="408" y="674"/>
      <point x="444" y="655" type="curve" smooth="yes"/>
      <point x="469" y="642"/>
      <point x="491" y="627"/>
      <point x="491" y="592" type="curve" smooth="yes"/>
      <point x="491" y="570"/>
      <point x="476" y="536"/>
      <point x="411" y="536" type="curve" smooth="yes"/>
      <point x="335" y="536" type="line"/>
      <point x="335" y="463" type="line"/>
      <point x="400" y="463" type="line" smooth="yes"/>
      <point x="476" y="463"/>
      <point x="511" y="441"/>
      <point x="511" y="397" type="curve" smooth="yes"/>
      <point x="511" y="346"/>
      <point x="476" y="329"/>
      <point x="411" y="329" type="curve" smooth="yes"/>
      <point x="335" y="329" type="line"/>
      <point x="335" y="256" type="line"/>
      <point x="390" y="256" type="line" smooth="yes"/>
      <point x="490" y="256"/>
      <point x="521" y="212"/>
      <point x="521" y="158" type="curve" smooth="yes"/>
      <point x="521" y="100"/>
      <point x="460" y="63"/>
      <point x="369" y="63" type="curve" smooth="yes"/>
      <point x="196" y="63"/>
      <point x="143" y="191"/>
      <point x="143" y="400" type="curve" smooth="yes"/>
      <point x="143" y="524"/>
      <point x="181" y="665"/>
      <point x="233" y="760" type="curve"/>
      <point x="145" y="760" type="line"/>
      <point x="92" y="666"/>
      <point x="55" y="526"/>
      <point x="55" y="398" type="curve" smooth="yes"/>
      <point x="55" y="141"/>
      <point x="141" y="-10"/>
    </contour>
  </outline>
</glyph>
<glyph name="hie-georgian" format="2">
  <advance width="584"/>
  <unicode hex="10F2"/>
  <note>
uni10F2
</note>
  <outline>
    <contour>
      <point x="65" y="0" type="line"/>
      <point x="157" y="0"/>
      <point x="227" y="14"/>
      <point x="292" y="48" type="curve"/>
      <point x="357" y="14"/>
      <point x="427" y="0"/>
      <point x="519" y="0" type="curve"/>
      <point x="519" y="72" type="line"/>
      <point x="466" y="72"/>
      <point x="426" y="77"/>
      <point x="368" y="86" type="curve"/>
      <point x="368" y="89" type="line"/>
      <point x="474" y="136"/>
      <point x="529" y="233"/>
      <point x="529" y="326" type="curve" smooth="yes"/>
      <point x="529" y="440"/>
      <point x="448" y="546"/>
      <point x="292" y="546" type="curve" smooth="yes"/>
      <point x="136" y="546"/>
      <point x="55" y="440"/>
      <point x="55" y="326" type="curve" smooth="yes"/>
      <point x="55" y="233"/>
      <point x="110" y="136"/>
      <point x="216" y="89" type="curve"/>
      <point x="216" y="86" type="line"/>
      <point x="158" y="77"/>
      <point x="118" y="72"/>
      <point x="65" y="72" type="curve"/>
    </contour>
    <contour>
      <point x="292" y="115" type="curve"/>
      <point x="204" y="157"/>
      <point x="145" y="222"/>
      <point x="145" y="327" type="curve" smooth="yes"/>
      <point x="145" y="406"/>
      <point x="197" y="473"/>
      <point x="292" y="473" type="curve" smooth="yes"/>
      <point x="387" y="473"/>
      <point x="439" y="406"/>
      <point x="439" y="327" type="curve" smooth="yes"/>
      <point x="439" y="222"/>
      <point x="380" y="157"/>
    </contour>
  </outline>
</glyph>
<glyph name="we-georgian" format="2">
  <advance width="581"/>
  <unicode hex="10F3"/>
  <note>
uni10F3
</note>
  <outline>
    <contour>
      <point x="291" y="-250" type="curve" smooth="yes"/>
      <point x="436" y="-250"/>
      <point x="531" y="-157"/>
      <point x="531" y="-14" type="curve" smooth="yes"/>
      <point x="531" y="146"/>
      <point x="422" y="219"/>
      <point x="319" y="228" type="curve"/>
      <point x="504" y="472" type="line"/>
      <point x="504" y="536" type="line"/>
      <point x="95" y="536" type="line"/>
      <point x="95" y="462" type="line"/>
      <point x="401" y="462" type="line"/>
      <point x="222" y="219" type="line"/>
      <point x="222" y="158" type="line"/>
      <point x="281" y="158" type="line" smooth="yes"/>
      <point x="372" y="158"/>
      <point x="440" y="102"/>
      <point x="440" y="-10" type="curve" smooth="yes"/>
      <point x="440" y="-103"/>
      <point x="392" y="-177"/>
      <point x="291" y="-177" type="curve" smooth="yes"/>
      <point x="185" y="-177"/>
      <point x="138" y="-103"/>
      <point x="138" y="-25" type="curve" smooth="yes"/>
      <point x="138" y="4"/>
      <point x="145" y="43"/>
      <point x="152" y="64" type="curve"/>
      <point x="68" y="64" type="line"/>
      <point x="59" y="41"/>
      <point x="50" y="5"/>
      <point x="50" y="-33" type="curve" smooth="yes"/>
      <point x="50" y="-157"/>
      <point x="144" y="-250"/>
    </contour>
  </outline>
</glyph>
<glyph name="har-georgian" format="2">
  <advance width="571"/>
  <unicode hex="10F4"/>
  <note>
uni10F4
</note>
  <outline>
    <contour>
      <point x="282" y="-250" type="curve" smooth="yes"/>
      <point x="427" y="-250"/>
      <point x="521" y="-160"/>
      <point x="521" y="-24" type="curve" smooth="yes"/>
      <point x="521" y="105"/>
      <point x="435" y="166"/>
      <point x="360" y="180" type="curve"/>
      <point x="360" y="184" type="line"/>
      <point x="435" y="202"/>
      <point x="491" y="245"/>
      <point x="491" y="334" type="curve" smooth="yes"/>
      <point x="491" y="444"/>
      <point x="405" y="481"/>
      <point x="329" y="515" type="curve" smooth="yes"/>
      <point x="268" y="542"/>
      <point x="213" y="568"/>
      <point x="213" y="628" type="curve" smooth="yes"/>
      <point x="213" y="672"/>
      <point x="241" y="697"/>
      <point x="296" y="697" type="curve" smooth="yes"/>
      <point x="330" y="697"/>
      <point x="366" y="686"/>
      <point x="407" y="663" type="curve"/>
      <point x="437" y="733" type="line"/>
      <point x="393" y="757"/>
      <point x="345" y="770"/>
      <point x="295" y="770" type="curve" smooth="yes"/>
      <point x="194" y="770"/>
      <point x="129" y="715"/>
      <point x="129" y="623" type="curve" smooth="yes"/>
      <point x="129" y="521"/>
      <point x="219" y="479"/>
      <point x="295" y="445" type="curve" smooth="yes"/>
      <point x="351" y="420"/>
      <point x="400" y="392"/>
      <point x="400" y="330" type="curve" smooth="yes"/>
      <point x="400" y="263"/>
      <point x="365" y="219"/>
      <point x="280" y="219" type="curve" smooth="yes"/>
      <point x="224" y="219" type="line"/>
      <point x="224" y="146" type="line"/>
      <point x="269" y="146" type="line" smooth="yes"/>
      <point x="382" y="146"/>
      <point x="430" y="70"/>
      <point x="430" y="-14" type="curve" smooth="yes"/>
      <point x="430" y="-103"/>
      <point x="382" y="-177"/>
      <point x="282" y="-177" type="curve" smooth="yes"/>
      <point x="191" y="-177"/>
      <point x="138" y="-132"/>
      <point x="138" y="-47" type="curve" smooth="yes"/>
      <point x="138" y="-17"/>
      <point x="142" y="10"/>
      <point x="147" y="28" type="curve"/>
      <point x="63" y="28" type="line"/>
      <point x="57" y="12"/>
      <point x="50" y="-18"/>
      <point x="50" y="-47" type="curve" smooth="yes"/>
      <point x="50" y="-181"/>
      <point x="147" y="-250"/>
    </contour>
  </outline>
</glyph>
<glyph name="hoe-georgian" format="2">
  <advance width="662"/>
  <unicode hex="10F5"/>
  <note>
uni10F5
</note>
  <outline>
    <contour>
      <point x="283" y="-10" type="curve" smooth="yes"/>
      <point x="434" y="-10"/>
      <point x="511" y="65"/>
      <point x="511" y="211" type="curve" smooth="yes"/>
      <point x="511" y="265" type="line"/>
      <point x="623" y="265" type="line"/>
      <point x="623" y="339" type="line"/>
      <point x="511" y="339" type="line"/>
      <point x="511" y="440" type="line"/>
      <point x="623" y="440" type="line"/>
      <point x="623" y="514" type="line"/>
      <point x="511" y="514" type="line"/>
      <point x="511" y="562" type="line" smooth="yes"/>
      <point x="511" y="696"/>
      <point x="436" y="770"/>
      <point x="290" y="770" type="curve" smooth="yes"/>
      <point x="151" y="770"/>
      <point x="69" y="705"/>
      <point x="69" y="601" type="curve" smooth="yes"/>
      <point x="69" y="498"/>
      <point x="135" y="440"/>
      <point x="258" y="440" type="curve" smooth="yes"/>
      <point x="423" y="440" type="line"/>
      <point x="423" y="339" type="line"/>
      <point x="278" y="339" type="line" smooth="yes"/>
      <point x="135" y="339"/>
      <point x="55" y="276"/>
      <point x="55" y="170" type="curve" smooth="yes"/>
      <point x="55" y="56"/>
      <point x="139" y="-10"/>
    </contour>
    <contour>
      <point x="287" y="64" type="curve" smooth="yes"/>
      <point x="195" y="64"/>
      <point x="146" y="104"/>
      <point x="146" y="169" type="curve" smooth="yes"/>
      <point x="146" y="231"/>
      <point x="190" y="265"/>
      <point x="268" y="265" type="curve" smooth="yes"/>
      <point x="423" y="265" type="line"/>
      <point x="423" y="216" type="line" smooth="yes"/>
      <point x="423" y="113"/>
      <point x="382" y="64"/>
    </contour>
    <contour>
      <point x="265" y="514" type="line" smooth="yes"/>
      <point x="195" y="514"/>
      <point x="160" y="543"/>
      <point x="160" y="602" type="curve" smooth="yes"/>
      <point x="160" y="664"/>
      <point x="206" y="696"/>
      <point x="288" y="696" type="curve" smooth="yes"/>
      <point x="379" y="696"/>
      <point x="423" y="655"/>
      <point x="423" y="564" type="curve" smooth="yes"/>
      <point x="423" y="514" type="line"/>
    </contour>
  </outline>
</glyph>
<glyph name="fi-georgian" format="2">
  <advance width="926"/>
  <unicode hex="10F6"/>
  <note>
uni10F6
</note>
  <outline>
    <contour>
      <point x="375" y="-250" type="curve" smooth="yes"/>
      <point x="446" y="-250"/>
      <point x="507" y="-214"/>
      <point x="507" y="-83" type="curve" smooth="yes"/>
      <point x="507" y="-10" type="line" smooth="yes"/>
      <point x="507" y="12"/>
      <point x="504" y="51"/>
      <point x="501" y="69" type="curve"/>
      <point x="507" y="69" type="line"/>
      <point x="544" y="16"/>
      <point x="596" y="-10"/>
      <point x="663" y="-10" type="curve" smooth="yes"/>
      <point x="794" y="-10"/>
      <point x="871" y="93"/>
      <point x="871" y="269" type="curve" smooth="yes"/>
      <point x="871" y="445"/>
      <point x="795" y="546"/>
      <point x="664" y="546" type="curve" smooth="yes"/>
      <point x="595" y="546"/>
      <point x="543" y="518"/>
      <point x="507" y="464" type="curve"/>
      <point x="503" y="464" type="line"/>
      <point x="505" y="488"/>
      <point x="507" y="512"/>
      <point x="507" y="546" type="curve"/>
      <point x="507" y="602" type="line" smooth="yes"/>
      <point x="507" y="681"/>
      <point x="528" y="698"/>
      <point x="569" y="698" type="curve" smooth="yes"/>
      <point x="587" y="698"/>
      <point x="610" y="692"/>
      <point x="621" y="687" type="curve"/>
      <point x="621" y="754" type="line"/>
      <point x="607" y="763"/>
      <point x="580" y="770"/>
      <point x="551" y="770" type="curve" smooth="yes"/>
      <point x="480" y="770"/>
      <point x="419" y="734"/>
      <point x="419" y="603" type="curve" smooth="yes"/>
      <point x="419" y="546" type="line"/>
      <point x="419" y="512"/>
      <point x="421" y="488"/>
      <point x="423" y="464" type="curve"/>
      <point x="419" y="464" type="line"/>
      <point x="383" y="518"/>
      <point x="331" y="546"/>
      <point x="262" y="546" type="curve" smooth="yes"/>
      <point x="131" y="546"/>
      <point x="55" y="445"/>
      <point x="55" y="269" type="curve" smooth="yes"/>
      <point x="55" y="93"/>
      <point x="132" y="-10"/>
      <point x="263" y="-10" type="curve" smooth="yes"/>
      <point x="330" y="-10"/>
      <point x="382" y="16"/>
      <point x="419" y="69" type="curve"/>
      <point x="425" y="69" type="line"/>
      <point x="422" y="51"/>
      <point x="419" y="12"/>
      <point x="419" y="-10" type="curve" smooth="yes"/>
      <point x="419" y="-82" type="line" smooth="yes"/>
      <point x="419" y="-161"/>
      <point x="398" y="-178"/>
      <point x="357" y="-178" type="curve" smooth="yes"/>
      <point x="339" y="-178"/>
      <point x="316" y="-172"/>
      <point x="305" y="-167" type="curve"/>
      <point x="305" y="-234" type="line"/>
      <point x="319" y="-243"/>
      <point x="346" y="-250"/>
    </contour>
    <contour>
      <point x="277" y="63" type="curve" smooth="yes"/>
      <point x="193" y="63"/>
      <point x="146" y="138"/>
      <point x="146" y="271" type="curve" smooth="yes"/>
      <point x="146" y="404"/>
      <point x="192" y="473"/>
      <point x="278" y="473" type="curve" smooth="yes"/>
      <point x="376" y="473"/>
      <point x="420" y="419"/>
      <point x="420" y="286" type="curve" smooth="yes"/>
      <point x="420" y="270" type="line" smooth="yes"/>
      <point x="420" y="121"/>
      <point x="376" y="63"/>
    </contour>
    <contour>
      <point x="649" y="63" type="curve" smooth="yes"/>
      <point x="550" y="63"/>
      <point x="506" y="121"/>
      <point x="506" y="270" type="curve" smooth="yes"/>
      <point x="506" y="286" type="line" smooth="yes"/>
      <point x="506" y="419"/>
      <point x="550" y="473"/>
      <point x="648" y="473" type="curve" smooth="yes"/>
      <point x="734" y="473"/>
      <point x="780" y="404"/>
      <point x="780" y="271" type="curve" smooth="yes"/>
      <point x="780" y="138"/>
      <point x="733" y="63"/>
    </contour>
  </outline>
</glyph>
<glyph name="yn-georgian" format="2">
  <advance width="553"/>
  <unicode hex="10F7"/>
  <note>
uni10F7
</note>
  <anchor x="277" y="536" name="top"/>
  <outline>
    <contour>
      <point x="274" y="-250" type="curve" smooth="yes"/>
      <point x="408" y="-250"/>
      <point x="503" y="-182"/>
      <point x="503" y="-42" type="curve" smooth="yes"/>
      <point x="503" y="-11"/>
      <point x="500" y="10"/>
      <point x="493" y="29" type="curve"/>
      <point x="401" y="29" type="line"/>
      <point x="407" y="16"/>
      <point x="412" y="-11"/>
      <point x="412" y="-41" type="curve" smooth="yes"/>
      <point x="412" y="-135"/>
      <point x="352" y="-176"/>
      <point x="274" y="-176" type="curve" smooth="yes"/>
      <point x="194" y="-176"/>
      <point x="141" y="-124"/>
      <point x="141" y="-41" type="curve" smooth="yes"/>
      <point x="141" y="64"/>
      <point x="204" y="108"/>
      <point x="287" y="148" type="curve" smooth="yes"/>
      <point x="420" y="212"/>
      <point x="485" y="267"/>
      <point x="485" y="372" type="curve" smooth="yes"/>
      <point x="485" y="478"/>
      <point x="409" y="546"/>
      <point x="277" y="546" type="curve" smooth="yes"/>
      <point x="145" y="546"/>
      <point x="69" y="479"/>
      <point x="69" y="373" type="curve" smooth="yes"/>
      <point x="69" y="364"/>
      <point x="70" y="355"/>
      <point x="72" y="345" type="curve"/>
      <point x="159" y="345" type="line"/>
      <point x="157" y="353"/>
      <point x="156" y="361"/>
      <point x="156" y="368" type="curve"/>
      <point x="156" y="438"/>
      <point x="193" y="472"/>
      <point x="277" y="472" type="curve" smooth="yes"/>
      <point x="356" y="472"/>
      <point x="395" y="435"/>
      <point x="395" y="371" type="curve" smooth="yes"/>
      <point x="395" y="301"/>
      <point x="357" y="272"/>
      <point x="261" y="225" type="curve" smooth="yes"/>
      <point x="141" y="166"/>
      <point x="50" y="103"/>
      <point x="50" y="-41" type="curve" smooth="yes"/>
      <point x="50" y="-168"/>
      <point x="139" y="-250"/>
    </contour>
  </outline>
</glyph>
<glyph name="elifi-georgian" format="2">
  <advance width="596"/>
  <unicode hex="10F8"/>
  <note>
uni10F8
</note>
  <outline>
    <contour>
      <point x="307" y="-250" type="curve" smooth="yes"/>
      <point x="444" y="-250"/>
      <point x="538" y="-167"/>
      <point x="538" y="-43" type="curve" smooth="yes"/>
      <point x="538" y="-5"/>
      <point x="532" y="21"/>
      <point x="523" y="44" type="curve"/>
      <point x="439" y="44" type="line"/>
      <point x="446" y="23"/>
      <point x="450" y="-6"/>
      <point x="450" y="-35" type="curve" smooth="yes"/>
      <point x="450" y="-113"/>
      <point x="403" y="-177"/>
      <point x="307" y="-177" type="curve" smooth="yes"/>
      <point x="204" y="-177"/>
      <point x="163" y="-103"/>
      <point x="163" y="10" type="curve" smooth="yes"/>
      <point x="163" y="147" type="line" smooth="yes"/>
      <point x="163" y="174"/>
      <point x="161" y="199"/>
      <point x="158" y="222" type="curve"/>
      <point x="164" y="222" type="line"/>
      <point x="198" y="167"/>
      <point x="261" y="139"/>
      <point x="331" y="139" type="curve" smooth="yes"/>
      <point x="466" y="139"/>
      <point x="541" y="212"/>
      <point x="541" y="367" type="curve" smooth="yes"/>
      <point x="541" y="435"/>
      <point x="523" y="490"/>
      <point x="502" y="536" type="curve"/>
      <point x="414" y="536" type="line"/>
      <point x="434" y="484"/>
      <point x="450" y="439"/>
      <point x="450" y="365" type="curve" smooth="yes"/>
      <point x="450" y="260"/>
      <point x="403" y="212"/>
      <point x="320" y="212" type="curve" smooth="yes"/>
      <point x="215" y="212"/>
      <point x="163" y="264"/>
      <point x="163" y="367" type="curve" smooth="yes"/>
      <point x="163" y="536" type="line"/>
      <point x="75" y="536" type="line"/>
      <point x="75" y="6" type="line" smooth="yes"/>
      <point x="75" y="-157"/>
      <point x="160" y="-250"/>
    </contour>
  </outline>
</glyph>
<glyph name="turnedgan-georgian" format="2">
  <advance width="606"/>
  <unicode hex="10F9"/>
  <note>
uni10F9
</note>
  <outline>
    <contour>
      <point x="305" y="546" type="curve" smooth="yes"/>
      <point x="151" y="546"/>
      <point x="55" y="445"/>
      <point x="55" y="277" type="curve" smooth="yes"/>
      <point x="55" y="165"/>
      <point x="104" y="65"/>
      <point x="217" y="33" type="curve"/>
      <point x="217" y="30" type="line"/>
      <point x="152" y="10"/>
      <point x="122" y="-39"/>
      <point x="122" y="-100" type="curve" smooth="yes"/>
      <point x="122" y="-188"/>
      <point x="198" y="-250"/>
      <point x="306" y="-250" type="curve" smooth="yes"/>
      <point x="416" y="-250"/>
      <point x="488" y="-191"/>
      <point x="488" y="-108" type="curve" smooth="yes"/>
      <point x="488" y="-93"/>
      <point x="486" y="-77"/>
      <point x="482" y="-61" type="curve"/>
      <point x="396" y="-61" type="line"/>
      <point x="398" y="-73"/>
      <point x="400" y="-84"/>
      <point x="400" y="-94" type="curve" smooth="yes"/>
      <point x="400" y="-147"/>
      <point x="368" y="-180"/>
      <point x="306" y="-180" type="curve" smooth="yes"/>
      <point x="245" y="-180"/>
      <point x="210" y="-144"/>
      <point x="210" y="-92" type="curve" smooth="yes"/>
      <point x="210" y="-40"/>
      <point x="241" y="-3"/>
      <point x="318" y="7" type="curve" smooth="yes"/>
      <point x="462" y="26"/>
      <point x="551" y="110"/>
      <point x="551" y="277" type="curve" smooth="yes"/>
      <point x="551" y="445"/>
      <point x="447" y="546"/>
    </contour>
    <contour>
      <point x="303" y="473" type="curve" smooth="yes"/>
      <point x="412" y="473"/>
      <point x="460" y="394"/>
      <point x="460" y="277" type="curve" smooth="yes"/>
      <point x="460" y="160"/>
      <point x="413" y="84"/>
      <point x="304" y="84" type="curve" smooth="yes"/>
      <point x="195" y="84"/>
      <point x="146" y="160"/>
      <point x="146" y="277" type="curve" smooth="yes"/>
      <point x="146" y="394"/>
      <point x="195" y="473"/>
    </contour>
  </outline>
</glyph>
<glyph name="ain-georgian" format="2">
  <advance width="486"/>
  <unicode hex="10FA"/>
  <note>
uni10FA
</note>
  <outline>
    <contour>
      <point x="115" y="-108" type="line"/>
      <point x="438" y="13" type="line"/>
      <point x="438" y="97" type="line"/>
      <point x="401" y="80"/>
      <point x="357" y="66"/>
      <point x="299" y="66" type="curve" smooth="yes"/>
      <point x="198" y="66"/>
      <point x="146" y="137"/>
      <point x="146" y="266" type="curve" smooth="yes"/>
      <point x="146" y="400"/>
      <point x="197" y="469"/>
      <point x="304" y="469" type="curve" smooth="yes"/>
      <point x="341" y="469"/>
      <point x="388" y="456"/>
      <point x="420" y="444" type="curve"/>
      <point x="447" y="517" type="line"/>
      <point x="415" y="533"/>
      <point x="360" y="546"/>
      <point x="306" y="546" type="curve" smooth="yes"/>
      <point x="162" y="546"/>
      <point x="55" y="463"/>
      <point x="55" y="265" type="curve" smooth="yes"/>
      <point x="55" y="125"/>
      <point x="117" y="40"/>
      <point x="213" y="12" type="curve"/>
      <point x="213" y="9" type="line"/>
      <point x="115" y="-29" type="line"/>
    </contour>
  </outline>
</glyph>
<glyph name="paragraph-georgian" format="2">
  <advance width="533"/>
  <unicode hex="10FB"/>
  <note>
uni10FB
</note>
  <outline>
    <contour>
      <point x="409" y="200" type="curve" smooth="yes"/>
      <point x="448" y="200"/>
      <point x="471" y="225"/>
      <point x="471" y="268" type="curve" smooth="yes"/>
      <point x="471" y="312"/>
      <point x="449" y="336"/>
      <point x="409" y="336" type="curve" smooth="yes"/>
      <point x="370" y="336"/>
      <point x="347" y="313"/>
      <point x="347" y="268" type="curve" smooth="yes"/>
      <point x="347" y="223"/>
      <point x="371" y="200"/>
    </contour>
    <contour>
      <point x="134" y="-14" type="curve" smooth="yes"/>
      <point x="172" y="-14"/>
      <point x="196" y="11"/>
      <point x="196" y="54" type="curve" smooth="yes"/>
      <point x="196" y="98"/>
      <point x="173" y="122"/>
      <point x="134" y="122" type="curve" smooth="yes"/>
      <point x="93" y="122"/>
      <point x="72" y="97"/>
      <point x="72" y="54" type="curve" smooth="yes"/>
      <point x="72" y="11"/>
      <point x="94" y="-14"/>
    </contour>
    <contour>
      <point x="134" y="414" type="curve" smooth="yes"/>
      <point x="172" y="414"/>
      <point x="196" y="439"/>
      <point x="196" y="482" type="curve" smooth="yes"/>
      <point x="196" y="525"/>
      <point x="175" y="550"/>
      <point x="134" y="550" type="curve" smooth="yes"/>
      <point x="92" y="550"/>
      <point x="72" y="527"/>
      <point x="72" y="482" type="curve" smooth="yes"/>
      <point x="72" y="439"/>
      <point x="94" y="414"/>
    </contour>
  </outline>
</glyph>
<glyph name="narMod-georgian" format="2">
  <advance width="354"/>
  <unicode hex="10FC"/>
  <note>
uni10FC
</note>
  <outline>
    <contour>
      <point x="180" y="407" type="curve" smooth="yes"/>
      <point x="270" y="407"/>
      <point x="324" y="465"/>
      <point x="324" y="567" type="curve" smooth="yes"/>
      <point x="324" y="671"/>
      <point x="275" y="722"/>
      <point x="205" y="722" type="curve" smooth="yes"/>
      <point x="159" y="722"/>
      <point x="130" y="704"/>
      <point x="114" y="675" type="curve"/>
      <point x="111" y="675" type="line"/>
      <point x="114" y="689"/>
      <point x="115" y="713"/>
      <point x="115" y="726" type="curve" smooth="yes"/>
      <point x="115" y="741" type="line" smooth="yes"/>
      <point x="115" y="773"/>
      <point x="133" y="786"/>
      <point x="162" y="786" type="curve" smooth="yes"/>
      <point x="295" y="786" type="line"/>
      <point x="295" y="844" type="line"/>
      <point x="154" y="844" type="line" smooth="yes"/>
      <point x="94" y="844"/>
      <point x="40" y="813"/>
      <point x="40" y="732" type="curve" smooth="yes"/>
      <point x="40" y="565" type="line" smooth="yes"/>
      <point x="40" y="464"/>
      <point x="90" y="407"/>
    </contour>
    <contour>
      <point x="180" y="469" type="curve" smooth="yes"/>
      <point x="133" y="469"/>
      <point x="110" y="502"/>
      <point x="110" y="558" type="curve" smooth="yes"/>
      <point x="110" y="572" type="line" smooth="yes"/>
      <point x="110" y="629"/>
      <point x="129" y="662"/>
      <point x="181" y="662" type="curve" smooth="yes"/>
      <point x="222" y="662"/>
      <point x="247" y="629"/>
      <point x="247" y="565" type="curve" smooth="yes"/>
      <point x="247" y="507"/>
      <point x="227" y="469"/>
    </contour>
  </outline>
</glyph>
<glyph name="aen-georgian" format="2">
  <advance width="553"/>
  <unicode hex="10FD"/>
  <outline>
    <contour>
      <point x="279" y="-10" type="curve" smooth="yes"/>
      <point x="414" y="-10"/>
      <point x="503" y="72"/>
      <point x="503" y="199" type="curve" smooth="yes"/>
      <point x="503" y="343"/>
      <point x="412" y="389"/>
      <point x="292" y="449" type="curve" smooth="yes"/>
      <point x="196" y="497"/>
      <point x="158" y="525"/>
      <point x="158" y="595" type="curve" smooth="yes"/>
      <point x="158" y="659"/>
      <point x="197" y="696"/>
      <point x="276" y="696" type="curve" smooth="yes"/>
      <point x="360" y="696"/>
      <point x="397" y="662"/>
      <point x="397" y="592" type="curve"/>
      <point x="397" y="585"/>
      <point x="396" y="577"/>
      <point x="394" y="569" type="curve"/>
      <point x="481" y="569" type="line"/>
      <point x="483" y="579"/>
      <point x="484" y="588"/>
      <point x="484" y="597" type="curve" smooth="yes"/>
      <point x="484" y="703"/>
      <point x="408" y="770"/>
      <point x="276" y="770" type="curve" smooth="yes"/>
      <point x="144" y="770"/>
      <point x="68" y="702"/>
      <point x="68" y="596" type="curve" smooth="yes"/>
      <point x="68" y="491"/>
      <point x="134" y="439"/>
      <point x="266" y="372" type="curve" smooth="yes"/>
      <point x="348" y="330"/>
      <point x="412" y="304"/>
      <point x="412" y="199" type="curve" smooth="yes"/>
      <point x="412" y="116"/>
      <point x="359" y="64"/>
      <point x="279" y="64" type="curve" smooth="yes"/>
      <point x="201" y="64"/>
      <point x="141" y="105"/>
      <point x="141" y="199" type="curve" smooth="yes"/>
      <point x="141" y="229"/>
      <point x="146" y="256"/>
      <point x="152" y="269" type="curve"/>
      <point x="60" y="269" type="line"/>
      <point x="53" y="250"/>
      <point x="50" y="229"/>
      <point x="50" y="198" type="curve" smooth="yes"/>
      <point x="50" y="58"/>
      <point x="145" y="-10"/>
    </contour>
  </outline>
</glyph>
<glyph name="hardsign-georgian" format="2">
  <advance width="584"/>
  <unicode hex="10FE"/>
  <outline>
    <contour>
      <point x="65" y="536" type="curve"/>
      <point x="65" y="464" type="line"/>
      <point x="118" y="464"/>
      <point x="158" y="459"/>
      <point x="216" y="450" type="curve"/>
      <point x="216" y="447" type="line"/>
      <point x="110" y="400"/>
      <point x="55" y="303"/>
      <point x="55" y="210" type="curve" smooth="yes"/>
      <point x="55" y="96"/>
      <point x="136" y="-10"/>
      <point x="292" y="-10" type="curve" smooth="yes"/>
      <point x="448" y="-10"/>
      <point x="529" y="96"/>
      <point x="529" y="210" type="curve" smooth="yes"/>
      <point x="529" y="303"/>
      <point x="474" y="400"/>
      <point x="368" y="447" type="curve"/>
      <point x="368" y="450" type="line"/>
      <point x="426" y="459"/>
      <point x="466" y="464"/>
      <point x="519" y="464" type="curve"/>
      <point x="519" y="536" type="line"/>
      <point x="427" y="536"/>
      <point x="357" y="522"/>
      <point x="292" y="488" type="curve"/>
      <point x="227" y="522"/>
      <point x="157" y="536"/>
    </contour>
    <contour>
      <point x="292" y="421" type="curve"/>
      <point x="380" y="379"/>
      <point x="439" y="314"/>
      <point x="439" y="209" type="curve" smooth="yes"/>
      <point x="439" y="130"/>
      <point x="387" y="63"/>
      <point x="292" y="63" type="curve" smooth="yes"/>
      <point x="197" y="63"/>
      <point x="145" y="130"/>
      <point x="145" y="209" type="curve" smooth="yes"/>
      <point x="145" y="314"/>
      <point x="204" y="379"/>
    </contour>
  </outline>
</glyph>
<glyph name="An-georgian" format="2">
  <advance width="602"/>
  <unicode hex="1C90"/>
  <anchor x="300" y="714" name="top"/>
  <outline>
    <contour>
      <point x="297" y="-9" type="curve" smooth="yes"/>
      <point x="448" y="-9"/>
      <point x="541" y="89"/>
      <point x="541" y="237" type="curve" smooth="yes"/>
      <point x="541" y="363"/>
      <point x="487" y="439"/>
      <point x="436" y="506" type="curve" smooth="yes"/>
      <point x="387" y="571"/>
      <point x="341" y="628"/>
      <point x="348" y="714" type="curve"/>
      <point x="258" y="714" type="line"/>
      <point x="246" y="605"/>
      <point x="300" y="537"/>
      <point x="357" y="464" type="curve" smooth="yes"/>
      <point x="403" y="406"/>
      <point x="446" y="340"/>
      <point x="446" y="241" type="curve" smooth="yes"/>
      <point x="446" y="142"/>
      <point x="402" y="69"/>
      <point x="297" y="69" type="curve" smooth="yes"/>
      <point x="198" y="69"/>
      <point x="148" y="137"/>
      <point x="148" y="228" type="curve" smooth="yes"/>
      <point x="148" y="262"/>
      <point x="152" y="310"/>
      <point x="176" y="369" type="curve"/>
      <point x="209" y="352" type="line"/>
      <point x="41" y="352" type="line"/>
      <point x="85" y="369" type="line"/>
      <point x="56" y="302"/>
      <point x="55" y="264"/>
      <point x="55" y="220" type="curve" smooth="yes"/>
      <point x="55" y="83"/>
      <point x="153" y="-9"/>
    </contour>
  </outline>
</glyph>
<glyph name="Ban-georgian" format="2">
  <advance width="627"/>
  <unicode hex="1C91"/>
  <outline>
    <contour>
      <point x="312" y="-9" type="curve" smooth="yes"/>
      <point x="453" y="-9"/>
      <point x="566" y="86"/>
      <point x="566" y="254" type="curve" smooth="yes"/>
      <point x="566" y="420"/>
      <point x="449" y="515"/>
      <point x="315" y="515" type="curve" smooth="yes"/>
      <point x="173" y="515"/>
      <point x="61" y="421"/>
      <point x="61" y="254" type="curve" smooth="yes"/>
      <point x="61" y="86"/>
      <point x="180" y="-9"/>
    </contour>
    <contour>
      <point x="314" y="69" type="curve" smooth="yes"/>
      <point x="219" y="69"/>
      <point x="156" y="141"/>
      <point x="156" y="254" type="curve" smooth="yes"/>
      <point x="156" y="368"/>
      <point x="219" y="437"/>
      <point x="313" y="437" type="curve" smooth="yes"/>
      <point x="407" y="437"/>
      <point x="471" y="369"/>
      <point x="471" y="254" type="curve" smooth="yes"/>
      <point x="471" y="140"/>
      <point x="407" y="69"/>
    </contour>
    <contour>
      <point x="363" y="496" type="line"/>
      <point x="377" y="515"/>
      <point x="386" y="537"/>
      <point x="386" y="565" type="curve" smooth="yes"/>
      <point x="386" y="605"/>
      <point x="360" y="631"/>
      <point x="330" y="653" type="curve" smooth="yes"/>
      <point x="309" y="669"/>
      <point x="290" y="685"/>
      <point x="292" y="714" type="curve"/>
      <point x="202" y="714" type="line"/>
      <point x="195" y="662"/>
      <point x="227" y="631"/>
      <point x="255" y="611" type="curve" smooth="yes"/>
      <point x="275" y="597"/>
      <point x="297" y="580"/>
      <point x="297" y="551" type="curve" smooth="yes"/>
      <point x="297" y="531"/>
      <point x="291" y="515"/>
      <point x="280" y="502" type="curve"/>
    </contour>
  </outline>
</glyph>
<glyph name="Gan-georgian" format="2">
  <advance width="615"/>
  <unicode hex="1C92"/>
  <outline>
    <contour>
      <point x="306" y="-9" type="curve" smooth="yes"/>
      <point x="447" y="-9"/>
      <point x="560" y="87"/>
      <point x="560" y="243" type="curve" smooth="yes"/>
      <point x="560" y="365"/>
      <point x="495" y="436"/>
      <point x="415" y="459" type="curve"/>
      <point x="415" y="462" type="line"/>
      <point x="474" y="482"/>
      <point x="499" y="524"/>
      <point x="499" y="578" type="curve" smooth="yes"/>
      <point x="499" y="666"/>
      <point x="418" y="724"/>
      <point x="308" y="724" type="curve" smooth="yes"/>
      <point x="198" y="724"/>
      <point x="115" y="668"/>
      <point x="115" y="584" type="curve" smooth="yes"/>
      <point x="115" y="571"/>
      <point x="117" y="558"/>
      <point x="120" y="544" type="curve"/>
      <point x="211" y="544" type="line"/>
      <point x="209" y="554"/>
      <point x="208" y="563"/>
      <point x="208" y="571" type="curve" smooth="yes"/>
      <point x="208" y="620"/>
      <point x="246" y="652"/>
      <point x="308" y="652" type="curve" smooth="yes"/>
      <point x="367" y="652"/>
      <point x="406" y="622"/>
      <point x="406" y="577" type="curve" smooth="yes"/>
      <point x="406" y="529"/>
      <point x="372" y="501"/>
      <point x="293" y="494" type="curve" smooth="yes"/>
      <point x="156" y="481"/>
      <point x="55" y="401"/>
      <point x="55" y="243" type="curve" smooth="yes"/>
      <point x="55" y="87"/>
      <point x="174" y="-9"/>
    </contour>
    <contour>
      <point x="308" y="69" type="curve" smooth="yes"/>
      <point x="213" y="69"/>
      <point x="150" y="142"/>
      <point x="150" y="243" type="curve" smooth="yes"/>
      <point x="150" y="354"/>
      <point x="213" y="417"/>
      <point x="307" y="417" type="curve" smooth="yes"/>
      <point x="401" y="417"/>
      <point x="465" y="355"/>
      <point x="465" y="243" type="curve" smooth="yes"/>
      <point x="465" y="141"/>
      <point x="401" y="69"/>
    </contour>
  </outline>
</glyph>
<glyph name="Don-georgian" format="2">
  <advance width="924"/>
  <unicode hex="1C93"/>
  <outline>
    <contour>
      <point x="576" y="0" type="curve"/>
      <point x="661" y="0" type="line"/>
      <point x="650" y="109"/>
      <point x="551" y="149"/>
      <point x="442" y="180" type="curve" smooth="yes"/>
      <point x="302" y="220"/>
      <point x="155" y="278"/>
      <point x="155" y="479" type="curve" smooth="yes"/>
      <point x="155" y="583"/>
      <point x="199" y="646"/>
      <point x="273" y="646" type="curve" smooth="yes"/>
      <point x="343" y="646"/>
      <point x="390" y="600"/>
      <point x="390" y="511" type="curve" smooth="yes"/>
      <point x="390" y="479" type="line" smooth="yes"/>
      <point x="390" y="331"/>
      <point x="482" y="238"/>
      <point x="627" y="238" type="curve" smooth="yes"/>
      <point x="762" y="238"/>
      <point x="863" y="331"/>
      <point x="863" y="480" type="curve" smooth="yes"/>
      <point x="863" y="628"/>
      <point x="770" y="724"/>
      <point x="626" y="724" type="curve" smooth="yes"/>
      <point x="544" y="724"/>
      <point x="471" y="686"/>
      <point x="443" y="618" type="curve"/>
      <point x="438" y="618" type="line"/>
      <point x="415" y="687"/>
      <point x="354" y="724"/>
      <point x="268" y="724" type="curve" smooth="yes"/>
      <point x="131" y="724"/>
      <point x="61" y="617"/>
      <point x="61" y="478" type="curve" smooth="yes"/>
      <point x="61" y="329"/>
      <point x="142" y="218"/>
      <point x="279" y="169" type="curve"/>
      <point x="279" y="166" type="line"/>
      <point x="222" y="163"/>
      <point x="189" y="149"/>
      <point x="161" y="135" type="curve"/>
      <point x="194" y="71" type="line"/>
      <point x="237" y="95"/>
      <point x="294" y="107"/>
      <point x="353" y="107" type="curve" smooth="yes"/>
      <point x="451" y="107"/>
      <point x="561" y="70"/>
    </contour>
    <contour>
      <point x="625" y="315" type="curve" smooth="yes"/>
      <point x="529" y="315"/>
      <point x="485" y="385"/>
      <point x="485" y="480" type="curve" smooth="yes"/>
      <point x="485" y="576"/>
      <point x="529" y="645"/>
      <point x="626" y="645" type="curve" smooth="yes"/>
      <point x="724" y="645"/>
      <point x="768" y="576"/>
      <point x="768" y="480" type="curve" smooth="yes"/>
      <point x="768" y="384"/>
      <point x="723" y="315"/>
    </contour>
  </outline>
</glyph>
<glyph name="Vin-georgian" format="2">
  <advance width="611"/>
  <unicode hex="1C95"/>
  <outline>
    <contour>
      <point x="307" y="-10" type="curve" smooth="yes"/>
      <point x="459" y="-10"/>
      <point x="556" y="77"/>
      <point x="556" y="208" type="curve" smooth="yes"/>
      <point x="556" y="314"/>
      <point x="487" y="372"/>
      <point x="412" y="384" type="curve"/>
      <point x="412" y="387" type="line"/>
      <point x="489" y="404"/>
      <point x="537" y="461"/>
      <point x="537" y="543" type="curve" smooth="yes"/>
      <point x="537" y="648"/>
      <point x="446" y="724"/>
      <point x="313" y="724" type="curve" smooth="yes"/>
      <point x="179" y="724"/>
      <point x="87" y="648"/>
      <point x="87" y="549" type="curve" smooth="yes"/>
      <point x="87" y="529"/>
      <point x="89" y="510"/>
      <point x="95" y="490" type="curve"/>
      <point x="186" y="490" type="line"/>
      <point x="182" y="508"/>
      <point x="180" y="525"/>
      <point x="180" y="542" type="curve" smooth="yes"/>
      <point x="180" y="606"/>
      <point x="228" y="647"/>
      <point x="313" y="647" type="curve" smooth="yes"/>
      <point x="394" y="647"/>
      <point x="443" y="601"/>
      <point x="443" y="540" type="curve" smooth="yes"/>
      <point x="443" y="477"/>
      <point x="403" y="423"/>
      <point x="316" y="423" type="curve" smooth="yes"/>
      <point x="258" y="423" type="line"/>
      <point x="258" y="346" type="line"/>
      <point x="309" y="346" type="line" smooth="yes"/>
      <point x="408" y="346"/>
      <point x="461" y="289"/>
      <point x="461" y="213" type="curve" smooth="yes"/>
      <point x="461" y="132"/>
      <point x="411" y="68"/>
      <point x="307" y="68" type="curve" smooth="yes"/>
      <point x="204" y="68"/>
      <point x="149" y="119"/>
      <point x="149" y="211" type="curve" smooth="yes"/>
      <point x="149" y="231"/>
      <point x="152" y="254"/>
      <point x="158" y="279" type="curve"/>
      <point x="67" y="279" type="line"/>
      <point x="59" y="252"/>
      <point x="55" y="226"/>
      <point x="55" y="201" type="curve" smooth="yes"/>
      <point x="55" y="77"/>
      <point x="153" y="-10"/>
    </contour>
  </outline>
</glyph>
<glyph name="Zen-georgian" format="2">
  <advance width="651"/>
  <unicode hex="1C96"/>
  <outline>
    <contour>
      <point x="341" y="-10" type="curve" smooth="yes"/>
      <point x="490" y="-10"/>
      <point x="590" y="86"/>
      <point x="590" y="247" type="curve" smooth="yes"/>
      <point x="590" y="392"/>
      <point x="503" y="482"/>
      <point x="375" y="494" type="curve" smooth="yes"/>
      <point x="368" y="495"/>
      <point x="365" y="495"/>
      <point x="362" y="495" type="curve"/>
      <point x="362" y="498" type="line"/>
      <point x="378" y="518"/>
      <point x="386" y="546"/>
      <point x="386" y="576" type="curve" smooth="yes"/>
      <point x="386" y="654"/>
      <point x="319" y="724"/>
      <point x="209" y="724" type="curve" smooth="yes"/>
      <point x="96" y="724"/>
      <point x="33" y="646"/>
      <point x="33" y="566" type="curve" smooth="yes"/>
      <point x="33" y="489"/>
      <point x="82" y="432"/>
      <point x="154" y="414" type="curve"/>
      <point x="154" y="411" type="line"/>
      <point x="112" y="370"/>
      <point x="94" y="312"/>
      <point x="94" y="240" type="curve" smooth="yes"/>
      <point x="94" y="86"/>
      <point x="198" y="-10"/>
    </contour>
    <contour>
      <point x="343" y="68" type="curve" smooth="yes"/>
      <point x="235" y="68"/>
      <point x="190" y="139"/>
      <point x="190" y="247" type="curve" smooth="yes"/>
      <point x="190" y="354"/>
      <point x="235" y="423"/>
      <point x="342" y="423" type="curve" smooth="yes"/>
      <point x="449" y="423"/>
      <point x="495" y="354"/>
      <point x="495" y="247" type="curve" smooth="yes"/>
      <point x="495" y="138"/>
      <point x="448" y="68"/>
    </contour>
    <contour>
      <point x="209" y="470" type="curve" smooth="yes"/>
      <point x="150" y="470"/>
      <point x="123" y="513"/>
      <point x="123" y="560" type="curve" smooth="yes"/>
      <point x="123" y="609"/>
      <point x="150" y="650"/>
      <point x="209" y="650" type="curve" smooth="yes"/>
      <point x="268" y="650"/>
      <point x="296" y="609"/>
      <point x="296" y="560" type="curve" smooth="yes"/>
      <point x="296" y="506"/>
      <point x="265" y="470"/>
    </contour>
  </outline>
</glyph>
<glyph name="Tan-georgian" format="2">
  <advance width="973"/>
  <unicode hex="1C97"/>
  <outline>
    <contour>
      <point x="689" y="724" type="curve" smooth="yes"/>
      <point x="615" y="724"/>
      <point x="542" y="691"/>
      <point x="512" y="611" type="curve"/>
      <point x="509" y="611" type="line"/>
      <point x="474" y="687"/>
      <point x="409" y="724"/>
      <point x="318" y="724" type="curve" smooth="yes"/>
      <point x="150" y="724"/>
      <point x="66" y="601"/>
      <point x="66" y="357" type="curve" smooth="yes"/>
      <point x="66" y="115"/>
      <point x="149" y="-10"/>
      <point x="318" y="-10" type="curve" smooth="yes"/>
      <point x="486" y="-10"/>
      <point x="570" y="113"/>
      <point x="570" y="357" type="curve" smooth="yes"/>
      <point x="570" y="401"/>
      <point x="563" y="450"/>
      <point x="563" y="503" type="curve" smooth="yes"/>
      <point x="563" y="589"/>
      <point x="605" y="646"/>
      <point x="681" y="646" type="curve" smooth="yes"/>
      <point x="754" y="646"/>
      <point x="812" y="585"/>
      <point x="812" y="407" type="curve" smooth="yes"/>
      <point x="812" y="241"/>
      <point x="783" y="129"/>
      <point x="732" y="0" type="curve"/>
      <point x="826" y="0" type="line"/>
      <point x="876" y="123"/>
      <point x="907" y="233"/>
      <point x="907" y="412" type="curve" smooth="yes"/>
      <point x="907" y="639"/>
      <point x="804" y="724"/>
    </contour>
    <contour>
      <point x="318" y="68" type="curve" smooth="yes"/>
      <point x="210" y="68"/>
      <point x="161" y="158"/>
      <point x="161" y="357" type="curve" smooth="yes"/>
      <point x="161" y="553"/>
      <point x="208" y="646"/>
      <point x="318" y="646" type="curve" smooth="yes"/>
      <point x="426" y="646"/>
      <point x="475" y="556"/>
      <point x="475" y="357" type="curve" smooth="yes"/>
      <point x="475" y="161"/>
      <point x="428" y="68"/>
    </contour>
  </outline>
</glyph>
<glyph name="In-georgian" format="2">
  <advance width="636"/>
  <unicode hex="1C98"/>
  <anchor x="318" y="724" name="top"/>
  <outline>
    <contour>
      <point x="130" y="0" type="curve"/>
      <point x="222" y="0" type="line"/>
      <point x="182" y="109"/>
      <point x="161" y="211"/>
      <point x="161" y="387" type="curve" smooth="yes"/>
      <point x="161" y="577"/>
      <point x="224" y="646"/>
      <point x="318" y="646" type="curve" smooth="yes"/>
      <point x="412" y="646"/>
      <point x="475" y="577"/>
      <point x="475" y="387" type="curve" smooth="yes"/>
      <point x="475" y="211"/>
      <point x="454" y="109"/>
      <point x="414" y="0" type="curve"/>
      <point x="506" y="0" type="line"/>
      <point x="545" y="103"/>
      <point x="570" y="213"/>
      <point x="570" y="392" type="curve" smooth="yes"/>
      <point x="570" y="630"/>
      <point x="458" y="724"/>
      <point x="318" y="724" type="curve" smooth="yes"/>
      <point x="178" y="724"/>
      <point x="66" y="630"/>
      <point x="66" y="392" type="curve" smooth="yes"/>
      <point x="66" y="213"/>
      <point x="91" y="103"/>
    </contour>
  </outline>
</glyph>
<glyph name="Kan-georgian" format="2">
  <advance width="595"/>
  <unicode hex="1C99"/>
  <outline>
    <contour>
      <point x="291" y="-10" type="curve" smooth="yes"/>
      <point x="443" y="-10"/>
      <point x="540" y="77"/>
      <point x="540" y="209" type="curve" smooth="yes"/>
      <point x="540" y="329"/>
      <point x="473" y="393"/>
      <point x="401" y="405" type="curve"/>
      <point x="401" y="409" type="line"/>
      <point x="472" y="426"/>
      <point x="520" y="481"/>
      <point x="520" y="560" type="curve" smooth="yes"/>
      <point x="520" y="649"/>
      <point x="439" y="725"/>
      <point x="317" y="725" type="curve"/>
      <point x="317" y="650" type="line"/>
      <point x="393" y="650"/>
      <point x="428" y="603"/>
      <point x="428" y="547" type="curve" smooth="yes"/>
      <point x="428" y="497"/>
      <point x="397" y="443"/>
      <point x="301" y="443" type="curve" smooth="yes"/>
      <point x="253" y="443" type="line"/>
      <point x="253" y="367" type="line"/>
      <point x="294" y="367" type="line" smooth="yes"/>
      <point x="398" y="367"/>
      <point x="446" y="302"/>
      <point x="446" y="214" type="curve" smooth="yes"/>
      <point x="446" y="131"/>
      <point x="396" y="68"/>
      <point x="291" y="68" type="curve" smooth="yes"/>
      <point x="199" y="68"/>
      <point x="144" y="119"/>
      <point x="144" y="211" type="curve" smooth="yes"/>
      <point x="144" y="231"/>
      <point x="147" y="254"/>
      <point x="153" y="279" type="curve"/>
      <point x="62" y="279" type="line"/>
      <point x="54" y="252"/>
      <point x="50" y="226"/>
      <point x="50" y="201" type="curve" smooth="yes"/>
      <point x="50" y="77"/>
      <point x="148" y="-10"/>
    </contour>
  </outline>
</glyph>
<glyph name="Las-georgian" format="2">
  <advance width="1143"/>
  <unicode hex="1C9A"/>
  <outline>
    <contour>
      <point x="726" y="0" type="curve"/>
      <point x="814" y="0" type="line"/>
      <point x="794" y="137"/>
      <point x="642" y="196"/>
      <point x="491" y="215" type="curve" smooth="yes"/>
      <point x="293" y="240"/>
      <point x="155" y="306"/>
      <point x="155" y="490" type="curve" smooth="yes"/>
      <point x="155" y="598"/>
      <point x="200" y="646"/>
      <point x="274" y="646" type="curve" smooth="yes"/>
      <point x="343" y="646"/>
      <point x="374" y="583"/>
      <point x="374" y="507" type="curve" smooth="yes"/>
      <point x="374" y="385" type="line"/>
      <point x="462" y="385" type="line"/>
      <point x="462" y="509" type="line" smooth="yes"/>
      <point x="462" y="595"/>
      <point x="502" y="646"/>
      <point x="571" y="646" type="curve" smooth="yes"/>
      <point x="646" y="646"/>
      <point x="681" y="588"/>
      <point x="681" y="509" type="curve" smooth="yes"/>
      <point x="681" y="385" type="line"/>
      <point x="769" y="385" type="line"/>
      <point x="769" y="507" type="line" smooth="yes"/>
      <point x="769" y="590"/>
      <point x="806" y="646"/>
      <point x="869" y="646" type="curve" smooth="yes"/>
      <point x="944" y="646"/>
      <point x="988" y="587"/>
      <point x="988" y="481" type="curve" smooth="yes"/>
      <point x="988" y="413"/>
      <point x="978" y="358"/>
      <point x="945" y="291" type="curve"/>
      <point x="1028" y="262" type="line"/>
      <point x="1064" y="329"/>
      <point x="1082" y="396"/>
      <point x="1082" y="475" type="curve" smooth="yes"/>
      <point x="1082" y="623"/>
      <point x="1010" y="724"/>
      <point x="876" y="724" type="curve" smooth="yes"/>
      <point x="801" y="724"/>
      <point x="750" y="685"/>
      <point x="727" y="622" type="curve"/>
      <point x="722" y="622" type="line"/>
      <point x="701" y="685"/>
      <point x="652" y="724"/>
      <point x="571" y="724" type="curve" smooth="yes"/>
      <point x="497" y="724"/>
      <point x="444" y="688"/>
      <point x="420" y="622" type="curve"/>
      <point x="415" y="622" type="line"/>
      <point x="394" y="685"/>
      <point x="345" y="724"/>
      <point x="267" y="724" type="curve" smooth="yes"/>
      <point x="133" y="724"/>
      <point x="61" y="630"/>
      <point x="61" y="491" type="curve" smooth="yes"/>
      <point x="61" y="314"/>
      <point x="169" y="226"/>
      <point x="319" y="194" type="curve"/>
      <point x="319" y="191" type="line"/>
      <point x="270" y="188"/>
      <point x="227" y="172"/>
      <point x="190" y="152" type="curve"/>
      <point x="226" y="87" type="line"/>
      <point x="284" y="116"/>
      <point x="351" y="138"/>
      <point x="442" y="138" type="curve" smooth="yes"/>
      <point x="563" y="138"/>
      <point x="714" y="92"/>
    </contour>
  </outline>
</glyph>
<glyph name="Man-georgian" format="2">
  <advance width="634"/>
  <unicode hex="1C9B"/>
  <outline>
    <contour>
      <point x="310" y="-10" type="curve" smooth="yes"/>
      <point x="465" y="-10"/>
      <point x="551" y="79"/>
      <point x="551" y="250" type="curve" smooth="yes"/>
      <point x="551" y="528" type="line" smooth="yes"/>
      <point x="551" y="645"/>
      <point x="462" y="724"/>
      <point x="316" y="724" type="curve" smooth="yes"/>
      <point x="197" y="724"/>
      <point x="89" y="663"/>
      <point x="89" y="569" type="curve" smooth="yes"/>
      <point x="89" y="562"/>
      <point x="89" y="559"/>
      <point x="90" y="548" type="curve"/>
      <point x="178" y="548" type="line"/>
      <point x="178" y="552"/>
      <point x="178" y="553"/>
      <point x="178" y="557" type="curve" smooth="yes"/>
      <point x="178" y="616"/>
      <point x="240" y="649"/>
      <point x="315" y="649" type="curve" smooth="yes"/>
      <point x="414" y="649"/>
      <point x="461" y="602"/>
      <point x="461" y="537" type="curve" smooth="yes"/>
      <point x="461" y="494" type="line"/>
      <point x="461" y="471"/>
      <point x="465" y="442"/>
      <point x="467" y="428" type="curve"/>
      <point x="461" y="428" type="line"/>
      <point x="427" y="470"/>
      <point x="374" y="504"/>
      <point x="291" y="504" type="curve" smooth="yes"/>
      <point x="153" y="504"/>
      <point x="61" y="413"/>
      <point x="61" y="250" type="curve" smooth="yes"/>
      <point x="61" y="79"/>
      <point x="161" y="-10"/>
    </contour>
    <contour>
      <point x="310" y="66" type="curve" smooth="yes"/>
      <point x="205" y="66"/>
      <point x="156" y="135"/>
      <point x="156" y="248" type="curve" smooth="yes"/>
      <point x="156" y="354"/>
      <point x="207" y="428"/>
      <point x="305" y="428" type="curve" smooth="yes"/>
      <point x="432" y="428"/>
      <point x="462" y="348"/>
      <point x="462" y="250" type="curve" smooth="yes"/>
      <point x="462" y="235" type="line" smooth="yes"/>
      <point x="462" y="134"/>
      <point x="419" y="66"/>
    </contour>
  </outline>
</glyph>
<glyph name="Nar-georgian" format="2">
  <advance width="634"/>
  <unicode hex="1C9C"/>
  <outline>
    <contour>
      <point x="324" y="-10" type="curve" smooth="yes"/>
      <point x="473" y="-10"/>
      <point x="573" y="79"/>
      <point x="573" y="250" type="curve" smooth="yes"/>
      <point x="573" y="414"/>
      <point x="481" y="505"/>
      <point x="343" y="505" type="curve" smooth="yes"/>
      <point x="260" y="505"/>
      <point x="207" y="469"/>
      <point x="173" y="427" type="curve"/>
      <point x="167" y="427" type="line"/>
      <point x="169" y="441"/>
      <point x="173" y="470"/>
      <point x="173" y="493" type="curve" smooth="yes"/>
      <point x="173" y="533" type="line" smooth="yes"/>
      <point x="173" y="608"/>
      <point x="213" y="636"/>
      <point x="277" y="636" type="curve" smooth="yes"/>
      <point x="521" y="636" type="line"/>
      <point x="521" y="714" type="line"/>
      <point x="265" y="714" type="line" smooth="yes"/>
      <point x="163" y="714"/>
      <point x="83" y="661"/>
      <point x="83" y="528" type="curve" smooth="yes"/>
      <point x="83" y="250" type="line" smooth="yes"/>
      <point x="83" y="79"/>
      <point x="169" y="-10"/>
    </contour>
    <contour>
      <point x="324" y="66" type="curve" smooth="yes"/>
      <point x="215" y="66"/>
      <point x="172" y="134"/>
      <point x="172" y="235" type="curve" smooth="yes"/>
      <point x="172" y="250" type="line" smooth="yes"/>
      <point x="172" y="349"/>
      <point x="213" y="429"/>
      <point x="329" y="429" type="curve" smooth="yes"/>
      <point x="427" y="429"/>
      <point x="478" y="355"/>
      <point x="478" y="248" type="curve" smooth="yes"/>
      <point x="478" y="135"/>
      <point x="429" y="66"/>
    </contour>
  </outline>
</glyph>
<glyph name="On-georgian" format="2">
  <advance width="900"/>
  <unicode hex="1C9D"/>
  <anchor x="450" y="714" name="top"/>
  <outline>
    <contour>
      <point x="147" y="0" type="curve"/>
      <point x="241" y="0" type="line"/>
      <point x="189" y="129"/>
      <point x="161" y="246"/>
      <point x="161" y="407" type="curve" smooth="yes"/>
      <point x="161" y="587"/>
      <point x="226" y="646"/>
      <point x="291" y="646" type="curve" smooth="yes"/>
      <point x="356" y="646"/>
      <point x="403" y="597"/>
      <point x="403" y="477" type="curve" smooth="yes"/>
      <point x="403" y="210" type="line"/>
      <point x="497" y="210" type="line"/>
      <point x="497" y="477" type="line" smooth="yes"/>
      <point x="497" y="596"/>
      <point x="543" y="646"/>
      <point x="607" y="646" type="curve" smooth="yes"/>
      <point x="675" y="646"/>
      <point x="739" y="585"/>
      <point x="739" y="407" type="curve" smooth="yes"/>
      <point x="739" y="241"/>
      <point x="710" y="129"/>
      <point x="659" y="0" type="curve"/>
      <point x="753" y="0" type="line"/>
      <point x="803" y="123"/>
      <point x="834" y="233"/>
      <point x="834" y="412" type="curve" smooth="yes"/>
      <point x="834" y="639"/>
      <point x="726" y="724"/>
      <point x="612" y="724" type="curve" smooth="yes"/>
      <point x="548" y="724"/>
      <point x="479" y="699"/>
      <point x="452" y="616" type="curve"/>
      <point x="449" y="616" type="line"/>
      <point x="420" y="699"/>
      <point x="349" y="724"/>
      <point x="286" y="724" type="curve" smooth="yes"/>
      <point x="175" y="724"/>
      <point x="66" y="640"/>
      <point x="66" y="412" type="curve" smooth="yes"/>
      <point x="66" y="237"/>
      <point x="96" y="123"/>
    </contour>
  </outline>
</glyph>
<glyph name="Par-georgian" format="2">
  <advance width="607"/>
  <unicode hex="1C9E"/>
  <outline>
    <contour>
      <point x="300" y="-10" type="curve" smooth="yes"/>
      <point x="449" y="-10"/>
      <point x="546" y="78"/>
      <point x="546" y="202" type="curve" smooth="yes"/>
      <point x="546" y="317"/>
      <point x="472" y="377"/>
      <point x="405" y="390" type="curve"/>
      <point x="405" y="394" type="line"/>
      <point x="472" y="410"/>
      <point x="521" y="442"/>
      <point x="521" y="510" type="curve" smooth="yes"/>
      <point x="521" y="584"/>
      <point x="468" y="620"/>
      <point x="418" y="642" type="curve" smooth="yes"/>
      <point x="369" y="664"/>
      <point x="333" y="683"/>
      <point x="333" y="714" type="curve"/>
      <point x="241" y="714" type="line"/>
      <point x="238" y="644"/>
      <point x="289" y="614"/>
      <point x="343" y="589" type="curve" smooth="yes"/>
      <point x="384" y="570"/>
      <point x="427" y="555"/>
      <point x="427" y="501" type="curve" smooth="yes"/>
      <point x="427" y="459"/>
      <point x="391" y="429"/>
      <point x="305" y="429" type="curve" smooth="yes"/>
      <point x="237" y="429" type="line"/>
      <point x="237" y="352" type="line"/>
      <point x="285" y="352" type="line" smooth="yes"/>
      <point x="398" y="352"/>
      <point x="451" y="289"/>
      <point x="451" y="212" type="curve" smooth="yes"/>
      <point x="451" y="132"/>
      <point x="401" y="68"/>
      <point x="300" y="68" type="curve" smooth="yes"/>
      <point x="204" y="68"/>
      <point x="149" y="119"/>
      <point x="149" y="211" type="curve" smooth="yes"/>
      <point x="149" y="231"/>
      <point x="152" y="254"/>
      <point x="158" y="279" type="curve"/>
      <point x="67" y="279" type="line"/>
      <point x="59" y="252"/>
      <point x="55" y="226"/>
      <point x="55" y="201" type="curve" smooth="yes"/>
      <point x="55" y="77"/>
      <point x="153" y="-10"/>
    </contour>
  </outline>
</glyph>
<glyph name="Zhar-georgian" format="2">
  <advance width="652"/>
  <unicode hex="1C9F"/>
  <outline>
    <contour>
      <point x="325" y="-10" type="curve" smooth="yes"/>
      <point x="479" y="-10"/>
      <point x="564" y="78"/>
      <point x="564" y="227" type="curve" smooth="yes"/>
      <point x="564" y="714" type="line"/>
      <point x="483" y="714" type="line"/>
      <point x="403" y="680"/>
      <point x="298" y="663"/>
      <point x="198" y="651" type="curve"/>
      <point x="198" y="586" type="line"/>
      <point x="256" y="584"/>
      <point x="283" y="557"/>
      <point x="283" y="507" type="curve" smooth="yes"/>
      <point x="283" y="467"/>
      <point x="253" y="438"/>
      <point x="205" y="438" type="curve" smooth="yes"/>
      <point x="160" y="438"/>
      <point x="132" y="464"/>
      <point x="132" y="503" type="curve" smooth="yes"/>
      <point x="132" y="510"/>
      <point x="132" y="516"/>
      <point x="134" y="525" type="curve"/>
      <point x="56" y="525" type="line"/>
      <point x="52" y="514"/>
      <point x="51" y="501"/>
      <point x="51" y="491" type="curve" smooth="yes"/>
      <point x="51" y="422"/>
      <point x="114" y="366"/>
      <point x="205" y="366" type="curve" smooth="yes"/>
      <point x="298" y="366"/>
      <point x="367" y="423"/>
      <point x="367" y="499" type="curve" smooth="yes"/>
      <point x="367" y="546"/>
      <point x="342" y="584"/>
      <point x="304" y="600" type="curve"/>
      <point x="304" y="601" type="line"/>
      <point x="358" y="608"/>
      <point x="417" y="619"/>
      <point x="474" y="640" type="curve"/>
      <point x="474" y="230" type="line" smooth="yes"/>
      <point x="474" y="131"/>
      <point x="432" y="68"/>
      <point x="325" y="68" type="curve" smooth="yes"/>
      <point x="232" y="68"/>
      <point x="177" y="119"/>
      <point x="177" y="211" type="curve" smooth="yes"/>
      <point x="177" y="231"/>
      <point x="180" y="254"/>
      <point x="186" y="279" type="curve"/>
      <point x="95" y="279" type="line"/>
      <point x="87" y="252"/>
      <point x="83" y="226"/>
      <point x="83" y="201" type="curve" smooth="yes"/>
      <point x="83" y="77"/>
      <point x="181" y="-10"/>
    </contour>
  </outline>
</glyph>
<glyph name="Rae-georgian" format="2">
  <advance width="845"/>
  <unicode hex="1CA0"/>
  <outline>
    <contour>
      <point x="113" y="0" type="curve"/>
      <point x="206" y="0" type="line"/>
      <point x="173" y="87"/>
      <point x="153" y="162"/>
      <point x="153" y="259" type="curve" smooth="yes"/>
      <point x="153" y="377"/>
      <point x="191" y="437"/>
      <point x="270" y="437" type="curve" smooth="yes"/>
      <point x="338" y="437"/>
      <point x="377" y="391"/>
      <point x="377" y="301" type="curve" smooth="yes"/>
      <point x="377" y="160" type="line"/>
      <point x="465" y="160" type="line"/>
      <point x="465" y="301" type="line" smooth="yes"/>
      <point x="465" y="391"/>
      <point x="509" y="437"/>
      <point x="572" y="437" type="curve" smooth="yes"/>
      <point x="652" y="437"/>
      <point x="690" y="375"/>
      <point x="690" y="260" type="curve" smooth="yes"/>
      <point x="690" y="165"/>
      <point x="671" y="90"/>
      <point x="636" y="0" type="curve"/>
      <point x="730" y="0" type="line"/>
      <point x="763" y="88"/>
      <point x="784" y="163"/>
      <point x="784" y="259" type="curve" smooth="yes"/>
      <point x="784" y="409"/>
      <point x="718" y="513"/>
      <point x="579" y="513" type="curve" smooth="yes"/>
      <point x="501" y="513"/>
      <point x="445" y="478"/>
      <point x="424" y="416" type="curve"/>
      <point x="421" y="416" type="line"/>
      <point x="400" y="478"/>
      <point x="350" y="513"/>
      <point x="279" y="513" type="curve" smooth="yes"/>
      <point x="236" y="513"/>
      <point x="189" y="503"/>
      <point x="150" y="453" type="curve"/>
      <point x="147" y="453" type="line"/>
      <point x="183" y="559"/>
      <point x="263" y="593"/>
      <point x="348" y="610" type="curve" smooth="yes"/>
      <point x="403" y="621"/>
      <point x="489" y="632"/>
      <point x="584" y="644" type="curve"/>
      <point x="569" y="724" type="line"/>
      <point x="488" y="713"/>
      <point x="409" y="701"/>
      <point x="331" y="686" type="curve" smooth="yes"/>
      <point x="148" y="650"/>
      <point x="61" y="528"/>
      <point x="61" y="296" type="curve" smooth="yes"/>
      <point x="61" y="168"/>
      <point x="73" y="102"/>
    </contour>
  </outline>
</glyph>
<glyph name="San-georgian" format="2">
  <advance width="636"/>
  <unicode hex="1CA1"/>
  <outline>
    <contour>
      <point x="328" y="-10" type="curve" smooth="yes"/>
      <point x="476" y="-10"/>
      <point x="575" y="79"/>
      <point x="575" y="212" type="curve" smooth="yes"/>
      <point x="575" y="283"/>
      <point x="550" y="328"/>
      <point x="520" y="368" type="curve" smooth="yes"/>
      <point x="488" y="411"/>
      <point x="458" y="448"/>
      <point x="460" y="505" type="curve"/>
      <point x="367" y="505" type="line"/>
      <point x="362" y="430"/>
      <point x="396" y="381"/>
      <point x="431" y="336" type="curve" smooth="yes"/>
      <point x="457" y="303"/>
      <point x="480" y="270"/>
      <point x="480" y="214" type="curve" smooth="yes"/>
      <point x="480" y="135"/>
      <point x="431" y="68"/>
      <point x="328" y="68" type="curve" smooth="yes"/>
      <point x="220" y="68"/>
      <point x="173" y="135"/>
      <point x="173" y="236" type="curve" smooth="yes"/>
      <point x="173" y="714" type="line"/>
      <point x="83" y="714" type="line"/>
      <point x="83" y="245" type="line" smooth="yes"/>
      <point x="83" y="79"/>
      <point x="168" y="-10"/>
    </contour>
  </outline>
</glyph>
<glyph name="Tar-georgian" format="2">
  <advance width="810"/>
  <unicode hex="1CA2"/>
  <outline>
    <contour>
      <point x="405" y="-10" type="curve" smooth="yes"/>
      <point x="628" y="-10"/>
      <point x="749" y="143"/>
      <point x="749" y="346" type="curve" smooth="yes"/>
      <point x="749" y="548"/>
      <point x="639" y="678"/>
      <point x="449" y="697" type="curve"/>
      <point x="451" y="709"/>
      <point x="452" y="724"/>
      <point x="452" y="737" type="curve"/>
      <point x="452" y="752" type="line"/>
      <point x="358" y="752" type="line"/>
      <point x="358" y="737" type="line"/>
      <point x="358" y="724"/>
      <point x="359" y="709"/>
      <point x="361" y="696" type="curve"/>
      <point x="170" y="677"/>
      <point x="61" y="547"/>
      <point x="61" y="347" type="curve" smooth="yes"/>
      <point x="61" y="130"/>
      <point x="185" y="-10"/>
    </contour>
    <contour>
      <point x="404" y="68" type="curve" smooth="yes"/>
      <point x="245" y="68"/>
      <point x="156" y="176"/>
      <point x="156" y="347" type="curve" smooth="yes"/>
      <point x="156" y="504"/>
      <point x="224" y="602"/>
      <point x="363" y="620" type="curve"/>
      <point x="360" y="599"/>
      <point x="359" y="575"/>
      <point x="359" y="544" type="curve"/>
      <point x="359" y="337" type="line"/>
      <point x="451" y="337" type="line"/>
      <point x="451" y="543" type="line"/>
      <point x="451" y="575"/>
      <point x="449" y="605"/>
      <point x="447" y="622" type="curve"/>
      <point x="583" y="603"/>
      <point x="653" y="508"/>
      <point x="653" y="347" type="curve" smooth="yes"/>
      <point x="653" y="175"/>
      <point x="565" y="68"/>
    </contour>
  </outline>
</glyph>
<glyph name="Un-georgian" format="2">
  <advance width="625"/>
  <unicode hex="1CA3"/>
  <anchor x="305" y="714" name="top"/>
  <outline>
    <contour>
      <point x="300" y="-9" type="curve" smooth="yes"/>
      <point x="454" y="-9"/>
      <point x="542" y="77"/>
      <point x="542" y="227" type="curve" smooth="yes"/>
      <point x="542" y="565" type="line" smooth="yes"/>
      <point x="542" y="659"/>
      <point x="482" y="725"/>
      <point x="379" y="725" type="curve" smooth="yes"/>
      <point x="316" y="725"/>
      <point x="267" y="700"/>
      <point x="244" y="640" type="curve"/>
      <point x="241" y="640" type="line"/>
      <point x="218" y="705"/>
      <point x="164" y="720"/>
      <point x="112" y="720" type="curve" smooth="yes"/>
      <point x="45" y="720" type="line"/>
      <point x="45" y="643" type="line"/>
      <point x="115" y="643" type="line" smooth="yes"/>
      <point x="167" y="643"/>
      <point x="197" y="614"/>
      <point x="197" y="553" type="curve" smooth="yes"/>
      <point x="197" y="438" type="line"/>
      <point x="285" y="438" type="line"/>
      <point x="285" y="553" type="line" smooth="yes"/>
      <point x="285" y="615"/>
      <point x="315" y="650"/>
      <point x="368" y="650" type="curve" smooth="yes"/>
      <point x="424" y="650"/>
      <point x="452" y="615"/>
      <point x="452" y="552" type="curve" smooth="yes"/>
      <point x="452" y="231" type="line" smooth="yes"/>
      <point x="452" y="133"/>
      <point x="408" y="69"/>
      <point x="300" y="69" type="curve" smooth="yes"/>
      <point x="201" y="69"/>
      <point x="151" y="132"/>
      <point x="151" y="218" type="curve" smooth="yes"/>
      <point x="151" y="243"/>
      <point x="155" y="276"/>
      <point x="160" y="296" type="curve"/>
      <point x="72" y="296" type="line"/>
      <point x="64" y="274"/>
      <point x="58" y="244"/>
      <point x="58" y="210" type="curve" smooth="yes"/>
      <point x="58" y="78"/>
      <point x="156" y="-9"/>
    </contour>
  </outline>
</glyph>
<glyph name="Phar-georgian" format="2">
  <advance width="914"/>
  <unicode hex="1CA4"/>
  <outline>
    <contour>
      <point x="556" y="-9" type="curve" smooth="yes"/>
      <point x="725" y="-9"/>
      <point x="833" y="77"/>
      <point x="833" y="192" type="curve" smooth="yes"/>
      <point x="833" y="271"/>
      <point x="795" y="325"/>
      <point x="723" y="343" type="curve"/>
      <point x="723" y="347" type="line"/>
      <point x="795" y="364"/>
      <point x="853" y="420"/>
      <point x="853" y="533" type="curve" smooth="yes"/>
      <point x="853" y="633"/>
      <point x="781" y="724"/>
      <point x="656" y="724" type="curve" smooth="yes"/>
      <point x="570" y="724"/>
      <point x="509" y="687"/>
      <point x="486" y="618" type="curve"/>
      <point x="481" y="618" type="line"/>
      <point x="453" y="686"/>
      <point x="380" y="724"/>
      <point x="298" y="724" type="curve" smooth="yes"/>
      <point x="154" y="724"/>
      <point x="61" y="628"/>
      <point x="61" y="485" type="curve" smooth="yes"/>
      <point x="61" y="346"/>
      <point x="162" y="253"/>
      <point x="297" y="253" type="curve" smooth="yes"/>
      <point x="442" y="253"/>
      <point x="534" y="346"/>
      <point x="534" y="484" type="curve" smooth="yes"/>
      <point x="534" y="516" type="line" smooth="yes"/>
      <point x="534" y="600"/>
      <point x="582" y="646"/>
      <point x="651" y="646" type="curve" smooth="yes"/>
      <point x="722" y="646"/>
      <point x="759" y="597"/>
      <point x="759" y="520" type="curve" smooth="yes"/>
      <point x="759" y="436"/>
      <point x="702" y="382"/>
      <point x="632" y="382" type="curve" smooth="yes"/>
      <point x="587" y="382" type="line"/>
      <point x="587" y="306" type="line"/>
      <point x="611" y="306" type="line" smooth="yes"/>
      <point x="702" y="306"/>
      <point x="738" y="252"/>
      <point x="738" y="196" type="curve" smooth="yes"/>
      <point x="738" y="125"/>
      <point x="678" y="67"/>
      <point x="556" y="67" type="curve" smooth="yes"/>
      <point x="437" y="67"/>
      <point x="361" y="100"/>
      <point x="361" y="173" type="curve" smooth="yes"/>
      <point x="361" y="180"/>
      <point x="362" y="190"/>
      <point x="363" y="198" type="curve"/>
      <point x="276" y="198" type="line"/>
      <point x="273" y="185"/>
      <point x="272" y="173"/>
      <point x="272" y="161" type="curve" smooth="yes"/>
      <point x="272" y="54"/>
      <point x="385" y="-9"/>
    </contour>
    <contour>
      <point x="299" y="330" type="curve" smooth="yes"/>
      <point x="201" y="330"/>
      <point x="156" y="399"/>
      <point x="156" y="485" type="curve" smooth="yes"/>
      <point x="156" y="576"/>
      <point x="200" y="645"/>
      <point x="298" y="645" type="curve" smooth="yes"/>
      <point x="395" y="645"/>
      <point x="439" y="576"/>
      <point x="439" y="485" type="curve" smooth="yes"/>
      <point x="439" y="400"/>
      <point x="395" y="330"/>
    </contour>
  </outline>
</glyph>
<glyph name="Khar-georgian" format="2">
  <advance width="618"/>
  <unicode hex="1CA5"/>
  <outline>
    <contour>
      <point x="297" y="-10" type="curve" smooth="yes"/>
      <point x="451" y="-10"/>
      <point x="535" y="78"/>
      <point x="535" y="232" type="curve" smooth="yes"/>
      <point x="535" y="714" type="line"/>
      <point x="445" y="714" type="line"/>
      <point x="445" y="623" type="line" smooth="yes"/>
      <point x="445" y="599"/>
      <point x="448" y="561"/>
      <point x="450" y="547" type="curve"/>
      <point x="446" y="547" type="line"/>
      <point x="414" y="586"/>
      <point x="360" y="617"/>
      <point x="287" y="617" type="curve" smooth="yes"/>
      <point x="183" y="617"/>
      <point x="85" y="553"/>
      <point x="85" y="433" type="curve" smooth="yes"/>
      <point x="85" y="416"/>
      <point x="87" y="401"/>
      <point x="90" y="388" type="curve"/>
      <point x="182" y="388" type="line"/>
      <point x="180" y="400"/>
      <point x="179" y="415"/>
      <point x="179" y="430" type="curve" smooth="yes"/>
      <point x="179" y="501"/>
      <point x="233" y="540"/>
      <point x="303" y="540" type="curve" smooth="yes"/>
      <point x="414" y="540"/>
      <point x="446" y="453"/>
      <point x="446" y="356" type="curve" smooth="yes"/>
      <point x="446" y="235" type="line" smooth="yes"/>
      <point x="446" y="134"/>
      <point x="403" y="68"/>
      <point x="297" y="68" type="curve" smooth="yes"/>
      <point x="204" y="68"/>
      <point x="149" y="119"/>
      <point x="149" y="211" type="curve" smooth="yes"/>
      <point x="149" y="231"/>
      <point x="152" y="254"/>
      <point x="158" y="279" type="curve"/>
      <point x="67" y="279" type="line"/>
      <point x="59" y="252"/>
      <point x="55" y="226"/>
      <point x="55" y="201" type="curve" smooth="yes"/>
      <point x="55" y="77"/>
      <point x="153" y="-10"/>
    </contour>
  </outline>
</glyph>
<glyph name="Ghan-georgian" format="2">
  <advance width="846"/>
  <unicode hex="1CA6"/>
  <outline>
    <contour>
      <point x="536" y="0" type="curve"/>
      <point x="621" y="0" type="line"/>
      <point x="610" y="108"/>
      <point x="521" y="165"/>
      <point x="422" y="195" type="curve" smooth="yes"/>
      <point x="283" y="237"/>
      <point x="155" y="278"/>
      <point x="155" y="476" type="curve" smooth="yes"/>
      <point x="155" y="586"/>
      <point x="199" y="645"/>
      <point x="278" y="645" type="curve" smooth="yes"/>
      <point x="347" y="645"/>
      <point x="378" y="596"/>
      <point x="378" y="528" type="curve" smooth="yes"/>
      <point x="378" y="382" type="line"/>
      <point x="467" y="382" type="line"/>
      <point x="467" y="528" type="line" smooth="yes"/>
      <point x="467" y="602"/>
      <point x="503" y="645"/>
      <point x="566" y="645" type="curve" smooth="yes"/>
      <point x="647" y="645"/>
      <point x="691" y="582"/>
      <point x="691" y="472" type="curve" smooth="yes"/>
      <point x="691" y="403"/>
      <point x="680" y="348"/>
      <point x="648" y="288" type="curve"/>
      <point x="728" y="258" type="line"/>
      <point x="767" y="325"/>
      <point x="785" y="394"/>
      <point x="785" y="472" type="curve" smooth="yes"/>
      <point x="785" y="620"/>
      <point x="713" y="721"/>
      <point x="574" y="721" type="curve" smooth="yes"/>
      <point x="502" y="721"/>
      <point x="449" y="690"/>
      <point x="425" y="631" type="curve"/>
      <point x="420" y="631" type="line"/>
      <point x="398" y="687"/>
      <point x="349" y="721"/>
      <point x="271" y="721" type="curve" smooth="yes"/>
      <point x="132" y="721"/>
      <point x="61" y="619"/>
      <point x="61" y="472" type="curve" smooth="yes"/>
      <point x="61" y="329"/>
      <point x="131" y="233"/>
      <point x="259" y="184" type="curve"/>
      <point x="259" y="181" type="line"/>
      <point x="202" y="178"/>
      <point x="169" y="164"/>
      <point x="141" y="150" type="curve"/>
      <point x="174" y="86" type="line"/>
      <point x="217" y="110"/>
      <point x="274" y="122"/>
      <point x="333" y="122" type="curve" smooth="yes"/>
      <point x="431" y="122"/>
      <point x="521" y="85"/>
    </contour>
  </outline>
</glyph>
<glyph name="Qar-georgian" format="2">
  <advance width="625"/>
  <unicode hex="1CA7"/>
  <outline>
    <contour>
      <point x="303" y="-10" type="curve" smooth="yes"/>
      <point x="457" y="-10"/>
      <point x="542" y="78"/>
      <point x="542" y="232" type="curve" smooth="yes"/>
      <point x="542" y="714" type="line"/>
      <point x="452" y="714" type="line"/>
      <point x="452" y="573" type="line" smooth="yes"/>
      <point x="452" y="471"/>
      <point x="396" y="413"/>
      <point x="289" y="413" type="curve" smooth="yes"/>
      <point x="207" y="413"/>
      <point x="157" y="467"/>
      <point x="157" y="558" type="curve" smooth="yes"/>
      <point x="157" y="626"/>
      <point x="171" y="667"/>
      <point x="191" y="714" type="curve"/>
      <point x="99" y="714" type="line"/>
      <point x="77" y="671"/>
      <point x="62" y="617"/>
      <point x="62" y="557" type="curve" smooth="yes"/>
      <point x="62" y="415"/>
      <point x="142" y="336"/>
      <point x="276" y="336" type="curve" smooth="yes"/>
      <point x="351" y="336"/>
      <point x="417" y="366"/>
      <point x="452" y="415" type="curve"/>
      <point x="456" y="415" type="line"/>
      <point x="453" y="390"/>
      <point x="452" y="361"/>
      <point x="452" y="337" type="curve" smooth="yes"/>
      <point x="452" y="235" type="line" smooth="yes"/>
      <point x="452" y="134"/>
      <point x="409" y="68"/>
      <point x="303" y="68" type="curve" smooth="yes"/>
      <point x="210" y="68"/>
      <point x="155" y="119"/>
      <point x="155" y="211" type="curve" smooth="yes"/>
      <point x="155" y="231"/>
      <point x="158" y="254"/>
      <point x="164" y="279" type="curve"/>
      <point x="73" y="279" type="line"/>
      <point x="65" y="252"/>
      <point x="61" y="226"/>
      <point x="61" y="201" type="curve" smooth="yes"/>
      <point x="61" y="77"/>
      <point x="159" y="-10"/>
    </contour>
  </outline>
</glyph>
<glyph name="Shin-georgian" format="2">
  <advance width="637"/>
  <unicode hex="1CA8"/>
  <outline>
    <contour>
      <point x="313" y="-10" type="curve" smooth="yes"/>
      <point x="468" y="-10"/>
      <point x="554" y="79"/>
      <point x="554" y="250" type="curve" smooth="yes"/>
      <point x="554" y="564" type="line" smooth="yes"/>
      <point x="554" y="673"/>
      <point x="478" y="724"/>
      <point x="390" y="724" type="curve" smooth="yes"/>
      <point x="342" y="724"/>
      <point x="286" y="707"/>
      <point x="259" y="650" type="curve"/>
      <point x="256" y="650" type="line"/>
      <point x="231" y="706"/>
      <point x="184" y="724"/>
      <point x="141" y="724" type="curve" smooth="yes"/>
      <point x="104" y="724"/>
      <point x="69" y="715"/>
      <point x="43" y="703" type="curve"/>
      <point x="70" y="635" type="line"/>
      <point x="91" y="643"/>
      <point x="112" y="649"/>
      <point x="139" y="649" type="curve" smooth="yes"/>
      <point x="178" y="649"/>
      <point x="213" y="622"/>
      <point x="213" y="576" type="curve" smooth="yes"/>
      <point x="213" y="547" type="line"/>
      <point x="302" y="547" type="line"/>
      <point x="302" y="576" type="line" smooth="yes"/>
      <point x="302" y="622"/>
      <point x="333" y="651"/>
      <point x="379" y="651" type="curve" smooth="yes"/>
      <point x="429" y="651"/>
      <point x="464" y="619"/>
      <point x="464" y="563" type="curve" smooth="yes"/>
      <point x="464" y="494" type="line" smooth="yes"/>
      <point x="464" y="471"/>
      <point x="468" y="442"/>
      <point x="470" y="428" type="curve"/>
      <point x="464" y="428" type="line"/>
      <point x="430" y="470"/>
      <point x="377" y="504"/>
      <point x="294" y="504" type="curve" smooth="yes"/>
      <point x="156" y="504"/>
      <point x="64" y="414"/>
      <point x="64" y="250" type="curve" smooth="yes"/>
      <point x="64" y="79"/>
      <point x="164" y="-10"/>
    </contour>
    <contour>
      <point x="313" y="66" type="curve" smooth="yes"/>
      <point x="208" y="66"/>
      <point x="159" y="135"/>
      <point x="159" y="248" type="curve" smooth="yes"/>
      <point x="159" y="355"/>
      <point x="210" y="428"/>
      <point x="308" y="428" type="curve" smooth="yes"/>
      <point x="435" y="428"/>
      <point x="465" y="348"/>
      <point x="465" y="250" type="curve" smooth="yes"/>
      <point x="465" y="235" type="line" smooth="yes"/>
      <point x="465" y="134"/>
      <point x="422" y="66"/>
    </contour>
  </outline>
</glyph>
<glyph name="Chin-georgian" format="2">
  <advance width="618"/>
  <unicode hex="1CA9"/>
  <outline>
    <contour>
      <point x="83" y="0" type="line"/>
      <point x="173" y="0" type="line"/>
      <point x="173" y="244" type="line" smooth="yes"/>
      <point x="173" y="355"/>
      <point x="233" y="418"/>
      <point x="326" y="418" type="curve" smooth="yes"/>
      <point x="412" y="418"/>
      <point x="462" y="351"/>
      <point x="462" y="249" type="curve" smooth="yes"/>
      <point x="462" y="148"/>
      <point x="445" y="57"/>
      <point x="420" y="0" type="curve"/>
      <point x="512" y="0" type="line"/>
      <point x="535" y="50"/>
      <point x="557" y="155"/>
      <point x="557" y="249" type="curve" smooth="yes"/>
      <point x="557" y="365"/>
      <point x="506" y="452"/>
      <point x="404" y="477" type="curve"/>
      <point x="404" y="480" type="line"/>
      <point x="449" y="505"/>
      <point x="465" y="541"/>
      <point x="465" y="583" type="curve" smooth="yes"/>
      <point x="465" y="672"/>
      <point x="387" y="724"/>
      <point x="279" y="724" type="curve" smooth="yes"/>
      <point x="155" y="724"/>
      <point x="83" y="650"/>
      <point x="83" y="537" type="curve" smooth="yes"/>
    </contour>
    <contour>
      <point x="168" y="408" type="line"/>
      <point x="171" y="429"/>
      <point x="173" y="454"/>
      <point x="173" y="470" type="curve" smooth="yes"/>
      <point x="173" y="544" type="line" smooth="yes"/>
      <point x="173" y="609"/>
      <point x="215" y="649"/>
      <point x="278" y="649" type="curve" smooth="yes"/>
      <point x="337" y="649"/>
      <point x="375" y="623"/>
      <point x="375" y="578" type="curve" smooth="yes"/>
      <point x="375" y="529"/>
      <point x="332" y="507"/>
      <point x="276" y="484" type="curve" smooth="yes"/>
      <point x="231" y="466"/>
      <point x="196" y="441"/>
      <point x="174" y="408" type="curve"/>
    </contour>
  </outline>
</glyph>
